<svg width="390" height="2496" viewBox="0 0 390 2496" fill="none" xmlns="http://www.w3.org/2000/svg">
<path opacity="0.3" d="M385.488 2409.7C398.055 2399.52 405.568 2387.61 408.053 2373.97C410.538 2360.33 407.103 2347.74 397.776 2336.22L382.381 2317.21C380.331 2314.68 379.336 2312.52 379.413 2310.74C379.491 2308.96 380.613 2307.2 382.78 2305.44C383.576 2304.8 384.644 2304.12 385.972 2303.43C388.825 2301.12 389.367 2298.86 387.597 2296.68L374.021 2279.91C372.161 2277.62 369.915 2276.94 367.299 2277.92C361.193 2280.19 355.634 2283.36 350.605 2287.43C342.459 2294.41 337.823 2301.94 336.686 2310.01C335.558 2318.08 338.124 2325.97 344.381 2333.69L362.994 2356.68C371.762 2367.5 371.473 2376.71 362.1 2384.3C356.96 2388.46 352.188 2389.8 347.765 2388.32C343.35 2386.84 338.67 2383.04 333.73 2376.94L302.241 2338.06C300.191 2335.52 297.852 2335.31 295.222 2337.45L272.092 2356.18C269.35 2358.4 269.009 2360.78 271.059 2363.31L304.227 2404.27C308.796 2409.91 311.072 2414.88 311.073 2419.19C311.056 2423.5 308.713 2427.55 304.027 2431.34C299.34 2435.14 294.295 2435.79 288.194 2433.86C282.094 2431.94 276.295 2427.58 270.787 2420.77C261.921 2409.83 254.758 2397.13 249.291 2382.67C247.598 2378.7 245.09 2378.06 241.774 2380.74L219.672 2398.64C217.163 2400.67 216.44 2403.16 217.503 2406.12C223.747 2422.24 231.537 2436.06 240.864 2447.58C252.34 2461.75 265.689 2470.01 280.938 2472.36C296.178 2474.72 310.249 2470.66 323.159 2460.21C337.319 2448.74 344.521 2436.24 344.716 2422.72C358.338 2425.05 371.939 2420.7 385.524 2409.7" fill="#0085D7"/>
<path opacity="0.25" d="M3.35656 2150.89C-9.38691 2160.85 -17.1058 2172.63 -19.8285 2186.22C-22.5512 2199.82 -19.337 2212.47 -10.2122 2224.15L4.84828 2243.42C6.85365 2245.99 7.81124 2248.16 7.70276 2249.94C7.59428 2251.72 6.44147 2253.47 4.24432 2255.18C3.43699 2255.81 2.35713 2256.47 1.01711 2257.14C-1.87495 2259.4 -2.45629 2261.65 -0.724741 2263.86L12.5558 2280.86C14.376 2283.19 16.6103 2283.9 19.2427 2282.97C25.3876 2280.81 31.0006 2277.74 36.1001 2273.75C44.3662 2266.91 49.1332 2259.47 50.4112 2251.42C51.6791 2243.37 49.2515 2235.44 43.1307 2227.61L24.9212 2204.3C16.344 2193.32 16.7932 2184.12 26.2971 2176.7C31.5089 2172.63 36.304 2171.37 40.7005 2172.93C45.0889 2174.48 49.7022 2178.37 54.5344 2184.55L85.3398 2223.98C87.3452 2226.55 89.6804 2226.8 92.3477 2224.71L115.801 2206.39C118.581 2204.22 118.964 2201.84 116.958 2199.28L84.51 2157.74C80.0401 2152.02 77.8514 2147.01 77.9255 2142.7C78.0179 2138.4 80.4309 2134.39 85.1829 2130.67C89.9349 2126.96 94.9911 2126.4 101.057 2128.43C107.122 2130.47 112.845 2134.93 118.233 2141.82C126.907 2152.92 133.847 2165.75 139.061 2180.3C140.684 2184.29 143.181 2184.98 146.543 2182.35L168.954 2164.84C171.498 2162.86 172.264 2160.38 171.254 2157.4C165.291 2141.18 157.744 2127.22 148.619 2115.54C137.392 2101.17 124.19 2092.68 108.984 2090.07C93.7875 2087.45 79.648 2091.26 66.557 2101.48C52.1989 2112.7 44.7806 2125.07 44.3487 2138.59C30.7699 2136.02 17.0956 2140.13 3.32002 2150.89" fill="#E7F5FE"/>
<path opacity="0.25" d="M279.324 136.976C266.581 127.02 258.862 115.245 256.139 101.647C253.416 88.0488 256.631 75.4038 265.755 63.7245L280.816 44.448C282.821 41.8813 283.779 39.7077 283.67 37.9297C283.562 36.1517 282.409 34.4044 280.212 32.6878C279.405 32.057 278.325 31.396 276.985 30.7308C274.093 28.4713 273.511 26.2243 275.243 24.008L288.523 7.00963C290.344 4.67996 292.578 3.96872 295.21 4.89654C301.355 7.05799 306.968 10.1319 312.068 14.116C320.334 20.9561 325.101 28.399 326.379 36.4527C327.647 44.4985 325.219 52.4294 319.098 60.2636L300.889 83.5707C292.312 94.549 292.761 103.748 302.265 111.173C307.477 115.245 312.272 116.501 316.668 114.94C321.057 113.388 325.67 109.505 330.502 103.321L361.307 63.8913C363.313 61.3246 365.648 61.074 368.315 63.1579L391.769 81.4816C394.548 83.6533 394.931 86.0277 392.926 88.5944L360.478 130.126C356.008 135.848 353.819 140.861 353.893 145.168C353.985 149.474 356.399 153.484 361.151 157.196C365.902 160.909 370.959 161.473 377.024 159.439C383.09 157.405 388.813 152.945 394.2 146.049C402.874 134.947 409.814 122.125 415.029 107.573C416.652 103.578 419.148 102.89 422.51 105.516L444.921 123.026C447.466 125.014 448.232 127.488 447.221 130.467C441.259 146.692 433.712 160.65 424.587 172.329C413.36 186.699 400.158 195.192 384.951 197.804C369.755 200.424 355.616 196.615 342.525 186.387C328.167 175.169 320.748 162.799 320.316 149.281C306.738 151.853 293.063 147.743 279.288 136.981" fill="#E7F5FE"/>
<path opacity="0.3" d="M92.4876 314.755C105.055 324.932 112.568 336.84 115.053 350.483C117.538 364.127 114.103 376.714 104.776 388.232L89.3813 407.243C87.3314 409.774 86.3361 411.931 86.4135 413.71C86.4909 415.49 87.6131 417.257 89.7799 419.012C90.5761 419.657 91.6443 420.336 92.9725 421.025C95.8247 423.334 96.3667 425.591 94.5968 427.777L81.0215 444.541C79.161 446.839 76.9146 447.511 74.2988 446.537C68.1926 444.269 62.634 441.097 57.6049 437.025C49.4594 430.042 44.8231 422.517 43.6858 414.442C42.5585 406.375 45.1242 398.488 51.3808 390.762L69.9942 367.776C78.7617 356.949 78.4732 347.744 69.1003 340.153C63.9603 335.991 59.1879 334.651 54.7648 336.136C50.35 337.611 45.6697 341.413 40.7302 347.512L9.24134 386.398C7.19147 388.929 4.85222 389.139 2.22176 387.009L-20.9082 368.279C-23.6495 366.059 -23.9911 363.678 -21.9412 361.147L11.2271 320.187C15.796 314.545 18.0719 309.571 18.073 305.262C18.0558 300.956 15.7131 296.905 11.0267 293.11C6.34022 289.315 1.29463 288.663 -4.80551 290.59C-10.9057 292.518 -16.7053 296.878 -22.2128 303.679C-31.0791 314.628 -38.2418 327.327 -43.7092 341.785C-45.4018 345.751 -47.9101 346.396 -51.2259 343.711L-73.3278 325.813C-75.8373 323.781 -76.5599 321.294 -75.4974 318.333C-69.2531 302.214 -61.4631 288.391 -52.1358 276.872C-40.6599 262.701 -27.3113 254.439 -12.0617 252.093C3.17782 249.739 17.2487 253.794 30.1591 264.249C44.3193 275.715 51.5206 288.213 51.7165 301.736C65.3381 299.402 78.9386 303.75 92.5243 314.751" fill="#0085D7"/>
</svg>
