<svg width="390" height="452" viewBox="0 0 390 452" fill="none" xmlns="http://www.w3.org/2000/svg">
<path opacity="0.25" d="M279.324 136.976C266.581 127.02 258.862 115.245 256.139 101.647C253.416 88.0488 256.631 75.4038 265.755 63.7245L280.816 44.448C282.821 41.8813 283.779 39.7077 283.67 37.9297C283.562 36.1517 282.409 34.4044 280.212 32.6878C279.405 32.057 278.325 31.396 276.985 30.7308C274.093 28.4713 273.511 26.2243 275.243 24.008L288.523 7.00963C290.344 4.67996 292.578 3.96872 295.21 4.89654C301.355 7.05799 306.968 10.1319 312.068 14.116C320.334 20.9561 325.101 28.399 326.379 36.4527C327.647 44.4985 325.219 52.4294 319.098 60.2636L300.889 83.5707C292.312 94.549 292.761 103.748 302.265 111.173C307.477 115.245 312.272 116.501 316.668 114.94C321.057 113.388 325.67 109.505 330.502 103.321L361.307 63.8913C363.313 61.3246 365.648 61.074 368.315 63.1579L391.769 81.4816C394.548 83.6533 394.931 86.0277 392.926 88.5944L360.478 130.126C356.008 135.848 353.819 140.861 353.893 145.168C353.985 149.474 356.399 153.484 361.151 157.196C365.902 160.909 370.959 161.473 377.024 159.439C383.09 157.405 388.813 152.945 394.2 146.049C402.874 134.947 409.814 122.125 415.029 107.573C416.652 103.578 419.148 102.89 422.51 105.516L444.921 123.026C447.466 125.014 448.232 127.488 447.221 130.467C441.259 146.692 433.712 160.65 424.587 172.329C413.36 186.699 400.158 195.192 384.951 197.804C369.755 200.424 355.616 196.615 342.525 186.387C328.167 175.169 320.748 162.799 320.316 149.281C306.738 151.853 293.063 147.743 279.288 136.981" fill="#E7F5FE"/>
<path opacity="0.3" d="M92.4876 314.755C105.055 324.932 112.568 336.84 115.053 350.483C117.538 364.127 114.103 376.714 104.776 388.232L89.3813 407.243C87.3314 409.774 86.3361 411.931 86.4135 413.71C86.4909 415.49 87.6131 417.257 89.7799 419.012C90.5761 419.657 91.6443 420.336 92.9725 421.025C95.8247 423.334 96.3667 425.591 94.5968 427.777L81.0215 444.541C79.161 446.839 76.9146 447.511 74.2988 446.537C68.1926 444.269 62.634 441.097 57.6049 437.025C49.4594 430.042 44.8231 422.517 43.6858 414.442C42.5585 406.375 45.1242 398.488 51.3808 390.762L69.9942 367.776C78.7617 356.949 78.4732 347.744 69.1003 340.153C63.9603 335.991 59.1879 334.651 54.7648 336.136C50.35 337.611 45.6697 341.413 40.7302 347.512L9.24134 386.398C7.19147 388.929 4.85222 389.139 2.22176 387.009L-20.9082 368.279C-23.6495 366.059 -23.9911 363.678 -21.9412 361.147L11.2271 320.187C15.796 314.545 18.0719 309.571 18.073 305.262C18.0558 300.956 15.7131 296.905 11.0267 293.11C6.34022 289.315 1.29463 288.663 -4.80551 290.59C-10.9057 292.518 -16.7053 296.878 -22.2128 303.679C-31.0791 314.628 -38.2418 327.327 -43.7092 341.785C-45.4018 345.751 -47.9101 346.396 -51.2259 343.711L-73.3278 325.813C-75.8373 323.781 -76.5599 321.294 -75.4974 318.333C-69.2531 302.214 -61.4631 288.391 -52.1358 276.872C-40.6599 262.701 -27.3113 254.439 -12.0617 252.093C3.17782 249.739 17.2487 253.794 30.1591 264.249C44.3193 275.715 51.5206 288.213 51.7165 301.736C65.3381 299.402 78.9386 303.75 92.5243 314.751" fill="#0085D7"/>
</svg>

<svg width="390" height="429" viewBox="0 0 390 429" fill="none" xmlns="http://www.w3.org/2000/svg">
<path opacity="0.3" d="M385.488 342.699C398.055 332.522 405.568 320.614 408.053 306.971C410.538 293.327 407.103 280.74 397.776 269.222L382.381 250.211C380.331 247.68 379.336 245.523 379.413 243.744C379.491 241.964 380.613 240.197 382.78 238.442C383.576 237.797 384.644 237.117 385.972 236.429C388.825 234.119 389.367 231.863 387.597 229.677L374.021 212.913C372.161 210.615 369.915 209.943 367.299 210.917C361.193 213.185 355.634 216.357 350.605 220.429C342.459 227.412 337.823 234.937 336.686 243.012C335.558 251.079 338.124 258.966 344.381 266.692L362.994 289.678C371.762 300.505 371.473 309.71 362.1 317.3C356.96 321.463 352.188 322.802 347.765 321.318C343.35 319.843 338.67 316.041 333.73 309.942L302.241 271.056C300.191 268.525 297.852 268.315 295.222 270.445L272.092 289.175C269.35 291.395 269.009 293.776 271.059 296.307L304.227 337.267C308.796 342.909 311.072 347.883 311.073 352.191C311.056 356.498 308.713 360.549 304.027 364.344C299.34 368.139 294.295 368.791 288.194 366.863C282.094 364.936 276.295 360.576 270.787 353.775C261.921 342.826 254.758 330.127 249.291 315.668C247.598 311.703 245.09 311.058 241.774 313.743L219.672 331.641C217.163 333.673 216.44 336.16 217.503 339.121C223.747 355.24 231.537 369.063 240.864 380.582C252.34 394.753 265.689 403.015 280.938 405.361C296.178 407.715 310.249 403.66 323.159 393.205C337.319 381.738 344.521 369.241 344.716 355.718C358.338 358.052 371.939 353.704 385.524 342.703" fill="#0085D7"/>
<path opacity="0.25" d="M3.35656 83.8945C-9.38691 93.8508 -17.1058 105.625 -19.8285 119.223C-22.5512 132.822 -19.337 145.467 -10.2122 157.146L4.84828 176.422C6.85365 178.989 7.81124 181.163 7.70276 182.941C7.59428 184.719 6.44147 186.466 4.24432 188.183C3.43699 188.813 2.35713 189.475 1.01711 190.14C-1.87495 192.399 -2.45629 194.646 -0.724741 196.863L12.5558 213.861C14.376 216.191 16.6103 216.902 19.2427 215.974C25.3876 213.812 31.0006 210.739 36.1001 206.754C44.3662 199.914 49.1332 192.472 50.4112 184.418C51.6791 176.372 49.2515 168.441 43.1307 160.607L24.9212 137.3C16.344 126.322 16.7932 117.123 26.2971 109.697C31.5089 105.625 36.304 104.369 40.7005 105.931C45.0889 107.482 49.7022 111.365 54.5344 117.55L85.3398 156.979C87.3452 159.546 89.6804 159.796 92.3477 157.713L115.801 139.389C118.581 137.217 118.964 134.843 116.958 132.276L84.51 90.744C80.0401 85.0229 77.8514 80.0097 77.9255 75.7021C78.0179 71.3968 80.4309 67.3867 85.1829 63.674C89.9349 59.9613 94.9911 59.3975 101.057 61.4316C107.122 63.4657 112.845 67.9257 118.233 74.8219C126.907 85.924 133.847 98.7458 139.061 113.298C140.684 117.292 143.181 117.981 146.543 115.354L168.954 97.8448C171.498 95.8568 172.264 93.3825 171.254 90.4038C165.291 74.1784 157.744 60.2209 148.619 48.5417C137.392 34.1719 124.19 25.6783 108.984 23.0666C93.7875 20.4468 79.648 24.2559 66.557 34.4837C52.1989 45.7015 44.7806 58.0712 44.3487 71.5894C30.7699 69.0175 17.0956 73.1272 3.32002 83.8899" fill="#E7F5FE"/>
</svg>
