<svg width="200" height="200" viewBox="0 0 200 200" xmlns="http://www.w3.org/2000/svg">
  <!-- Background -->
  <rect width="200" height="200" rx="40" fill="#00003F"/>

  <!-- Inner glow -->
  <rect x="10" y="10" width="180" height="180" rx="35" fill="none" stroke="#0F82EB" stroke-width="1" opacity="0.3"/>

  <!-- Hand silhouette centered -->
  <g transform="translate(100, 100)">
    <!-- Palm -->
    <ellipse cx="0" cy="10" rx="35" ry="40" fill="#0F82EB" opacity="0.8"/>

    <!-- Fingers -->
    <!-- Thumb -->
    <rect x="25" y="-10" width="18" height="35" rx="9" fill="#0F82EB" opacity="0.8" transform="rotate(30 25 -10)"/>

    <!-- Index finger -->
    <rect x="-25" y="-45" width="15" height="45" rx="7.5" fill="#0F82EB" opacity="0.8"/>

    <!-- Middle finger -->
    <rect x="-8" y="-50" width="15" height="50" rx="7.5" fill="#0F82EB" opacity="0.8"/>

    <!-- Ring finger -->
    <rect x="8" y="-45" width="15" height="45" rx="7.5" fill="#0F82EB" opacity="0.8"/>

    <!-- Pinky -->
    <rect x="23" y="-35" width="12" height="35" rx="6" fill="#0F82EB" opacity="0.8"/>

    <!-- Detection dots on fingertips -->
    <circle cx="-17.5" cy="-45" r="5" fill="#88CFF8"/>
    <circle cx="-0.5" cy="-50" r="5" fill="#88CFF8"/>
    <circle cx="15.5" cy="-45" r="5" fill="#88CFF8"/>
    <circle cx="29" cy="-35" r="4" fill="#88CFF8"/>
    <circle cx="38" cy="5" r="5" fill="#88CFF8"/>

    <!-- Palm detection center -->
    <circle cx="0" cy="10" r="6" fill="#59BCF5"/>

    <!-- Connection lines -->
    <line x1="-17.5" y1="-45" x2="0" y2="10" stroke="#59BCF5" stroke-width="1" opacity="0.4"/>
    <line x1="-0.5" y1="-50" x2="0" y2="10" stroke="#59BCF5" stroke-width="1" opacity="0.4"/>
    <line x1="15.5" y1="-45" x2="0" y2="10" stroke="#59BCF5" stroke-width="1" opacity="0.4"/>
    <line x1="29" y1="-35" x2="0" y2="10" stroke="#59BCF5" stroke-width="1" opacity="0.4"/>
    <line x1="38" y1="5" x2="0" y2="10" stroke="#59BCF5" stroke-width="1" opacity="0.4"/>
  </g>

  <!-- Corner indicators -->
  <circle cx="30" cy="30" r="3" fill="#88CFF8" opacity="0.6"/>
  <circle cx="170" cy="30" r="3" fill="#88CFF8" opacity="0.6"/>
  <circle cx="30" cy="170" r="3" fill="#88CFF8" opacity="0.6"/>
  <circle cx="170" cy="170" r="3" fill="#88CFF8" opacity="0.6"/>
</svg>