<svg width="54" height="14" viewBox="0 0 54 14" fill="none" xmlns="http://www.w3.org/2000/svg">
<path fillRule="evenodd" clipRule="evenodd" d="M24.8621 13.0792H28.0236V0.467169H24.8621V13.0792Z" fill="#0053A4"/>
<path fillRule="evenodd" clipRule="evenodd" d="M35.8739 10.4231C37.8829 10.4231 39.3589 8.70179 39.3589 6.7695C39.3589 4.83704 37.8746 3.13208 35.8739 3.13208C33.8649 3.13208 32.3808 4.83704 32.3808 6.7695C32.3808 8.70179 33.8649 10.4231 35.8739 10.4231ZM35.8985 0.0629883C39.6868 0.0629883 42.7373 2.96968 42.7373 6.74513C42.7373 10.5368 39.6623 13.5002 35.8657 13.5002C32.0691 13.5002 28.9942 10.5774 28.9942 6.79387C28.9942 3.01834 32.1102 0.0629883 35.8985 0.0629883ZM43.1009 9.2651L46.0017 8.5827C46.2101 10.0981 47.3239 10.6457 48.4937 10.6457C49.6558 10.6457 50.0805 9.96328 50.0805 9.43168C50.0805 9.00322 49.832 8.5827 48.9826 8.41613L47.2116 8.07488C45.0962 7.6703 43.5978 6.35315 43.5978 4.3299C43.5978 1.91792 45.8173 0.219965 48.3255 0.219965C51.5548 0.219965 52.885 2.21943 53.1175 3.8936L50.2727 4.68699C50.1205 3.65551 49.4794 2.90976 48.3095 2.90976C47.2998 2.90976 46.819 3.57623 46.819 4.08396C46.819 4.50448 47.0194 4.98851 47.7726 5.1313L49.6156 5.48039C52.0276 5.94064 53.3498 7.40049 53.3498 9.29681C53.3498 11.3598 51.5548 13.3433 48.4778 13.3433C45.2565 13.3433 43.5256 11.6692 43.1009 9.2651Z" fill="#0053A4"/>
<path fillRule="evenodd" clipRule="evenodd" d="M3.74226 13.0792H0.339844L5.96596 0.467169H9.38464L3.74226 13.0792Z" fill="#59BCF5"/>
<path fillRule="evenodd" clipRule="evenodd" d="M19.8561 6.63028L24.0821 0.459387H20.2155L17.9363 4.19503L15.7098 0.459387H11.7909L16.072 6.63028L13.6898 10.0886L9.39808 0.466815H5.97905L11.6218 13.0792H15.2708L17.9363 9.08109L20.5704 13.0792H24.2593L19.8561 6.63028Z" fill="#0053A4"/>
</svg>
