<svg width="43" height="47" viewBox="0 0 43 47" fill="none" xmlns="http://www.w3.org/2000/svg">
<path d="M26.3219 12.0169C22.1897 12.0169 18.1169 13.7909 15.0075 17.2788V0.0789795H8.8543V29.0359C8.8543 29.0366 8.8543 29.0373 8.8543 29.0381C8.8543 38.4385 16.4748 46.059 25.8753 46.059C35.2757 46.059 42.8964 38.4385 42.8964 29.0381C42.8964 19.6377 35.7223 12.0169 26.3219 12.0169ZM25.8753 39.5031C20.0955 39.5031 15.41 34.8176 15.41 29.0379C15.41 23.2581 20.0955 18.5726 25.8753 18.5726C31.655 18.5726 36.3405 23.2581 36.3405 29.0379C36.3405 34.8178 31.655 39.5031 25.8753 39.5031Z" fill="#0053A4"/>
<path d="M4.3809 37.6408C2.05626 37.6408 0.171875 39.5253 0.171875 41.8498C0.171875 44.1744 2.05626 46.0589 4.3809 46.0589C6.70553 46.0589 8.58992 44.1744 8.58992 41.8498C8.58992 39.5253 6.70553 37.6408 4.3809 37.6408Z" fill="#59BCF5"/>
</svg>
