<svg width="56" height="37" viewBox="0 0 56 37" fill="none" xmlns="http://www.w3.org/2000/svg">
<path d="M44.6464 13.7277C43.4677 10.0313 41.1506 6.80216 38.0265 4.50185C34.9023 2.20155 31.131 0.947812 27.2515 0.919853C23.9716 0.901043 20.7485 1.77635 17.9285 3.45173C15.1086 5.1271 12.7984 7.53922 11.2462 10.4289C8.39343 10.9402 5.77826 12.3486 3.78134 14.4493C1.78441 16.5499 0.509961 19.233 0.143474 22.1082C-0.223013 24.9833 0.337596 27.9004 1.7437 30.4349C3.14981 32.9693 5.32803 34.9888 7.96132 36.1995L8.30302 36.3544H8.3258V32.4815C6.51936 31.3726 5.10517 29.7261 4.28143 27.773C3.4577 25.8198 3.26571 23.6579 3.73238 21.5901C4.19905 19.5223 5.30099 17.6524 6.88375 16.2425C8.4665 14.8325 10.4507 13.9532 12.5583 13.7277L13.5151 13.6275L13.9343 12.7663C15.1244 10.244 17.0098 8.1138 19.3689 6.62626C21.728 5.13871 24.4627 4.3556 27.2515 4.36899C30.5746 4.39244 33.7944 5.52631 36.399 7.59029C39.0036 9.65428 40.8434 12.5299 41.6258 15.7598L41.9538 17.0629H43.3206C45.524 17.1081 47.6224 18.0132 49.1675 19.5848C50.7126 21.1564 51.582 23.2699 51.5898 25.4739C51.5898 28.6861 49.7355 31.3151 46.5782 32.6456V36.318L46.806 36.2451C51.8814 34.582 55.0342 30.454 55.0342 25.4739C55.0133 22.5915 53.9499 19.8141 52.0404 17.6549C50.1309 15.4957 47.5045 14.1007 44.6464 13.7277Z" fill="#0053A4"/>
<path d="M20.5721 35.908L21.3284 36.6644C21.3488 36.6854 21.3627 36.7119 21.3682 36.7407C21.3738 36.7695 21.3708 36.7992 21.3597 36.8263C21.3486 36.8534 21.3298 36.8767 21.3056 36.8933C21.2814 36.9098 21.2529 36.919 21.2236 36.9195H15.2552C14.5302 36.9195 13.8349 36.6315 13.3223 36.1188C12.8096 35.6061 12.5216 34.9108 12.5216 34.1857V22.5944C12.5216 22.5546 12.5058 22.5163 12.4776 22.4881C12.4494 22.4599 12.4111 22.4441 12.3713 22.4441H11.0956C11.0659 22.4444 11.0368 22.4359 11.0119 22.4197C10.987 22.4035 10.9675 22.3803 10.9558 22.353C10.9441 22.3257 10.9408 22.2955 10.9462 22.2664C10.9516 22.2372 10.9655 22.2102 10.9862 22.1889L16.0525 17.1223C16.0665 17.1081 16.0832 17.0968 16.1016 17.0892C16.1199 17.0815 16.1397 17.0775 16.1596 17.0775C16.1795 17.0775 16.1992 17.0815 16.2176 17.0892C16.236 17.0968 16.2527 17.1081 16.2667 17.1223L21.3284 22.1889C21.3488 22.2099 21.3627 22.2365 21.3682 22.2652C21.3738 22.294 21.3708 22.3238 21.3597 22.3509C21.3486 22.378 21.3298 22.4013 21.3056 22.4178C21.2814 22.4344 21.2529 22.4435 21.2236 22.4441H19.9297C19.8894 22.4441 19.8507 22.4598 19.8217 22.4878C19.7928 22.5159 19.776 22.5542 19.7748 22.5944V33.9853C19.7766 34.7063 20.0632 35.3973 20.5721 35.908ZM31.7663 35.908L32.5271 36.6644C32.5478 36.6857 32.5617 36.7126 32.5671 36.7418C32.5725 36.771 32.5692 36.8011 32.5575 36.8284C32.5458 36.8557 32.5263 36.8789 32.5014 36.8951C32.4766 36.9114 32.4475 36.9198 32.4178 36.9195H26.463C25.738 36.9195 25.0427 36.6315 24.5301 36.1188C24.0174 35.6061 23.7294 34.9108 23.7294 34.1857V25.5242C23.7294 25.4839 23.7138 25.4451 23.6857 25.4162C23.6576 25.3873 23.6194 25.3704 23.5791 25.3693H22.2897C22.2604 25.3687 22.2319 25.3595 22.2078 25.343C22.1836 25.3264 22.1648 25.3032 22.1536 25.2761C22.1425 25.2489 22.1395 25.2192 22.1451 25.1904C22.1507 25.1616 22.1645 25.1351 22.1849 25.1141L27.2467 20.0566C27.2607 20.0424 27.2773 20.0311 27.2957 20.0234C27.3141 20.0157 27.3338 20.0118 27.3538 20.0118C27.3737 20.0118 27.3934 20.0157 27.4118 20.0234C27.4302 20.0311 27.4468 20.0424 27.4608 20.0566L32.5271 25.105C32.5478 25.1263 32.5617 25.1532 32.5671 25.1824C32.5725 25.2116 32.5692 25.2417 32.5575 25.269C32.5458 25.2963 32.5263 25.3195 32.5014 25.3357C32.4766 25.352 32.4475 25.3604 32.4178 25.3601H31.1239C31.0836 25.3613 31.0453 25.3782 31.0173 25.4071C30.9892 25.436 30.9735 25.4747 30.9735 25.5151V33.9853C30.9741 34.7056 31.259 35.3966 31.7663 35.908ZM42.965 35.908L43.7213 36.6644C43.7417 36.6854 43.7555 36.7119 43.7611 36.7407C43.7667 36.7695 43.7637 36.7992 43.7526 36.8263C43.7414 36.8534 43.7226 36.8767 43.6984 36.8933C43.6743 36.9098 43.6458 36.919 43.6165 36.9195H37.6435C36.9185 36.9195 36.2232 36.6315 35.7106 36.1188C35.1979 35.6061 34.9099 34.9108 34.9099 34.1857V28.4311C34.9099 28.3912 34.8941 28.353 34.8659 28.3248C34.8377 28.2966 34.7994 28.2807 34.7596 28.2807H33.4839C33.4536 28.2811 33.424 28.2723 33.3988 28.2555C33.3737 28.2387 33.3542 28.2147 33.3428 28.1867C33.3315 28.1586 33.3289 28.1278 33.3354 28.0983C33.3419 28.0687 33.3571 28.0418 33.3791 28.021L38.4454 22.959C38.459 22.9449 38.4753 22.9337 38.4933 22.9261C38.5113 22.9185 38.5306 22.9145 38.5502 22.9145C38.5697 22.9145 38.5891 22.9185 38.6071 22.9261C38.6251 22.9337 38.6414 22.9449 38.655 22.959L43.7213 28.021C43.7433 28.0418 43.7585 28.0687 43.765 28.0983C43.7714 28.1278 43.7688 28.1586 43.7575 28.1867C43.7462 28.2147 43.7267 28.2387 43.7015 28.2555C43.6764 28.2723 43.6467 28.2811 43.6165 28.2807H42.318C42.2781 28.2807 42.2399 28.2966 42.2117 28.3248C42.1835 28.353 42.1677 28.3912 42.1677 28.4311V33.9853C42.1695 34.7063 42.4561 35.3973 42.965 35.908Z" fill="#0053A4"/>
</svg>
