<svg width="34" height="47" viewBox="0 0 34 47" fill="none" xmlns="http://www.w3.org/2000/svg">
<path d="M33.146 9.15268L30.1569 42.6374L16.7211 46.3623L3.32229 42.6427L0.336426 9.15268H33.146Z" fill="#002072"/>
<path d="M27.598 40.5052L30.1523 11.891H16.7412V43.5152L27.598 40.5052Z" fill="#0053A4"/>
<path d="M7.18146 24.3119L7.5496 28.4193H16.7412V24.3119H7.18146Z" fill="#E7F5FE"/>
<path d="M16.7412 15.9984H16.727H6.44176L6.81514 20.1059H16.7412V15.9984Z" fill="#E7F5FE"/>
<path d="M16.7412 39.2528V34.9793L16.7232 34.9841L12.1487 33.7489L11.8563 30.4731H7.73312L8.30857 36.9223L16.7223 39.258L16.7412 39.2528Z" fill="#E7F5FE"/>
<path d="M8.05793 0.0515366H13.0327V2.1319H10.1383V4.21227H13.0327V6.29263H8.05793V0.0515366Z" fill="#0053A4"/>
<path d="M14.0277 0.0515366H19.0025V1.86055H16.108V2.22235H19.0025V6.38308H14.0277V4.48362H16.9221V4.12182H14.0277V0.0515366Z" fill="#0053A4"/>
<path d="M19.9974 0.0515366H24.9722V1.86055H22.0778V2.22235H24.9722V6.38308H19.9974V4.48362H22.8918V4.12182H19.9974V0.0515366Z" fill="#0053A4"/>
<path d="M21.7848 28.4193L21.308 33.7463L16.727 34.9828V39.256L25.1474 36.9223L26.1744 25.4149L26.2746 24.3119L27.0161 15.9984H16.727L16.727 20.1059H22.5147L22.141 24.3119H16.727V28.4193H21.7848Z" fill="#E7F5FE"/>
</svg>
