<svg width="47" height="47" viewBox="0 0 47 47" fill="none" xmlns="http://www.w3.org/2000/svg">
<path d="M10.488 10.4562V31.9398L10.5303 32.9468C10.5303 33.4084 10.615 33.9539 10.7844 34.4993L34.5831 42.8075L40.5116 40.2059L10.488 10.4562Z" fill="#0F82EB"/>
<path d="M40.5116 40.2059L34.5831 42.8075L10.8267 34.4993C11.2925 36.2197 12.2664 38.1499 13.3674 39.2408L21.1168 46.8776L38.3942 46.9196L40.5116 40.2059Z" fill="#0053A4"/>
<path d="M10.5726 10.4562L1.34112 24.303C0.578883 25.1003 0.960001 26.7787 2.18805 28.0375L7.5237 33.3664L10.8691 34.5413C10.742 33.9958 10.615 33.4503 10.615 32.9888L10.5726 31.9817V10.4562Z" fill="#0053A4"/>
<path d="M34.7525 10.7079C34.202 10.5821 33.6515 10.4981 33.1857 10.4562L32.127 10.4142H10.488L40.5116 40.164L43.1371 34.2896L34.7525 10.7079Z" fill="#0053A4"/>
<path d="M39.5376 13.2255C38.4366 12.1346 36.531 11.1275 34.7525 10.7079L43.1371 34.2896L40.5116 40.164L46.9482 38.1079V20.6105L39.5376 13.2255Z" fill="#59BCF5"/>
<path d="M33.5667 7.43503L28.1887 2.14805C26.9607 0.931207 25.2668 0.553566 24.4199 1.30885L10.4456 10.4562H32.0846L33.1433 10.4981C33.6091 10.4981 34.1596 10.582 34.7101 10.7499L33.5667 7.43503Z" fill="#0F82EB"/>
</svg>
