<svg width="49" height="44" viewBox="0 0 49 44" fill="none" xmlns="http://www.w3.org/2000/svg">
<path d="M23.3743 16.3614C23.7714 15.7825 24.204 15.7093 24.5551 15.7093C24.9062 15.7093 25.4893 15.7825 25.8864 16.3614C29.0005 20.6041 34.1419 29.0581 37.9353 35.2968C40.4098 39.3618 42.3096 42.4864 42.7005 42.8835C44.1635 44.3758 46.1699 43.4457 47.3361 41.7528C48.4835 40.0871 48.8012 38.9167 48.8012 37.6689C48.8012 36.8183 32.169 6.13711 30.4949 3.58313C28.8856 1.12738 28.3589 0.506653 25.6043 0.506653H23.5394C20.791 0.506653 20.3939 1.12738 18.7825 3.58313C17.1084 6.13711 0.474121 36.8183 0.474121 37.6669C0.474121 38.9167 0.793891 40.0871 1.94339 41.7528C3.10961 43.4457 5.11601 44.3758 6.57901 42.8814C6.96775 42.4843 8.86756 39.3618 11.3421 35.2947C15.1355 29.0581 20.2602 20.6041 23.3763 16.3593L23.3743 16.3614Z" fill="#0053A4"/>
</svg>
