<svg width="31" height="47" viewBox="0 0 31 47" fill="none" xmlns="http://www.w3.org/2000/svg">
<path d="M15.8444 23.3557C15.8444 21.3311 16.6422 19.3895 18.0622 17.9579C19.4823 16.5263 21.4083 15.7221 23.4165 15.7221C25.4247 15.7221 27.3507 16.5263 28.7708 17.9579C30.1908 19.3895 30.9886 21.3311 30.9886 23.3557C30.9886 25.3803 30.1908 27.3219 28.7708 28.7535C27.3507 30.1851 25.4247 30.9893 23.4165 30.9893C21.4083 30.9893 19.4823 30.1851 18.0622 28.7535C16.6422 27.3219 15.8444 25.3803 15.8444 23.3557Z" fill="#2AA9F2"/>
<path d="M0.700684 38.6239C0.700684 36.5993 1.49845 34.6577 2.91849 33.2261C4.33853 31.7945 6.26451 30.9903 8.27275 30.9903H15.8448V38.6239C15.8448 40.6485 15.047 42.5901 13.627 44.0217C12.207 45.4533 10.281 46.2575 8.27275 46.2575C6.26451 46.2575 4.33853 45.4533 2.91849 44.0217C1.49845 42.5901 0.700684 40.6485 0.700684 38.6239Z" fill="#88CFF8"/>
<path d="M15.8444 0.455456V15.7227H23.4165C25.4247 15.7227 27.3507 14.9185 28.7708 13.4869C30.1908 12.0553 30.9886 10.1137 30.9886 8.08909C30.9886 6.06452 30.1908 4.12288 28.7708 2.69129C27.3507 1.25971 25.4247 0.455456 23.4165 0.455456H15.8444Z" fill="#2AA9F2"/>
<path d="M0.701052 8.08877C0.701052 10.1133 1.49882 12.055 2.91886 13.4866C4.3389 14.9181 6.26488 15.7224 8.27312 15.7224H15.8452V0.455139H8.27312C6.26488 0.455139 4.3389 1.25939 2.91886 2.69098C1.49882 4.12256 0.701052 6.0642 0.701052 8.08877Z" fill="#002072"/>
<path d="M0.700684 23.3557C0.700684 25.3803 1.49845 27.3219 2.91849 28.7535C4.33853 30.1851 6.26451 30.9893 8.27275 30.9893H15.8448L15.8452 15.7224H8.27312C6.26488 15.7224 4.33853 16.5263 2.91849 17.9579C1.49845 19.3895 0.700684 21.3311 0.700684 23.3557Z" fill="#0085D7"/>
</svg>
