<svg width="47" height="46" viewBox="0 0 47 46" fill="none" xmlns="http://www.w3.org/2000/svg">
<path d="M23.9481 0.646484C11.2527 0.646484 0.958008 10.9393 0.958008 23.6366C0.958008 33.7944 7.54536 42.412 16.6801 45.452C17.829 45.6647 18.2509 44.9532 18.2509 44.346C18.2509 43.7978 18.2295 41.9866 18.2197 40.0656C11.8237 41.4563 10.4741 37.3531 10.4741 37.3531C9.42831 34.6957 7.92148 33.9893 7.92148 33.9893C5.83568 32.5623 8.07871 32.5915 8.07871 32.5915C10.3874 32.7538 11.603 34.9608 11.603 34.9608C13.6534 38.4755 16.9812 37.4593 18.2931 36.872C18.4994 35.3859 19.0953 34.3719 19.7527 33.7978C14.6464 33.2163 9.27829 31.245 9.27829 22.4359C9.27829 19.926 10.1764 17.875 11.6472 16.2651C11.4084 15.6859 10.6216 13.3477 11.8698 10.181C11.8698 10.181 13.8004 9.56304 18.1938 12.5376C20.0275 12.028 21.9943 11.7727 23.9481 11.7641C25.9019 11.7727 27.8701 12.028 29.7075 12.5376C34.0956 9.56304 36.0235 10.181 36.0235 10.181C37.2748 13.3477 36.4876 15.6859 36.2488 16.2651C37.7229 17.875 38.6148 19.9258 38.6148 22.4359C38.6148 31.2659 33.2366 33.2104 28.1173 33.7794C28.9419 34.4929 29.6766 35.8921 29.6766 38.0368C29.6766 41.1129 29.65 43.5887 29.65 44.346C29.65 44.9577 30.0638 45.6746 31.2293 45.4489C40.3589 42.4055 46.938 33.7909 46.938 23.6366C46.938 10.9393 36.6448 0.646484 23.9481 0.646484Z" fill="#0053A4"/>
<path d="M9.56852 33.3964C9.51803 33.5106 9.33809 33.5448 9.17455 33.4666C9.00776 33.3916 8.914 33.2358 8.96809 33.1211C9.01768 33.0036 9.19763 32.9707 9.36405 33.0497C9.53119 33.1245 9.6264 33.2818 9.56852 33.3964ZM10.6994 34.4054C10.5898 34.5071 10.3754 34.4599 10.2299 34.2992C10.0795 34.139 10.0514 33.9247 10.1626 33.8214C10.2757 33.7199 10.4836 33.7673 10.6343 33.9278C10.7847 34.0899 10.8141 34.3027 10.6994 34.4054ZM11.4753 35.6964C11.3343 35.7944 11.1038 35.7026 10.9616 35.4981C10.8208 35.2938 10.8208 35.0486 10.9646 34.9503C11.1074 34.8521 11.3343 34.9404 11.4785 35.1433C11.6192 35.3512 11.6193 35.5962 11.4753 35.6964ZM12.7872 37.1917C12.6612 37.3306 12.3929 37.2934 12.1963 37.1037C11.9955 36.9184 11.9394 36.6553 12.0658 36.5163C12.1933 36.3771 12.4632 36.4162 12.6612 36.6043C12.8608 36.7893 12.9215 37.0543 12.7872 37.1917ZM14.4828 37.6966C14.4275 37.8765 14.1689 37.9584 13.9085 37.882C13.6485 37.8032 13.4783 37.5922 13.5308 37.4103C13.5849 37.2291 13.8445 37.1438 14.1069 37.2256C14.3665 37.3041 14.5369 37.5134 14.4828 37.6966ZM16.4128 37.9106C16.4193 38.1003 16.1984 38.2575 15.9251 38.261C15.6501 38.2669 15.4278 38.1135 15.4249 37.927C15.4249 37.7355 15.6407 37.5798 15.9155 37.5752C16.1889 37.5698 16.4128 37.7222 16.4128 37.9106ZM18.3086 37.838C18.3414 38.023 18.1513 38.213 17.88 38.2635C17.6131 38.3122 17.3661 38.198 17.332 38.0147C17.2988 37.825 17.4925 37.6351 17.7588 37.5859C18.0307 37.5386 18.274 37.6499 18.3086 37.838Z" fill="#0053A4"/>
</svg>
