<svg width="54" height="21" viewBox="0 0 54 21" fill="none" xmlns="http://www.w3.org/2000/svg">
<path d="M4.13332 6.87587C4.03008 6.87587 4.00427 6.82425 4.05589 6.74682L4.5979 6.04995C4.64951 5.97253 4.77856 5.92091 4.8818 5.92091H14.0959C14.1991 5.92091 14.2249 5.99834 14.1733 6.07576L13.7345 6.74682C13.6829 6.82425 13.5539 6.90168 13.4764 6.90168L4.13332 6.87587ZM0.236051 9.25036C0.132812 9.25036 0.107003 9.19874 0.158622 9.12131L0.700627 8.42445C0.752246 8.34702 0.881295 8.2954 0.984534 8.2954H12.7538C12.857 8.2954 12.9086 8.37283 12.8828 8.45026L12.6763 9.06969C12.6505 9.17293 12.5473 9.22455 12.4441 9.22455L0.236051 9.25036ZM6.48201 11.6249C6.37877 11.6249 6.35296 11.5474 6.40458 11.47L6.76591 10.8248C6.81753 10.7473 6.92077 10.6699 7.02401 10.6699H12.186C12.2892 10.6699 12.3408 10.7473 12.3408 10.8506L12.2892 11.47C12.2892 11.5732 12.186 11.6507 12.1085 11.6507L6.48201 11.6249ZM33.2725 6.41129C31.6465 6.82425 30.5367 7.13396 28.9365 7.54692C28.5493 7.65016 28.5235 7.67597 28.188 7.28882C27.8008 6.85006 27.5169 6.56615 26.9749 6.30805C25.3489 5.50795 23.7745 5.74024 22.3034 6.6952C20.5483 7.83083 19.645 9.50846 19.6708 11.599C19.6966 13.6638 21.1161 15.3673 23.1551 15.6512C24.9102 15.8835 26.3813 15.264 27.5427 13.9477C27.775 13.6638 27.9815 13.3541 28.2396 12.9928H23.2583C22.7163 12.9928 22.5873 12.6572 22.7679 12.2185C23.1035 11.4184 23.7229 10.0763 24.0842 9.40522C24.1617 9.25036 24.3423 8.99226 24.7295 8.99226H34.1242C34.0726 9.68913 34.0726 10.386 33.9694 11.0829C33.6855 12.9412 32.9886 14.6446 31.853 16.1416C29.9947 18.5935 27.5686 20.1163 24.4972 20.5292C21.9678 20.8647 19.6192 20.3743 17.5544 18.8258C15.6445 17.3804 14.5605 15.4705 14.2765 13.096C13.941 10.2827 14.7669 7.7534 16.4704 5.53376C18.3029 3.13346 20.729 1.61068 23.6971 1.06868C26.1232 0.629913 28.4461 0.91382 30.5367 2.33335C31.9046 3.23669 32.8854 4.47556 33.5306 5.97253C33.6855 6.20481 33.5822 6.33386 33.2725 6.41129Z" fill="#0053A4"/>
<path d="M41.8155 20.6841C39.4668 20.6325 37.3246 19.9614 35.5179 18.4129C33.9952 17.0966 33.0402 15.4189 32.7305 13.4316C32.2659 10.5151 33.066 7.93411 34.8211 5.63704C36.7052 3.15931 38.9764 1.86882 42.0478 1.32682C44.6804 0.862243 47.1581 1.12034 49.4036 2.64311C51.4425 4.03684 52.7072 5.92095 53.0427 8.39868C53.4815 11.883 52.4749 14.7221 50.0746 17.1482C48.3712 18.8774 46.2806 19.9614 43.8803 20.4518C43.1834 20.5809 42.4866 20.6067 41.8155 20.6841ZM47.9582 10.257C47.9324 9.92146 47.9324 9.66336 47.8808 9.40526C47.4162 6.8501 45.0675 5.40475 42.6156 5.97257C40.2153 6.51457 38.6667 8.03734 38.0989 10.4635C37.6343 12.4766 38.6151 14.5156 40.4734 15.3415C41.8929 15.9609 43.3125 15.8835 44.6804 15.1866C46.7194 14.1284 47.8292 12.4766 47.9582 10.257Z" fill="#0053A4"/>
</svg>
