<svg width="46" height="47" viewBox="0 0 46 47" fill="none" xmlns="http://www.w3.org/2000/svg">
<path d="M45.9613 24.2925C45.9613 22.4022 45.8079 21.0228 45.4759 19.5924H23.8909V28.1241H36.5608C36.3055 30.2444 34.9261 33.4374 31.8607 35.583L31.8177 35.8687L38.6425 41.1558L39.1153 41.203C43.4578 37.1924 45.9613 31.2916 45.9613 24.2925Z" fill="#0F82EB"/>
<path d="M23.8909 46.7716C30.0981 46.7716 35.3091 44.728 39.1153 41.203L31.8607 35.583C29.9193 36.9369 27.3138 37.882 23.8909 37.882C17.8113 37.882 12.6514 33.8717 10.812 28.3286L10.5424 28.3514L3.44589 33.8435L3.35309 34.1015C7.13363 41.6115 14.8992 46.7716 23.8909 46.7716Z" fill="#0085D7"/>
<path d="M10.812 28.3286C10.3267 26.8981 10.0458 25.3653 10.0458 23.7816C10.0458 22.1978 10.3267 20.6652 10.7865 19.2347L10.7736 18.93L3.58818 13.3497L3.35309 13.4616C1.79494 16.578 0.900879 20.0777 0.900879 23.7816C0.900879 27.4856 1.79494 30.985 3.35309 34.1015L10.812 28.3286Z" fill="#0053A4"/>
<path d="M23.8909 9.68103C28.2078 9.68103 31.1198 11.5458 32.7803 13.1041L39.2686 6.76903C35.2837 3.06509 30.0981 0.791626 23.8909 0.791626C14.8992 0.791626 7.13363 5.95156 3.35309 13.4616L10.7865 19.2347C12.6514 13.6916 17.8113 9.68103 23.8909 9.68103Z" fill="#002072"/>
</svg>
