<svg width="34" height="47" viewBox="0 0 34 47" fill="none" xmlns="http://www.w3.org/2000/svg">
<path d="M30.2606 42.6384L16.825 46.3623L3.42561 42.6417L0.439941 9.15293H33.2495" fill="#0053A4"/>
<path d="M30.2573 11.8893H16.8447V43.5144L27.7014 40.5058" fill="#00003F"/>
<path d="M27.1207 15.997H16.8316V20.1048H26.7532M26.3825 24.311H16.8316V39.2557L25.2538 36.9197M16.8316 28.4187H21.8941L21.4184 33.747L16.8316 34.9839" fill="#E7F5FE"/>
<path d="M7.65148 28.4187H16.8414V24.311H11.4049L11.0309 20.1048H16.8414V15.997H6.54252M8.40939 36.923L16.8316 39.2557L16.8447 39.2524V34.9806L16.8316 34.9839L12.2514 33.7503L11.9594 30.4726H7.83522" fill="#E7F5FE"/>
<path d="M7.49072 0.0515594V2.11528H5.5812V0.0515594M3.49451 0.0515594V6.29522H5.5812V4.20525H7.49072V6.29522H9.57741V0.0515594M10.483 0.0515594V2.12184H12.3236V6.29522H14.4103V2.12184H16.2476V0.0515594M22.0122 0.0515594L20.6769 2.24652L19.3383 0.0515594M17.163 0.0515594V6.29522H19.2037V3.20128L20.6408 5.42249H20.6769L22.1139 3.20128V6.29522H24.1908V0.0515594M25.2309 0.0515594V6.29522H30.254V4.2315H27.3175V0.0515594" fill="#0053A4"/>
</svg>
