<svg width="43" height="47" viewBox="0 0 43 47" fill="none" xmlns="http://www.w3.org/2000/svg">
<path d="M40.3187 22.8554C40.3187 20.4908 38.3856 18.5737 36.0012 18.5737C35.8477 18.5737 35.6965 18.5819 35.5473 18.5975L41.4773 1.25263H16.2767L22.1985 18.5824C22.1111 18.5769 22.0236 18.5741 21.936 18.5739C19.5516 18.5739 17.6186 20.4906 17.6186 22.8555C17.6186 24.7669 18.8818 26.3851 20.625 26.9357C19.7043 28.5173 18.5457 29.942 17.2302 31.1728C15.4414 32.8462 13.3943 34.1152 11.1802 34.897C8.54402 33.554 7.29924 30.5673 8.4224 27.9487C8.54928 27.6528 8.67879 27.3531 8.80254 27.0547C10.7123 26.6127 12.1355 24.9148 12.1355 22.8862C12.1355 20.5214 10.2025 18.6045 7.81793 18.6045C5.43338 18.6045 3.50047 20.5214 3.50047 22.8862C3.50047 24.3362 4.22788 25.6171 5.34003 26.3917C4.27143 28.8045 2.70058 31.3298 2.21115 34.2565C1.62459 37.764 2.20918 41.4872 5.26821 43.5899C12.3924 48.4866 20.1257 40.5543 28.2794 38.5601C31.2344 37.8376 34.4782 37.954 37.0816 36.4588C39.0367 35.3358 40.3257 33.4747 40.6914 31.3854C41.053 29.3213 40.5261 27.2662 39.3145 25.5999C39.9645 24.8307 40.3201 23.8589 40.3187 22.8554Z" fill="#0053A4"/>
<path d="M39.6525 31.2064C39.335 33.0204 38.2053 34.6048 36.5532 35.5539C35.0131 36.4384 33.1677 36.7024 31.2135 36.9818C30.1668 37.1314 29.0844 37.2864 28.027 37.5449C25.2311 38.2286 22.5229 39.5626 19.9042 40.8527C14.6631 43.4344 10.1369 45.6637 5.86907 42.7303C2.74282 40.5816 2.88711 36.6061 3.25131 34.4276C3.58889 32.4092 4.50152 30.5504 5.38391 28.7528C5.53424 28.4473 5.68336 28.1412 5.83127 27.8346C6.27607 28.0109 6.7428 28.127 7.21887 28.1798C6.32053 31.1198 7.73328 34.3166 10.6983 35.8272L11.1042 36.034L11.5339 35.8823C13.878 35.0543 16.038 33.726 17.9538 31.9333C19.1922 30.7746 20.257 29.4928 21.1322 28.123C21.3983 28.1628 21.6669 28.1828 21.936 28.1829C24.6575 28.1829 26.911 26.1653 27.2598 23.5594C28.3737 23.519 29.5569 23.5187 30.6773 23.5591C31.0257 26.1653 33.2796 28.183 36.001 28.183C37.139 28.183 38.1944 27.8293 39.064 27.2286C39.6677 28.4541 39.893 29.8329 39.6525 31.2064ZM7.81809 19.6502C9.61738 19.6502 11.0811 21.102 11.0811 22.8863C11.0811 23.5272 10.8914 24.1248 10.5658 24.6281C10.0235 25.467 9.10149 26.042 8.04226 26.1138C7.96814 26.1186 7.89336 26.1222 7.81809 26.1222C7.41707 26.1222 7.03299 26.0497 6.67783 25.918C5.96255 25.6513 5.36357 25.1453 4.98421 24.4875C4.70251 24.0001 4.55451 23.4481 4.55493 22.8863C4.55493 21.102 6.01879 19.6502 7.81809 19.6502ZM18.6732 22.8555C18.6732 21.2343 19.8817 19.8882 21.4518 19.6555C21.6099 19.6318 21.7717 19.6196 21.9362 19.6196C22.9823 19.6196 23.9136 20.111 24.5109 20.8725C24.6605 21.0623 24.7883 21.2682 24.8918 21.4861C25.0947 21.9146 25.1996 22.3822 25.1992 22.8555C25.1992 23.1142 25.1676 23.3657 25.1096 23.6069C24.7916 24.9271 23.6564 25.9363 22.2654 26.0751C22.1572 26.0859 22.0474 26.0914 21.9362 26.0914C21.3086 26.0919 20.6943 25.9118 20.1678 25.573C19.2695 24.9958 18.6732 23.9936 18.6732 22.8555ZM32.292 19.0074C31.5819 19.6796 31.0709 20.5316 30.8143 21.4713C29.5844 21.4263 28.3533 21.4263 27.1234 21.4713C26.8473 20.4556 26.275 19.5595 25.505 18.8788L28.8816 12.1081L32.292 19.0074ZM17.7474 2.29866H40.0064L34.749 17.6755C34.5228 17.7292 34.3004 17.7976 34.0832 17.8801L28.8898 7.37354L23.6816 17.8173C23.4545 17.74 23.2225 17.678 22.987 17.6317L17.7474 2.29866ZM39.264 22.8557C39.264 23.18 39.2152 23.4933 39.1253 23.7891C38.912 24.4855 38.4691 25.0908 37.8675 25.5078C37.3208 25.8883 36.669 26.0922 36.001 26.0916C34.4944 26.0916 33.2235 25.0734 32.8498 23.6946C32.7756 23.421 32.738 23.139 32.738 22.8557C32.738 22.4133 32.8281 21.9915 32.9908 21.6072C33.0748 21.4106 33.1782 21.2227 33.2995 21.0462C33.8867 20.1866 34.8775 19.6198 36.001 19.6198C36.1041 19.6198 36.2056 19.625 36.3064 19.6344C37.963 19.7875 39.264 21.1733 39.264 22.8557ZM41.3731 22.8557C41.3731 20.2548 39.4834 18.0846 36.9945 17.6211L42.9482 0.206909H14.8059L20.7688 17.6563C18.3664 18.1865 16.5643 20.3155 16.5643 22.8555C16.5643 24.7628 17.5806 26.4379 19.1038 27.3793C18.3711 28.4619 17.5024 29.4805 16.5067 30.4122C14.9277 31.8893 13.1686 33.0097 11.2722 33.7468C9.36198 32.5569 8.55453 30.3127 9.39305 28.3579L9.58205 27.9172C11.6801 27.1914 13.19 25.2111 13.19 22.8863C13.19 19.9487 10.7802 17.5588 7.81809 17.5588C4.85602 17.5588 2.44584 19.9487 2.44584 22.8863C2.44584 24.369 3.0605 25.7117 4.04956 26.6785C3.86509 27.0661 3.67784 27.4524 3.48781 27.8373C2.5834 29.6792 1.55851 31.7669 1.17081 34.0854C0.401002 38.6897 1.64283 42.3704 4.66767 44.4493C6.50313 45.7108 8.36718 46.2069 10.2429 46.2069C13.7748 46.2069 17.3477 44.4472 20.8423 42.7257C23.359 41.4862 25.9614 40.2043 28.532 39.5755C29.4885 39.3416 30.4727 39.2008 31.5146 39.0519C33.581 38.7562 35.7175 38.4506 37.6102 37.3637C39.8041 36.1035 41.3057 33.9895 41.7304 31.5643C42.0949 29.4822 41.6563 27.3968 40.5864 25.6281C41.1019 24.7937 41.3742 23.8342 41.3731 22.8557Z" fill="#88CFF8"/>
</svg>
