<svg width="47" height="47" viewBox="0 0 47 47" fill="none" xmlns="http://www.w3.org/2000/svg">
<path d="M44.5006 0.366333H22.359C22.359 3.01719 23.4121 5.55948 25.2865 7.43392C27.161 9.30836 29.7032 10.3614 32.3541 10.3614H36.4328V14.2995C36.4364 19.8146 40.9063 24.2847 46.4214 24.2883V2.28712C46.4214 1.2266 45.5617 0.366333 44.5006 0.366333Z" fill="#0053A4"/>
<path d="M33.5451 11.3987H11.4036C11.407 16.9138 15.8769 21.3839 21.3922 21.3875H25.4709V25.3382C25.478 30.8533 29.9509 35.3203 35.466 35.3203V13.3199C35.466 12.259 34.6059 11.3987 33.5451 11.3987Z" fill="#0053A4"/>
<path d="M22.583 22.4247H0.441406C0.441406 27.9449 4.91652 32.4198 10.4365 32.4198H14.528V36.3577C14.5316 41.8678 18.9938 46.3359 24.504 46.3463V24.3457C24.504 23.2848 23.6439 22.4247 22.583 22.4247Z" fill="#0053A4"/>
</svg>
