<svg width="54" height="38" viewBox="0 0 54 38" fill="none" xmlns="http://www.w3.org/2000/svg">
<path d="M52.6626 37.3831H43.4339C42.7292 37.3831 42.1602 36.8103 42.1602 36.1094V2.03611C42.1602 1.33143 42.733 0.76242 43.4339 0.76242H52.6626C53.3672 0.76242 53.9363 1.33143 53.9363 2.03611V36.1094C53.9363 36.8103 53.3672 37.3831 52.6626 37.3831ZM11.584 36.9422L26.8834 6.49782C27.1999 5.86851 26.9475 5.10354 26.3182 4.787L18.073 0.64183C17.4437 0.32529 16.6788 0.577769 16.3622 1.20708L1.06279 31.6514C0.746254 32.2808 0.998732 33.0457 1.62804 33.3623L9.87315 37.5074C10.5025 37.8202 11.2674 37.5677 11.584 36.9422ZM34.2279 36.8216L40.7735 3.63765C40.9091 2.94805 40.4645 2.28106 39.7749 2.14163L30.7271 0.313987C30.0375 0.174559 29.363 0.622988 29.2235 1.31259V1.31637L22.6779 34.5003C22.5423 35.1899 22.9869 35.8569 23.6766 35.9963L32.7243 37.824C33.4139 37.9634 34.0885 37.515 34.2279 36.8254C34.2279 36.8254 34.2279 36.8254 34.2279 36.8216Z" fill="#0053A4"/>
</svg>
