<svg width="25" height="56" viewBox="0 0 25 56" fill="none" xmlns="http://www.w3.org/2000/svg">
<path d="M12.4667 0.762602L13.924 3.49983C14.2517 4.00496 14.6066 4.45206 15.0247 4.86845C16.2505 6.07891 17.393 7.37083 18.4446 8.73538C20.9139 11.9777 22.5794 15.5785 23.7689 19.4727C24.4822 21.8516 24.8696 24.2919 24.8986 26.7595C25.018 34.1367 22.489 40.4712 17.39 45.7358C16.5605 46.5706 15.6645 47.3365 14.7107 48.0259C14.2056 48.0259 13.9667 47.6385 13.7585 47.2818C13.3794 46.6205 13.127 45.8942 13.0145 45.1402C12.8353 44.2477 12.7175 43.3552 12.7756 42.4337V42.0173C12.7346 41.9286 12.2892 0.972502 12.4667 0.762602Z" fill="#0053A4"/>
<path d="M12.4667 0.672181C12.407 0.552726 12.3472 0.64317 12.2875 0.701191C12.3165 1.29847 12.1083 1.8309 11.7824 2.33943C11.424 2.84456 10.9496 3.23194 10.4735 3.64832C7.82841 5.93845 5.74648 8.70469 4.07922 11.7986C1.86076 15.9625 0.717404 20.425 0.393168 25.123C0.244702 26.8175 0.92901 32.7971 1.46315 34.5224C2.9205 39.1026 5.53828 42.9406 8.92911 46.2717C9.76188 47.0737 10.6527 47.8178 11.5742 48.5328C11.8421 48.5328 11.8711 48.2939 11.9326 48.1164C12.05 47.7366 12.1396 47.3488 12.2005 46.956L12.7978 42.4952L12.4667 0.672181Z" fill="#0085D7"/>
<path d="M13.924 49.8382C13.9838 49.1556 14.3114 48.5891 14.6681 48.0242C14.3097 47.8758 14.0435 47.5805 13.8353 47.2512C13.6558 46.9394 13.5072 46.6107 13.3916 46.27C12.9752 45.0208 12.8865 43.7102 12.767 42.4338V41.6607C12.6186 41.7802 12.5878 42.7904 12.5878 42.9406C12.501 44.2897 12.322 45.6313 12.052 46.956C11.9633 47.4918 11.9035 48.0259 11.5742 48.502C11.5742 48.5618 11.5742 48.6215 11.6032 48.7102C12.139 50.287 12.2858 51.8929 12.3762 53.5294V54.1267C12.3762 54.84 12.3472 54.6898 12.9394 54.9287C13.1783 55.0174 13.4445 55.0482 13.6834 55.2256C13.8626 55.2256 13.8916 55.0772 13.8916 54.9577L13.8029 53.9765V51.2393C13.7739 50.7614 13.8626 50.287 13.9223 49.8399L13.924 49.8382Z" fill="#88CFF8"/>
</svg>
