<svg width="56" height="37" viewBox="0 0 56 37" fill="none" xmlns="http://www.w3.org/2000/svg">
<path d="M30.4409 7.83851C29.7274 7.86831 28.5218 8.05987 28.5218 8.14075C28.5218 8.17438 29.3715 8.60007 29.4367 8.60007C29.4963 8.60007 30.4826 9.09217 30.7018 9.2284C30.9879 9.41144 31.1926 9.57746 31.1326 9.57746C31.0943 9.57746 30.0816 9.1854 29.6976 9.02066C29.3852 8.88912 28.0864 8.50174 27.4542 8.35232C27.112 8.27229 26.9672 8.24249 26.3853 8.13607C25.5271 7.97941 24.5178 7.97005 24.0789 8.11436C23.4501 8.31869 23.3088 8.56985 23.3088 9.49616C23.3088 10.007 23.3339 10.2228 23.445 10.6817C23.4936 10.8814 23.6298 11.3203 23.6932 11.4684C23.7115 11.5152 23.7711 11.66 23.8209 11.7877C23.8724 11.9141 24.0274 12.2415 24.1636 12.5092C24.9286 14.0277 26.0741 15.2932 27.6888 16.4069C28.1979 16.7559 29.5814 17.4179 30.1365 17.5762C30.2778 17.6145 30.3247 17.6942 30.2097 17.6942C30.082 17.6942 28.9114 17.3715 28.6717 17.2702C28.5805 17.2297 28.4879 17.1925 28.3941 17.1586C27.5611 16.8228 26.4968 16.131 25.6169 15.3443C24.6527 14.4865 23.8818 13.4335 23.3556 12.2551C23.0181 11.4931 22.7886 10.6055 22.732 9.83203C22.6988 9.38973 22.6639 9.28331 22.549 9.28842C22.5106 9.28842 22.1467 9.27522 21.7457 9.25351C20.655 9.20669 19.1651 9.32673 17.6901 9.5813C14.8699 10.0615 11.827 11.1708 8.69563 12.8617C8.17486 13.1436 7.66036 13.437 7.15249 13.7416C7.09289 13.7765 6.90474 13.891 6.73361 13.9974C6.56376 14.1039 6.36283 14.2222 6.28961 14.2686C6.12785 14.3635 4.33738 15.5789 4.12283 15.7402C4.0428 15.7985 3.82017 15.9646 3.63243 16.1012C2.78233 16.7295 0.931839 18.2395 0.825416 18.3927C0.773907 18.4693 0.855214 18.5076 0.965043 18.4693C1.02166 18.4472 1.1664 18.4174 1.28261 18.4012C1.40223 18.3825 1.71001 18.3029 1.96585 18.2182C2.22552 18.1364 2.50477 18.0517 2.5848 18.03C3.21824 17.8819 3.4745 17.8304 3.84486 17.7755C4.013 17.7542 4.26076 17.7159 4.40038 17.6942C6.13636 17.4396 6.96476 17.3766 7.73782 17.4345C9.41718 17.5707 11.0237 17.8572 11.9432 18.1828C12.6316 18.4306 14.0317 19.1875 14.6472 19.6413C15.0031 19.9095 16.147 21.0482 16.3998 21.3921C16.5956 21.665 16.8136 21.903 16.8651 21.903C16.8821 21.903 16.9034 21.0346 16.9085 19.9771L16.92 18.0564L19.1685 18.0436C20.9377 18.0351 21.4281 18.0483 21.4583 18.0862C21.5013 18.1416 21.6043 18.3246 21.9419 18.9478C22.2629 19.548 22.4208 19.8375 22.5192 20.0103C22.5702 20.1053 22.6886 20.3249 22.7886 20.4995C22.8814 20.674 23.056 20.9967 23.176 21.2176C23.2956 21.439 23.3935 21.6267 23.3935 21.6348C23.3935 21.6731 23.5698 21.903 23.6 21.903C23.6166 21.903 23.6596 21.8378 23.6894 21.7668C23.723 21.6901 23.8128 21.5203 23.8861 21.3921C23.9627 21.2644 24.0989 21.015 24.1934 20.8404C24.2883 20.6659 24.4165 20.4233 24.4846 20.3083C24.6723 19.972 24.8685 19.6081 25.0316 19.3105C25.2045 18.9817 25.3824 18.6556 25.5654 18.3323C25.6203 18.2258 25.6889 18.1143 25.7101 18.0862C25.7451 18.0479 26.2486 18.0347 28.0698 18.0428L30.3813 18.056L30.394 21.8093C30.4026 24.7658 30.4145 25.5575 30.4579 25.5575C30.4826 25.5524 30.6537 25.4541 30.83 25.3311C31.0777 25.1582 31.1841 25.0518 31.2991 24.8556C31.56 24.4099 32.2999 23.7083 32.7954 23.4355C33.3975 23.1025 34.0452 22.8596 34.7178 22.7143C35.401 22.5696 35.6024 22.5483 37.154 22.493C39.9858 22.3951 40.4046 22.378 40.4263 22.3568C40.4395 22.3453 40.4017 22.2337 40.345 22.1056C40.2854 21.9826 40.1833 21.7531 40.1105 21.6003C39.841 21.0184 39.841 20.8234 40.1237 20.5378C40.3152 20.3377 40.8103 20.1632 41.6617 19.9937C41.8018 19.9639 41.978 19.9256 42.0491 19.9009C42.1227 19.8792 42.2121 19.8626 42.2504 19.8626C42.3586 19.8626 43.2082 19.6545 43.3879 19.5864C43.5113 19.5353 44.178 19.3905 44.9727 19.2373C45.3184 19.1692 46.2166 18.9912 46.9599 18.8414C47.4303 18.7486 47.9211 18.6503 48.0488 18.6251C48.1769 18.6005 48.3617 18.5621 48.4549 18.5455C48.5494 18.5243 48.6724 18.4974 48.7325 18.4889C48.7921 18.4774 49.0918 18.4174 49.3957 18.3544C49.6236 18.3044 49.8527 18.26 50.0828 18.2212C50.2973 18.2011 51.9086 17.8138 52.2793 17.6942C52.8698 17.5026 53.0443 17.4264 53.4168 17.1769C53.8174 16.9045 53.9289 16.7563 54.3261 15.9646C54.7671 15.0851 54.8301 14.9369 54.9548 14.5662C55.1464 13.9761 55.1345 13.7514 54.8901 13.5036C54.7186 13.3342 54.3512 13.1597 54.0834 13.1214C53.8825 13.0962 53.8557 13.1043 53.7578 13.2108C53.6977 13.2746 53.6462 13.3508 53.6462 13.3772C53.6462 13.4155 53.5781 13.602 53.3866 14.0609C53.3683 14.1077 53.3304 14.2222 53.3002 14.315C53.2755 14.4099 53.2235 14.5415 53.1937 14.613C53.1388 14.7322 53.1341 14.7109 53.1554 14.3801C53.1771 14.0523 53.232 13.7765 53.3568 13.3589C53.3785 13.2793 53.4083 13.1431 53.4202 13.0579L53.4415 12.9047L52.9975 12.7272C52.5356 12.5356 52.1376 12.3696 51.9086 12.2666C51.8302 12.2385 51.6391 12.1618 51.4812 12.1018C51.3181 12.0422 51.1219 11.9656 51.0406 11.9273C50.8924 11.8617 50.7426 11.7997 50.5915 11.7413C50.3054 11.6297 49.3059 11.2905 48.4545 11.0227C47.8861 10.8484 47.317 10.6767 46.747 10.5076C46.5464 10.4566 46.3469 10.4015 46.1485 10.3424C46.0804 10.3241 45.9123 10.2777 45.7841 10.2445C45.0323 10.0368 44.8365 9.98485 44.5666 9.90823C44.4179 9.86541 44.2683 9.82567 44.118 9.78903C44.0366 9.76903 43.8157 9.71752 43.6276 9.67069C43.2981 9.58938 41.918 9.27182 41.1696 9.10026L40.6358 8.97724C40.5413 8.95595 40.3719 8.92232 40.2518 8.90061C40.1356 8.87933 39.8925 8.8325 39.7163 8.79419C39.5418 8.76141 39.1659 8.68777 38.8832 8.64137C38.6023 8.59156 38.2647 8.53196 38.1365 8.51025C36.9561 8.29741 36.8765 8.28549 34.7608 8.05135C33.4573 7.90321 31.7043 7.77849 31.2774 7.8002C31.2092 7.8002 30.8304 7.8168 30.4409 7.83851ZM25.5007 9.93334C26.6296 10.2994 27.7271 10.7966 28.4789 11.2819C29.0774 11.668 29.8206 12.2849 30.022 12.5607L30.1067 12.6757L29.9454 12.6122C29.856 12.5739 29.6678 12.493 29.5265 12.4245C28.7747 12.0754 28.6934 12.0469 28.6934 12.1235C28.6934 12.1435 28.8679 12.4245 29.0774 12.7387C29.2919 13.0579 29.4613 13.3389 29.4613 13.3644C29.4613 13.3857 29.3817 13.3508 29.2817 13.2827C28.8977 13.0196 27.9961 12.6408 27.945 12.7174C27.9318 12.7387 28.209 13.0911 28.5653 13.5036C28.9143 13.9161 29.2055 14.2686 29.2055 14.2954C29.2055 14.3584 29.1374 14.3499 28.813 14.2303C28.4788 14.1124 28.3941 14.0992 28.3941 14.1805C28.3941 14.2354 29.1157 15.2081 29.4018 15.544C29.4831 15.6372 29.5478 15.727 29.5478 15.7483C29.5478 15.85 28.547 15.2 27.8386 14.6394C26.8255 13.8314 25.8464 12.7472 25.3313 11.8511C24.9069 11.1189 24.7621 10.7251 24.7621 10.2909C24.7621 10.0368 24.774 9.98528 24.8685 9.89503C24.9239 9.83714 24.9933 9.78861 25.0184 9.78861C25.0431 9.78861 25.2576 9.85374 25.5007 9.93334ZM38.9913 11.4467C39.4004 11.5199 39.9606 11.6165 40.2301 11.6646C40.4996 11.7115 40.8286 11.766 40.9568 11.7877C41.0849 11.8128 41.2675 11.846 41.3624 11.8673C41.4561 11.889 41.6404 11.9273 41.7686 11.9571C42.1908 12.0507 42.2939 12.072 42.9856 12.2334C43.7289 12.4079 43.8919 12.4411 44.118 12.4875C44.3108 12.5258 44.5019 12.599 44.5019 12.6322C44.5019 12.6459 44.3623 12.7272 44.1912 12.8153C43.8404 12.9898 43.7672 13.003 42.3237 13.0579C41.3412 13.0996 40.8154 13.0877 40.3365 13.0111C39.3702 12.8621 38.8717 12.5909 38.4826 12.0039C38.3464 11.8043 38.2566 11.7442 37.9437 11.6646C37.8288 11.6297 37.653 11.5829 37.5597 11.5531C37.4648 11.5233 37.3035 11.4765 37.2004 11.4467C36.8927 11.3671 37.0676 11.3203 37.6879 11.3203C38.1148 11.3203 38.4145 11.3488 38.9913 11.4467ZM44.1312 17.3851C44.0962 17.3934 44.0597 17.3934 44.0247 17.3851C43.9949 17.3715 44.0162 17.3634 44.0762 17.3634C44.1346 17.3634 44.1563 17.3719 44.1316 17.3847L44.1312 17.3851ZM43.9468 17.4349C43.9468 17.4562 43.897 17.486 43.8319 17.4996C43.6991 17.5328 43.1785 17.6827 43.0073 17.7371C42.9473 17.7589 42.7545 17.8189 42.5799 17.8691C42.1393 17.9968 41.0717 18.3442 40.7856 18.4557C40.2467 18.66 38.9815 19.3305 38.8036 19.5102C38.5375 19.7694 38.4558 20.0487 38.4958 20.5842C38.5073 20.8102 38.5375 21.095 38.5639 21.2176C38.6155 21.4858 38.5852 21.5586 38.4826 21.4258C38.3796 21.2942 38.1617 20.8187 38.0982 20.5842C38.0633 20.4795 38.0254 20.3381 38.0037 20.27C37.9271 20.0286 37.9569 19.7426 38.0769 19.5698C38.2383 19.322 38.8202 18.9278 39.5034 18.6005C39.8278 18.4425 40.772 18.1194 41.6404 17.8653C41.815 17.8142 42.0078 17.7542 42.0678 17.7376C42.6829 17.5294 43.9468 17.3298 43.9468 17.4349ZM30.4328 17.7205C30.4192 17.7325 30.3813 17.7376 30.351 17.7239C30.3161 17.7125 30.3298 17.6993 30.3762 17.6993C30.4243 17.6941 30.4494 17.7078 30.4328 17.7205Z" fill="#0053A4"/>
<path d="M21.4715 25.9402V28.915H23.6C25.198 28.915 25.7399 28.9022 25.7783 28.8639C25.843 28.8001 25.8566 22.9655 25.7915 22.9655C25.7702 22.9655 25.7404 22.9987 25.7267 23.037C25.7097 23.0753 25.2444 23.802 24.6889 24.6517C23.8094 25.9952 23.5651 26.3225 23.5651 26.1565C23.5651 26.1267 22.1084 23.8535 21.7359 23.3044C21.686 23.2333 21.642 23.1583 21.6043 23.08C21.5694 23.0153 21.5277 22.9651 21.5064 22.9651C21.4881 22.9651 21.4715 24.3039 21.4715 25.9402Z" fill="#0053A4"/>
</svg>
