<svg width="47" height="47" viewBox="0 0 47 47" fill="none" xmlns="http://www.w3.org/2000/svg">
<path d="M22.2353 0.805463C22.1365 0.814451 21.8219 0.845906 21.5387 0.868375C15.0085 1.45705 8.89168 4.98008 5.01756 10.395C2.86028 13.4057 1.48052 16.8209 0.959181 20.4383C0.774913 21.701 0.752441 22.074 0.752441 23.7861C0.752441 25.4982 0.774913 25.8712 0.959181 27.1339C2.2086 35.7662 8.35236 43.019 16.6848 45.7062C18.177 46.187 19.75 46.5151 21.5387 46.7128C22.2353 46.7892 25.2465 46.7892 25.9432 46.7128C29.0308 46.3713 31.6465 45.6074 34.2262 44.2907C34.6217 44.0885 34.6981 44.0346 34.6442 43.9896C34.6082 43.9627 32.9229 41.7024 30.9004 38.9702L27.2241 34.0047L22.6174 27.1878C20.0826 23.4401 17.9972 20.3754 17.9792 20.3754C17.9612 20.3709 17.9433 23.3996 17.9343 27.0979C17.9208 33.5733 17.9163 33.8339 17.8354 33.9867C17.7185 34.2069 17.6287 34.2968 17.4399 34.3957C17.2961 34.4676 17.1702 34.481 16.4916 34.481H15.7141L15.5073 34.3507C15.3725 34.2653 15.2736 34.153 15.2062 34.0227L15.1118 33.8205L15.1208 24.8107L15.1343 15.7964L15.2736 15.6211C15.3455 15.5267 15.4983 15.4054 15.6062 15.347C15.7905 15.2571 15.8624 15.2481 16.6399 15.2481C17.5567 15.2481 17.7096 15.2841 17.9478 15.5447C18.0152 15.6166 20.5095 19.3733 23.4938 23.8984C26.478 28.4236 30.5588 34.6024 32.5633 37.6356L36.2037 43.1493L36.388 43.028C38.0194 41.9675 39.7453 40.4576 41.1115 38.8848C44.0194 35.546 45.8935 31.4748 46.5227 27.1339C46.707 25.8712 46.7295 25.4982 46.7295 23.7861C46.7295 22.074 46.707 21.701 46.5227 20.4383C45.2733 11.806 39.1295 4.55319 30.797 1.86597C29.3274 1.38964 27.7634 1.0616 26.0106 0.863881C25.5791 0.818944 22.6084 0.769514 22.2353 0.805463ZM31.6465 14.7089C31.8622 14.8167 32.0375 15.0234 32.1004 15.2391C32.1364 15.356 32.1453 17.8545 32.1364 23.485L32.1229 31.5646L30.6982 29.3807L29.269 27.1968V21.3236C29.269 17.5264 29.287 15.3919 29.3139 15.2886C29.3858 15.0369 29.5431 14.8392 29.7589 14.7224C29.9431 14.628 30.0105 14.619 30.7161 14.619C31.3813 14.619 31.4982 14.628 31.6465 14.7089Z" fill="#0053A4"/>
</svg>
