<svg width="42" height="47" viewBox="0 0 42 47" fill="none" xmlns="http://www.w3.org/2000/svg">
<path d="M19.0658 1.28217C20.2059 0.629587 21.6909 0.626639 22.83 1.28217C28.5607 4.52035 34.2933 7.75345 40.0231 10.9936C41.1008 11.6006 41.8216 12.8 41.8107 14.0418V33.5239C41.8187 34.8171 41.0266 36.0452 39.8896 36.6385C34.1777 39.8588 28.4687 43.0831 22.7577 46.3034C21.5941 46.9687 20.0793 46.9175 18.952 46.1976C17.2395 45.2049 15.5242 44.2171 13.8116 43.2254C13.4616 43.0167 13.0671 42.8507 12.82 42.5114C13.0385 42.2169 13.429 42.1803 13.7464 42.0517C14.4612 41.8244 15.1177 41.4595 15.7744 41.1055C15.9404 40.9919 16.1432 41.0354 16.3023 41.1371C17.7667 41.9767 19.2181 42.8407 20.6873 43.6723C21.0008 43.8532 21.3181 43.613 21.586 43.4636C27.1912 40.2957 32.8032 37.1397 38.4074 33.9708C38.6151 33.8709 38.7299 33.6505 38.713 33.4231C38.7169 26.9963 38.714 20.5684 38.715 14.1417C38.7387 13.8836 38.5893 13.6463 38.356 13.5407C32.6639 10.3351 26.9747 7.12461 21.2836 3.9182C21.185 3.85041 21.0682 3.81404 20.9485 3.81387C20.8289 3.81369 20.712 3.84972 20.6132 3.91722C14.922 7.12461 9.23384 10.3381 3.54271 13.5435C3.31017 13.6493 3.15411 13.8826 3.18179 14.1417C3.18277 20.5684 3.18179 26.9963 3.18179 33.424C3.17192 33.535 3.19629 33.6464 3.25163 33.7431C3.30697 33.8398 3.39061 33.9172 3.49129 33.9649C5.01 34.8261 6.53066 35.6813 8.05035 36.5396C8.90649 37.0004 9.95766 37.2742 10.9009 36.9211C11.7333 36.6226 12.3168 35.7732 12.3009 34.8894C12.3088 28.5001 12.297 22.1099 12.3068 15.7217C12.286 15.438 12.555 15.2037 12.8308 15.2304C13.5605 15.2255 14.2912 15.2205 15.0209 15.2323C15.3255 15.2255 15.5351 15.5309 15.4975 15.8166C15.4945 22.2463 15.5053 28.6762 15.4926 35.1059C15.4945 36.8194 14.7905 38.684 13.2055 39.5224C11.2528 40.534 8.83934 40.3195 6.91026 39.3495C5.24024 38.516 3.64654 37.5323 2.00616 36.6393C0.866228 36.0493 0.0780542 34.8163 0.0860784 33.5241V14.0418C0.074124 12.7743 0.823651 11.5532 1.93492 10.9549C7.64587 7.732 13.3558 4.50659 19.0658 1.28217Z" fill="#0053A4"/>
<path d="M24.048 14.7775C26.5388 14.6172 29.2053 14.6826 31.4466 15.9096C33.182 16.8499 34.1441 18.8234 34.1747 20.7513C34.1262 21.0114 33.8544 21.1548 33.6061 21.137C32.8835 21.136 32.1606 21.1468 31.438 21.1321C31.1314 21.1439 30.9532 20.8612 30.9148 20.5902C30.7071 19.6677 30.204 18.7541 29.3358 18.3092C28.003 17.6419 26.4576 17.6754 25.0042 17.6894C23.9432 17.7457 22.8023 17.8376 21.9034 18.4615C21.2133 18.9341 21.0037 19.8882 21.25 20.6565C21.4822 21.2082 22.1191 21.3862 22.6402 21.5503C25.6419 22.3354 28.8227 22.2573 31.7671 23.2904C32.9861 23.7116 34.1786 24.5304 34.5959 25.8067C35.1417 27.5174 34.9025 29.5621 33.6854 30.9354C32.6984 32.0655 31.2609 32.6805 29.8272 33.0146C27.9199 33.4399 25.9406 33.4507 24.0036 33.2619C22.1823 33.0542 20.2869 32.5757 18.8809 31.3348C17.6786 30.2908 17.0913 28.6642 17.1496 27.0942C17.1636 26.8291 17.4275 26.6442 17.6815 26.666C18.4093 26.6601 19.137 26.6581 19.8648 26.667C20.1554 26.6462 20.3709 26.8974 20.3858 27.1714C20.5201 28.0502 20.8504 28.9727 21.6168 29.4938C23.0959 30.448 24.9518 30.3827 26.6454 30.4094C28.0485 30.3471 29.6235 30.3283 30.7685 29.4009C31.3726 28.872 31.5516 27.987 31.3883 27.2257C31.2115 26.583 30.5391 26.2834 29.9617 26.0876C26.9985 25.1502 23.7821 25.4904 20.8475 24.4303C19.6561 24.0093 18.5041 23.2133 18.0464 21.9894C17.4077 20.2571 17.7004 18.1145 19.045 16.7875C20.356 15.4676 22.2486 14.9595 24.048 14.7775Z" fill="#0053A4"/>
</svg>
