<svg width="47" height="47" viewBox="0 0 47 47" fill="none" xmlns="http://www.w3.org/2000/svg">
<path d="M42.0404 9.0173C39.2611 5.41827 35.4768 2.72429 31.1663 1.27608C26.8558 -0.172139 22.2127 -0.309535 17.8241 0.881262C13.4355 2.07206 9.49862 4.53756 6.51134 7.96595C3.52406 11.3943 1.62057 15.6316 1.04161 20.1419C0.46265 24.6522 1.23423 29.2328 3.25876 33.3045C5.28329 37.3763 8.46984 40.7562 12.4154 43.0168C16.3609 45.2774 20.8883 46.3172 25.4248 46.0046C29.9613 45.692 34.3032 44.0411 37.9015 41.2608C47.9452 33.4988 49.7988 19.0646 42.0397 9.0173H42.0404Z" fill="#0053A4"/>
<path d="M31.5985 14.7275L21.9047 24.4983L19.1653 21.682C28.7061 12.1411 29.6638 13.0032 31.5992 14.7275H31.5985Z" fill="#E7F5FE"/>
<path d="M21.9048 24.7654C21.8189 24.7633 21.7369 24.7292 21.6749 24.6699L18.9161 21.9111C18.8539 21.8468 18.8192 21.7609 18.8192 21.6715C18.8192 21.5821 18.8539 21.4962 18.9161 21.4319C28.3225 12.0254 29.6064 12.4658 31.8285 14.4774C31.8657 14.5072 31.8955 14.5452 31.9154 14.5885C31.9354 14.6318 31.945 14.6791 31.9435 14.7267C31.9578 14.8201 31.9219 14.9157 31.8479 14.976L22.154 24.6706C22.0861 24.7329 21.997 24.7671 21.9048 24.7661V24.7654ZM19.6438 21.6812L21.9048 23.9421L31.1007 14.7461C30.7832 14.3482 30.3302 14.0813 29.8282 13.9965C29.3263 13.9116 28.8107 14.0148 28.38 14.2863C26.7133 15.0335 24.0313 17.3131 19.6438 21.6812Z" fill="#0053A4"/>
<path d="M24.6829 27.1995L22.039 24.4982L31.7329 14.9186C34.3387 17.4669 30.4685 21.72 24.6829 27.1988V27.1995Z" fill="#E7F5FE"/>
<path d="M24.683 27.5443C24.5981 27.5376 24.5177 27.5041 24.4531 27.4488L21.7517 24.805C21.7112 24.7067 21.7112 24.5964 21.7517 24.4982C21.723 24.4176 21.723 24.3295 21.7517 24.2489L31.4456 14.555C31.513 14.4917 31.602 14.4564 31.6945 14.4564C31.7871 14.4564 31.8761 14.4917 31.9435 14.555C32.2574 14.844 32.5054 15.1971 32.6707 15.5905C32.8359 15.9839 32.9146 16.4082 32.9012 16.8346C32.9012 19.421 29.9505 22.6777 24.9315 27.4294C24.8645 27.4958 24.7762 27.5364 24.6822 27.5443H24.683ZM22.537 24.4982L24.7016 26.6621C28.5331 23.0412 32.1928 19.3053 32.2115 16.7764C32.2323 16.2403 32.0551 15.7153 31.7136 15.3015L22.537 24.4982Z" fill="#0053A4"/>
<path d="M19.2415 21.7394L21.1576 23.6555C21.1698 23.6662 21.1796 23.6795 21.1863 23.6944C21.193 23.7092 21.1965 23.7254 21.1965 23.7417C21.1965 23.758 21.193 23.7741 21.1863 23.789C21.1796 23.8038 21.1698 23.8171 21.1576 23.8279L17.1149 24.69C17.0333 24.7076 16.9482 24.6981 16.8725 24.6628C16.7968 24.6276 16.7347 24.5686 16.6957 24.4948C16.6566 24.421 16.6428 24.3365 16.6562 24.2541C16.6696 24.1717 16.7096 24.096 16.7701 24.0384L19.1265 21.7013C19.1265 21.7013 19.2034 21.7013 19.2415 21.7394Z" fill="#E7F5FE"/>
<path d="M17.0193 25.073C16.8916 25.0713 16.7664 25.037 16.6557 24.9733C16.5451 24.9095 16.4526 24.8184 16.3871 24.7087C16.3135 24.5698 16.2867 24.4107 16.3109 24.2553C16.3352 24.0999 16.409 23.9565 16.5215 23.8466L18.8585 21.4901C18.9428 21.4148 19.0519 21.3731 19.1649 21.3731C19.278 21.3731 19.3871 21.4148 19.4714 21.4901L21.3874 23.4062C21.5009 23.5139 21.5455 23.677 21.5024 23.8279C21.4593 23.9788 21.3328 24.0988 21.1769 24.1347L17.1343 24.9968L17.0193 25.073ZM19.1653 22.1611L17.0007 24.3258L20.5835 23.5592L19.1653 22.1611Z" fill="#0053A4"/>
<path d="M36.7527 9.34352C35.3661 8.00579 33.1878 7.94975 31.7337 9.21205C30.2795 10.4743 30.0309 12.6411 31.1632 14.2002C32.2955 15.7592 34.43 16.196 36.0824 15.206L33.4766 12.6002L36.7527 9.34352Z" fill="#E7F5FE"/>
<path d="M34.1663 16.0867C33.3697 16.0765 32.5937 15.8321 31.935 15.384C31.2763 14.9358 30.764 14.3037 30.4621 13.5665C30.1603 12.8298 30.0811 12.0208 30.2344 11.2396C30.3876 10.4583 30.7665 9.73918 31.3242 9.17106C32.0912 8.41812 33.1231 7.99628 34.198 7.99628C35.2728 7.99628 36.3047 8.41812 37.0717 9.17106C37.145 9.23285 37.1867 9.32409 37.1867 9.42036C37.1865 9.46772 37.1761 9.5145 37.1563 9.55751C37.1365 9.60052 37.1076 9.63877 37.0717 9.66966L33.9681 12.6009L36.3245 14.9193C36.3627 14.9557 36.3914 15.001 36.4081 15.0511C36.4247 15.1012 36.4288 15.1546 36.4201 15.2067C36.4144 15.2569 36.3978 15.3053 36.3713 15.3483C36.3449 15.3914 36.3093 15.4282 36.2671 15.456C35.634 15.8517 34.9062 16.07 34.1599 16.0882L34.1663 16.0867ZM34.1663 8.65307C32.8013 8.66025 31.58 9.48143 31.0677 10.7365C30.5555 11.9917 30.8342 13.4364 31.7912 14.4006C32.2672 14.8793 32.8766 15.2032 33.5398 15.3297C34.2029 15.4562 34.8889 15.3795 35.5077 15.1097L33.2467 12.8487C33.2108 12.82 33.1818 12.7835 33.1618 12.7421C33.1419 12.7006 33.1315 12.6552 33.1315 12.6091C33.1315 12.5631 33.1419 12.5177 33.1618 12.4762C33.1818 12.4347 33.2108 12.3983 33.2467 12.3695L36.2355 9.36145C35.6413 8.90612 34.9149 8.65715 34.1663 8.65235V8.65307Z" fill="#0053A4"/>
<path d="M36.8101 9.40095L33.5341 12.6576L36.1398 15.2634C36.4021 15.1128 36.6462 14.9328 36.8676 14.7267C37.5505 14.0048 37.9263 13.0459 37.9155 12.0522C37.9048 11.0585 37.5085 10.1079 36.8101 9.40095Z" fill="#E7F5FE"/>
<path d="M36.0816 15.5508C36.0386 15.5532 35.9956 15.5458 35.9558 15.5292C35.916 15.5127 35.8805 15.4874 35.8517 15.4553L33.246 12.8495C33.21 12.8208 33.181 12.7843 33.1611 12.7428C33.1411 12.7013 33.1308 12.6559 33.1308 12.6099C33.1308 12.5639 33.1411 12.5184 33.1611 12.477C33.181 12.4355 33.21 12.399 33.246 12.3703L36.5027 9.17109C36.5341 9.12367 36.5768 9.08477 36.627 9.05786C36.6771 9.03094 36.7331 9.01686 36.79 9.01686C36.8469 9.01686 36.903 9.03094 36.9531 9.05786C37.0032 9.08477 37.0459 9.12367 37.0774 9.17109C37.4597 9.54569 37.7635 9.99281 37.9708 10.4863C38.1782 10.9797 38.285 11.5096 38.285 12.0448C38.285 12.5801 38.1782 13.11 37.9708 13.6034C37.7635 14.0969 37.4597 14.544 37.0774 14.9186C36.8519 15.1578 36.5938 15.3641 36.3108 15.5314C36.2396 15.5673 36.1572 15.5743 36.0809 15.5508H36.0816ZM33.9745 12.6009L36.1391 14.7656C36.288 14.6612 36.429 14.5459 36.5608 14.4207C37.1972 13.7861 37.5556 12.9249 37.5573 12.0262C37.5588 11.2219 37.2656 10.445 36.7333 9.84211L33.9745 12.6009Z" fill="#0053A4"/>
<path d="M32.0009 15.1298C31.7415 14.8861 31.3989 14.7505 31.0429 14.7505C30.6869 14.7505 30.3444 14.8861 30.0849 15.1298L21.4069 23.7884L22.8437 25.2447L32.0203 17.1982C32.1603 17.0641 32.2713 16.9027 32.3465 16.7241C32.4218 16.5454 32.4596 16.3533 32.4578 16.1594C32.456 15.9656 32.4145 15.7742 32.336 15.597C32.2574 15.4198 32.1434 15.2606 32.0009 15.1291V15.1298Z" fill="#E7F5FE"/>
<path d="M22.7669 25.5902C22.681 25.5881 22.599 25.5541 22.537 25.4947L21.0807 24.0384C21.0186 23.9741 20.9839 23.8882 20.9839 23.7988C20.9839 23.7094 21.0186 23.6235 21.0807 23.5592L29.7594 14.9186C30.0094 14.6689 30.3286 14.5001 30.6757 14.434C31.0228 14.368 31.3817 14.4077 31.7059 14.5481C32.0301 14.6885 32.3047 14.923 32.494 15.2214C32.6833 15.5197 32.7786 15.868 32.7675 16.2211C32.7576 16.4608 32.6999 16.6961 32.5979 16.9132C32.4958 17.1303 32.3515 17.3249 32.1734 17.4856L22.9968 25.532C22.93 25.5793 22.848 25.5998 22.7669 25.5895V25.5902ZM21.7517 23.7884L22.7094 24.7655L31.7136 16.9295C31.9363 16.7355 32.0692 16.4582 32.0778 16.1629C32.0864 15.8676 31.97 15.5788 31.7524 15.3777C31.5513 15.1775 31.2792 15.0651 30.9955 15.0651C30.7118 15.0651 30.4396 15.1775 30.2386 15.3777L21.7517 23.7884Z" fill="#0053A4"/>
<path d="M14.6823 33.6554C14.6578 33.6887 14.6446 33.729 14.6446 33.7704C14.6446 33.8117 14.6578 33.852 14.6823 33.8853L15.0652 35.5521C15.0806 35.6502 15.066 35.7506 15.0235 35.8403C14.981 35.93 14.9124 36.0048 14.8267 36.055C14.7414 36.1049 14.6424 36.1265 14.544 36.1165C14.4456 36.1066 14.3529 36.0657 14.2793 35.9997L11.6548 33.4708L19.8356 25.2253H22.6713L24.5874 27.1414C21.5985 29.7546 18.2658 31.9463 14.6823 33.6554Z" fill="#E7F5FE"/>
<path d="M14.5099 36.4717C14.2929 36.4674 14.0788 36.3783 13.9351 36.2224L11.4256 33.7129C11.3897 33.6841 11.3607 33.6477 11.3407 33.6062C11.3208 33.5647 11.3104 33.5193 11.3104 33.4733C11.3104 33.4272 11.3208 33.3818 11.3407 33.3403C11.3607 33.2989 11.3897 33.2624 11.4256 33.2337L19.6632 24.9767C19.7093 24.9276 19.7696 24.8942 19.8356 24.8811H22.69C22.7644 24.8548 22.8455 24.8548 22.9199 24.8811L24.836 26.7972C24.8724 26.8308 24.9001 26.8727 24.9168 26.9194C24.9334 26.9661 24.9385 27.0161 24.9315 27.0652C24.9329 27.1128 24.9232 27.16 24.9033 27.2033C24.8833 27.2465 24.8536 27.2846 24.8166 27.3145L24.6635 27.4488C21.6626 29.9506 18.361 32.068 14.8353 33.7517L15.1996 35.3035C15.2277 35.4232 15.2288 35.5477 15.2027 35.6679C15.1766 35.788 15.1241 35.9009 15.0488 35.9982C14.9736 36.0954 14.8776 36.1747 14.7678 36.2301C14.658 36.2856 14.5373 36.3158 14.4143 36.3186L14.5099 36.4717ZM12.1728 33.4636L14.433 35.7432C14.4541 35.762 14.4813 35.7723 14.5095 35.7723C14.5377 35.7723 14.565 35.762 14.586 35.7432C14.6001 35.7236 14.6077 35.7001 14.6077 35.676C14.6077 35.6519 14.6001 35.6284 14.586 35.6088L14.2031 33.942C14.1729 33.8224 14.185 33.696 14.2374 33.5844C14.2898 33.4727 14.3792 33.3825 14.4905 33.3292C17.9213 31.668 21.1378 29.5964 24.0694 27.16L22.4982 25.5888H19.9312L12.1728 33.4636Z" fill="#0053A4"/>
<path d="M9.68198 35.4371L11.5981 33.5211L14.5487 36.4717L9.85513 36.1462C9.77454 36.1399 9.69801 36.1083 9.63645 36.0559C9.5749 36.0035 9.53146 35.933 9.51235 35.8545C9.49323 35.7759 9.49941 35.6934 9.53 35.6185C9.56059 35.5437 9.61403 35.4805 9.6827 35.4378L9.68198 35.4371Z" fill="#E7F5FE"/>
<path d="M14.6054 36.7591L9.93055 36.4336C9.65324 36.4078 9.41471 36.2181 9.31701 35.9645C9.2193 35.7109 9.27893 35.4098 9.47075 35.2072L11.3868 33.2912C11.4511 33.229 11.537 33.1943 11.6264 33.1943C11.7158 33.1943 11.8017 33.229 11.866 33.2912L14.7972 36.2224C14.8378 36.278 14.8597 36.345 14.8597 36.4139C14.8597 36.4827 14.8378 36.5497 14.7972 36.6053C14.7529 36.677 14.6851 36.7311 14.6054 36.7584V36.7591ZM9.93055 35.6864L13.762 35.9357L11.6548 33.9622L9.93055 35.6864Z" fill="#0053A4"/>
<path d="M22.9392 25.4566L19.069 26.0507L21.3106 23.8286L22.9392 25.4566Z" fill="#E7F5FE"/>
<path d="M19.0691 26.4136C19.0047 26.4153 18.9414 26.398 18.8868 26.3639C18.8322 26.3297 18.7889 26.2803 18.7623 26.2218C18.7215 26.1662 18.6995 26.0992 18.6995 26.0303C18.6995 25.9614 18.7215 25.8943 18.7623 25.8388L20.9844 23.5973C21.0518 23.5339 21.1408 23.4987 21.2333 23.4987C21.3258 23.4987 21.4149 23.5339 21.4823 23.5973L23.1117 25.2253C23.1442 25.2769 23.1615 25.3367 23.1615 25.3977C23.1615 25.4587 23.1442 25.5185 23.1117 25.5701C23.0957 25.633 23.0619 25.69 23.0144 25.7342C22.9669 25.7784 22.9076 25.808 22.8437 25.8194L19.0123 26.4136H19.0691ZM21.3106 24.3251L20.0655 25.5701L22.2115 25.2447L21.3106 24.3251Z" fill="#0053A4"/>
<path d="M22.9393 25.4552L20.238 25.8001C20.1657 25.8165 20.09 25.8092 20.0222 25.7792C19.9544 25.7492 19.8981 25.6982 19.8616 25.6337C19.825 25.5692 19.8103 25.4946 19.8194 25.4211C19.8286 25.3475 19.8613 25.2789 19.9125 25.2253L21.3113 23.8265L22.9393 25.4552Z" fill="#E7F5FE"/>
<path d="M20.1611 26.165C20.0359 26.1638 19.9132 26.1295 19.8056 26.0655C19.6979 26.0015 19.6092 25.9102 19.5483 25.8008C19.4751 25.6696 19.4467 25.5182 19.4675 25.3694C19.4882 25.2207 19.557 25.0828 19.6632 24.9767L21.062 23.5779C21.1294 23.5146 21.2185 23.4793 21.311 23.4793C21.4035 23.4793 21.4925 23.5146 21.5599 23.5779L23.1886 25.2066C23.237 25.2525 23.2711 25.3115 23.2867 25.3763C23.3023 25.4412 23.2987 25.5092 23.2765 25.5721C23.2542 25.635 23.2141 25.6901 23.1612 25.7307C23.1082 25.7712 23.0446 25.7956 22.9781 25.8008L20.2962 26.1456L20.1611 26.165ZM20.1611 25.4559L22.1921 25.2066L21.2919 24.3064L20.1424 25.4559H20.1611ZM36.8288 11.6044C36.7927 11.544 36.7357 11.4989 36.6686 11.4777C36.6014 11.4565 36.5288 11.4607 36.4646 11.4895C36.4329 11.5055 36.4047 11.5278 36.3818 11.5549C36.3588 11.5821 36.3415 11.6136 36.331 11.6475C36.3096 11.716 36.3164 11.7902 36.3496 11.8537C36.484 12.1361 36.4466 12.4701 36.2541 12.7158C36.2302 12.7395 36.2114 12.7679 36.1991 12.7992C36.1867 12.8305 36.181 12.864 36.1822 12.8976C36.1829 12.965 36.2085 13.0297 36.2541 13.0794C36.3032 13.0988 36.358 13.0988 36.4071 13.0794C36.4517 13.0906 36.4986 13.0893 36.5425 13.0758C36.5865 13.0622 36.6259 13.0369 36.6564 13.0025C36.8142 12.8093 36.9141 12.5755 36.9446 12.328C36.9751 12.0805 36.935 11.8294 36.8288 11.6037V11.6044Z" fill="#0053A4"/>
</svg>
