<svg width="54" height="47" viewBox="0 0 54 47" fill="none" xmlns="http://www.w3.org/2000/svg">
<path d="M31.4835 23.4516C31.4835 20.9124 29.3605 18.8537 26.7413 18.8537C24.1225 18.8537 21.9991 20.9124 21.9991 23.4516C21.9991 25.9911 24.1225 28.0497 26.7413 28.0497C29.3605 28.0497 31.4835 25.9911 31.4835 23.4516Z" fill="#0053A4"/>
<path fillRule="evenodd" clipRule="evenodd" d="M42.1427 14.9154C43.1441 10.9698 44.4028 3.65307 39.9653 1.17247C35.5485 -1.29732 29.8009 3.43524 26.7659 6.27595C23.7398 3.46355 17.8307 -1.24878 13.397 1.2397C8.98191 3.71777 10.3434 10.9132 11.367 14.8835C7.24854 16.0177 0.188477 18.4606 0.188477 23.4516C0.188477 28.4285 7.24119 31.0862 11.3353 32.2193C10.3079 36.2116 9.01457 43.3043 13.4353 45.7769C17.8856 48.2649 23.7762 43.6647 26.8394 40.7929C29.8938 43.6503 35.5862 48.2806 40.0039 45.8011C44.4354 43.3138 43.2812 36.0952 42.2575 32.1018C46.2263 30.9662 53.2941 28.3663 53.2941 23.4516C53.2941 18.5085 46.1962 16.0458 42.1427 14.9154ZM41.6396 29.9855C40.9674 27.9226 40.0602 25.7288 38.9505 23.4626C40.0098 21.2498 40.8817 19.0844 41.5351 17.0347C44.5067 17.87 51.0256 19.7792 51.0256 23.4516C51.0256 27.1585 44.77 29.0858 41.6396 29.9855ZM38.8671 43.8974C35.571 45.7473 30.6748 41.3193 28.4191 39.2151C29.9156 37.6282 31.4111 35.7833 32.8706 33.7346C35.4381 33.5139 37.8634 33.1528 40.063 32.6598C40.7835 35.4845 42.1777 42.0393 38.8671 43.8974ZM14.5688 43.8711C11.2724 42.0281 12.7791 35.699 13.5349 32.7582C15.7101 33.2248 18.118 33.5604 20.6915 33.7628C22.1606 35.7673 23.6994 37.6099 25.2501 39.2236C23.3342 41.0205 17.8806 45.7225 14.5688 43.8711ZM2.45696 23.4516C2.45696 19.7308 8.93687 17.8355 11.9762 17.0023C12.6409 19.098 13.5126 21.2893 14.5646 23.5052C13.499 25.7541 12.6148 27.9801 11.944 30.1006C9.04595 29.2962 2.45696 27.1747 2.45696 23.4516ZM14.5336 3.14336C17.8435 1.28576 22.9791 5.80978 25.1763 7.84602C23.6336 9.45231 22.1089 11.281 20.6524 13.2741C18.1548 13.4985 15.7639 13.8589 13.566 14.3419C12.7413 11.1396 11.2272 4.99896 14.5336 3.14336ZM34.4935 15.6649C36.1879 15.8722 37.8114 16.148 39.3357 16.4854C38.8781 17.9075 38.3077 19.3947 37.6359 20.9192C36.6622 19.1277 35.6169 17.3722 34.4935 15.6649ZM26.7666 9.4179C27.813 10.517 28.8609 11.7443 29.8919 13.0758C27.8008 12.9799 25.7063 12.9795 23.6152 13.0744C24.647 11.7552 25.704 10.5297 26.7666 9.4179ZM15.8662 20.9176C15.2055 19.3984 14.6403 17.9047 14.1787 16.4622C15.6939 16.1335 17.3097 15.8647 18.9932 15.6608C17.8666 17.3645 16.8231 19.1192 15.8662 20.9176ZM19.0415 31.3994C17.3025 31.2112 15.6622 30.9561 14.1474 30.6364C14.6163 29.1686 15.194 27.6427 15.8687 26.0908C16.8389 27.9079 17.8983 29.6797 19.0415 31.3994ZM26.8295 37.6407C25.7543 36.5158 24.6817 35.2715 23.6343 33.9332C25.7373 34.0132 27.8443 34.0134 29.9471 33.9224C28.913 35.2851 27.8687 36.5312 26.8295 37.6407ZM37.6575 26.0118C38.3674 27.5806 38.9657 29.0981 39.441 30.5412C37.9011 30.882 36.2387 31.1563 34.4871 31.3601C35.6188 29.6203 36.6807 27.8376 37.6575 26.0118ZM31.6045 31.6267C28.3878 31.8496 25.151 31.8471 21.9331 31.6449C20.1047 29.0553 18.477 26.3319 17.072 23.5045C18.4703 20.683 20.0861 17.9649 21.9059 15.3794C25.126 15.1434 28.366 15.1427 31.5861 15.3808C33.3903 17.9661 35.0037 20.6772 36.4343 23.4732C35.0207 26.2933 33.3963 29.0169 31.6045 31.6267ZM38.8322 3.07797C42.143 4.92948 40.6693 11.5052 39.946 14.3647C37.7429 13.8717 35.3503 13.5049 32.8454 13.2769C31.3861 11.2623 29.8742 9.43043 28.3564 7.84489C30.5817 5.76478 35.5535 1.24457 38.8322 3.07797Z" fill="#0053A4"/>
</svg>
