<svg width="49" height="47" viewBox="0 0 49 47" fill="none" xmlns="http://www.w3.org/2000/svg">
<path d="M33.7931 32.6203C35.5644 32.4352 36.9082 30.8937 36.8471 29.0438C36.7862 27.194 35.259 25.7141 33.4265 25.7141H33.3045C31.4107 25.7758 29.9449 27.3789 30.006 29.2904C30.0671 30.2154 30.4335 31.017 30.9832 31.5719C28.9065 35.7034 25.7302 38.7248 20.9659 41.2529C17.7285 42.9794 14.3691 43.5961 11.0096 43.1646C8.26086 42.7945 6.12299 41.5614 4.77899 39.5263C2.82449 36.505 2.6413 33.2368 4.29055 29.9688C5.45118 27.6255 7.28343 25.899 8.44405 25.0357C8.19974 24.2341 7.83318 22.8776 7.64999 21.8911C-1.20695 28.3656 -0.290635 37.1216 2.39699 41.2529C4.41261 44.3362 8.50518 46.2476 13.0252 46.2476C14.2468 46.2476 15.4684 46.1242 16.6901 45.8161C24.5087 44.2745 30.4337 39.588 33.7931 32.6203ZM44.5436 24.9742C39.9013 19.4862 33.0602 16.4648 25.2416 16.4648H24.2644C23.7146 15.3549 22.554 14.6149 21.2713 14.6149H21.149C19.2557 14.6766 17.7898 16.2797 17.8507 18.1914C17.9119 20.0411 19.4389 21.5211 21.2713 21.5211H21.3934C22.7372 21.4594 23.8978 20.5961 24.3864 19.4245H25.4859C30.1282 19.4245 34.5261 20.781 38.4966 23.4326C41.5506 25.4674 43.7495 28.119 44.9711 31.3253C46.0095 33.9151 45.9484 36.4432 44.8489 38.6015C43.1387 41.8695 40.2679 43.6578 36.4807 43.6578C34.0374 43.6578 31.7164 42.9177 30.4946 42.3628C29.8228 42.9794 28.601 43.9659 27.7459 44.5828C30.3725 45.8159 33.0602 46.4943 35.6256 46.4943C41.4894 46.4943 45.8263 43.2261 47.4755 39.9581C49.2469 36.3815 49.1246 30.2154 44.5436 24.9742ZM13.5139 33.6683C13.575 35.5183 15.102 36.998 16.9344 36.998H17.0567C18.9502 36.9365 20.4161 35.3332 20.355 33.4217C20.2941 31.5717 18.7669 30.092 16.9344 30.092H16.8124C16.6901 30.092 16.5067 30.092 16.3849 30.1535C13.8804 25.9605 12.8421 21.3977 13.2086 16.4646C13.4527 12.7649 14.6745 9.5584 16.8124 6.90686C18.5837 4.62536 22.0042 3.51545 24.3255 3.45394C30.8 3.33053 33.5486 11.4699 33.732 14.7381C34.5261 14.923 35.8699 15.3547 36.7862 15.6631C36.053 5.67393 29.9449 0.494263 24.0812 0.494263C18.5837 0.494263 13.5139 4.50233 11.4981 10.4219C8.68836 18.3146 10.5208 25.899 13.9414 31.8802C13.6361 32.3118 13.4527 32.9899 13.5139 33.6683Z" fill="#0053A4"/>
</svg>
