<svg width="47" height="47" viewBox="0 0 47 47" fill="none" xmlns="http://www.w3.org/2000/svg">
<path d="M46.5499 23.2743C46.4248 15.5767 42.1328 8.08204 35.4928 4.13541C30.2613 0.877248 23.6529 0.000299573 17.7006 1.50384C8.7419 3.75916 1.5997 11.8726 0.691818 21.1197C-0.4362 29.8532 3.98091 38.9364 11.5296 43.4154C18.9221 48.0512 28.9772 47.8634 36.205 42.9837C42.7206 38.7551 46.7615 31.0417 46.5428 23.2808L46.5499 23.2743ZM24.8111 43.3851C14.3489 44.4189 4.23126 35.5545 3.94854 25.0606C3.1572 16.5407 8.77212 8.11441 16.7913 5.29508C28.0369 0.784445 41.8508 9.11653 43.0098 21.1773C44.827 32.0143 35.8057 43.047 24.8111 43.3851ZM17.9265 22.6161L33.0555 10.2424L24.8802 22.647C22.5623 22.647 20.2444 22.6477 17.9265 22.6161ZM22.1803 24.9038L29.134 24.9354L14.005 37.34L22.1803 24.9038Z" fill="#0053A4"/>
</svg>
