<svg width="39" height="47" viewBox="0 0 39 47" fill="none" xmlns="http://www.w3.org/2000/svg">
<path d="M36.2154 6.29309C31.975 0.1796 23.5993 -1.63248 17.5441 2.25429L6.91035 9.08262C6.19498 9.53564 5.5276 10.0624 4.92042 10.6544C4.31247 11.2464 3.76775 11.9006 3.29464 12.6062C2.82154 13.3118 2.42233 14.0651 2.10312 14.8537C1.78469 15.6426 1.54827 16.4627 1.39765 17.3007C1.27195 18.0033 1.20338 18.7159 1.19424 19.4299C1.18434 20.1448 1.23386 20.8589 1.34128 21.5645C1.4487 22.2709 1.61402 22.9673 1.83495 23.6461C2.05589 24.3249 2.33244 24.9837 2.66155 25.6164C2.43514 25.9631 2.22614 26.3211 2.03532 26.689C1.84409 27.0568 1.67192 27.4346 1.51879 27.8201C1.36566 28.2055 1.23233 28.5986 1.11882 28.9979C1.00531 29.3972 0.912361 29.8018 0.839224 30.2103C0.535327 31.9281 0.575477 33.6898 0.95731 35.3917C1.14777 36.2401 1.42127 37.0678 1.77477 37.8618C2.12826 38.6557 2.5587 39.4128 3.06152 40.1207C7.30194 46.2342 15.6769 48.0463 21.732 44.1595L32.3658 37.3596C33.0812 36.9058 33.747 36.3783 34.3542 35.7855C34.9613 35.1932 35.5059 34.5391 35.9792 33.8337C36.4523 33.1288 36.8515 32.3756 37.1707 31.587C37.49 30.7992 37.7269 29.9792 37.8785 29.1415C38.0042 28.4389 38.072 27.7271 38.0811 27.0131C38.0903 26.299 38.0408 25.5849 37.9326 24.8793C37.8252 24.1736 37.6598 23.478 37.4382 22.7992C37.2165 22.1212 36.9399 21.4624 36.6108 20.8297C36.8371 20.4834 37.0466 20.1248 37.2378 19.757C37.4282 19.3892 37.6012 19.0115 37.7543 18.626C37.9074 18.2406 38.0415 17.8474 38.1558 17.4482C38.2693 17.0497 38.3638 16.645 38.4377 16.2365C38.5885 15.3796 38.6541 14.5097 38.6342 13.6397C38.6144 12.7698 38.5085 11.9044 38.3181 11.0552C38.1276 10.2067 37.8541 9.37901 37.5006 8.58507C37.1476 7.791 36.7171 7.03428 36.2154 6.3261" fill="#0053A4"/>
<path d="M16.5051 40.712C15.6728 40.9299 14.8124 41.0184 13.9536 40.9746C13.0951 40.93 12.2479 40.755 11.4419 40.4532C10.6358 40.1519 9.88001 39.7286 9.20052 39.1978C8.52159 38.6667 7.92688 38.0344 7.43685 37.3228C7.1344 36.8966 6.87538 36.4421 6.66358 35.9645C6.45117 35.4872 6.28656 34.9897 6.17219 34.4795C6.05868 33.9689 5.99469 33.4483 5.98326 32.9254C5.97183 32.4025 6.01221 31.8796 6.10363 31.3644C6.1181 31.2807 6.13486 31.197 6.15315 31.1141C6.17067 31.0304 6.19048 30.9474 6.21181 30.8653C6.23238 30.7824 6.25524 30.7002 6.27962 30.618C6.30323 30.5367 6.32913 30.4553 6.3558 30.3746L6.55616 29.7581L7.1024 30.1689C7.41552 30.3992 7.73854 30.6165 8.06994 30.8192C8.40134 31.0227 8.74113 31.2116 9.08853 31.3851C9.43516 31.5594 9.79018 31.7191 10.1505 31.8627C10.5109 32.0071 10.8773 32.1353 11.2491 32.2482L11.6567 32.3672L11.6201 32.778C11.6005 33.0575 11.6294 33.3384 11.7055 33.608C11.7428 33.7431 11.7923 33.8737 11.8525 33.9996C11.9127 34.1255 11.9835 34.2461 12.0643 34.3597C12.2122 34.574 12.3918 34.7644 12.5968 34.9241C12.801 35.0838 13.0288 35.2112 13.2718 35.3018C13.5148 35.3924 13.7693 35.4446 14.0283 35.4577C14.2866 35.4715 14.5456 35.4446 14.7962 35.3786C14.8541 35.3633 14.9105 35.3456 14.9669 35.3256C15.0233 35.3057 15.0789 35.2842 15.133 35.2596C15.1878 35.2358 15.2412 35.2097 15.2945 35.1813C15.3471 35.1536 15.3981 35.1237 15.4484 35.0914L26.0662 28.2623C26.1963 28.1801 26.3176 28.0844 26.4281 27.9767C26.5385 27.8684 26.6368 27.7494 26.7229 27.6212C26.809 27.493 26.8806 27.3555 26.9385 27.2119C26.9956 27.0684 27.0383 26.9194 27.0657 26.7674C27.0924 26.6115 27.1038 26.4541 27.1 26.2959C27.0962 26.1385 27.0764 25.9819 27.0413 25.8275C27.007 25.674 26.9568 25.5242 26.892 25.3799C26.828 25.2363 26.7488 25.0996 26.6574 24.9714C26.5096 24.7572 26.3305 24.5675 26.1256 24.4078C25.9207 24.2481 25.6929 24.1206 25.4506 24.03C25.2078 23.9394 24.9527 23.8866 24.6941 23.8734C24.4351 23.8603 24.176 23.8872 23.9254 23.9525C23.8683 23.9678 23.8111 23.9855 23.7547 24.0055C23.6984 24.0254 23.6435 24.0469 23.5887 24.0707C23.5338 24.0953 23.4805 24.1214 23.4279 24.1498C23.3754 24.1775 23.3235 24.2082 23.2733 24.2404L19.1959 26.8495C19.0298 26.9555 18.8592 27.0553 18.6855 27.149C18.511 27.2419 18.3342 27.3286 18.1537 27.4085C17.9731 27.4884 17.7895 27.5613 17.6036 27.6266C17.4177 27.6926 17.2296 27.751 17.0391 27.8024C16.2079 28.0189 15.3493 28.1065 14.4923 28.0619C13.6352 28.0174 12.7903 27.8416 11.9858 27.5413C11.1813 27.2404 10.4271 26.8173 9.74904 26.2875C9.071 25.7577 8.47677 25.1273 7.9869 24.417C7.68598 23.9909 7.42771 23.5356 7.21668 23.058C7.00489 22.5804 6.84109 22.0828 6.72758 21.573C6.61406 21.0624 6.55159 20.5418 6.54093 20.0189C6.5295 19.4968 6.56988 18.9739 6.66206 18.4594C6.84218 17.4465 7.22982 16.4826 7.80025 15.6292C8.37108 14.7757 9.11242 14.0518 9.97683 13.5038L20.6274 6.67548C20.7927 6.56952 20.9618 6.4697 21.1348 6.37602C21.3077 6.28311 21.4845 6.19635 21.6635 6.11649C21.8429 6.03661 22.0254 5.96386 22.2105 5.89843C22.3949 5.8324 22.5823 5.77327 22.772 5.72183C23.6039 5.50453 24.464 5.41546 25.3219 5.45923C26.1805 5.50376 27.0269 5.67883 27.8329 5.98059C28.6389 6.28158 29.3939 6.70542 30.0735 7.236C30.7522 7.76744 31.3466 8.39996 31.8364 9.11181C32.1381 9.53719 32.3978 9.99175 32.6104 10.4693C32.823 10.9469 32.9875 11.4437 33.1025 11.9543C33.2168 12.4649 33.2808 12.9855 33.2922 13.5084C33.3044 14.0313 33.2648 14.5542 33.1734 15.0694C33.1574 15.1539 33.1406 15.2384 33.1216 15.322C33.1033 15.4057 33.0835 15.4894 33.0622 15.5724C33.0416 15.6561 33.0187 15.739 32.9951 15.8211C32.9715 15.9041 32.9471 15.9862 32.9205 16.0676L32.7171 16.6842L32.1746 16.2734C31.8607 16.0407 31.537 15.8227 31.2048 15.6177C30.8726 15.4134 30.5313 15.223 30.1832 15.0472C29.4861 14.6967 28.7611 14.406 28.0157 14.178L27.6074 14.059L27.6447 13.6482C27.6561 13.5077 27.6554 13.3664 27.6424 13.2266C27.6302 13.0869 27.6051 12.9479 27.5685 12.812C27.5312 12.6769 27.4832 12.544 27.423 12.4173C27.3636 12.2899 27.2927 12.1686 27.212 12.0534C27.0633 11.8429 26.8838 11.6565 26.6795 11.5005C26.4754 11.3439 26.2488 11.2196 26.0075 11.132C25.5226 10.9547 24.9955 10.9308 24.4968 11.0636C24.4389 11.079 24.3817 11.0967 24.3261 11.1159C24.2698 11.1358 24.2141 11.1581 24.1593 11.1819C24.1052 11.2057 24.0511 11.2326 23.9985 11.2602C23.946 11.2886 23.8942 11.3186 23.8439 11.3508L13.2063 18.1676C13.0768 18.2498 12.9556 18.3458 12.8459 18.4533C12.7362 18.5608 12.6372 18.6798 12.5511 18.8072C12.4657 18.9354 12.3935 19.0721 12.3355 19.215C12.2776 19.3585 12.2349 19.5067 12.2075 19.6588C12.1808 19.8146 12.1694 19.9728 12.1732 20.131C12.1824 20.4476 12.253 20.7593 12.3812 21.0485C12.4458 21.1925 12.5242 21.3298 12.6151 21.4586C12.7621 21.6705 12.9404 21.8594 13.1438 22.0175C13.3468 22.1765 13.5726 22.3033 13.8135 22.3938C14.2978 22.5753 14.8254 22.6044 15.3265 22.4775C15.3836 22.4614 15.4408 22.4437 15.4971 22.4237C15.5528 22.4038 15.6084 22.3815 15.6632 22.3577C15.7178 22.3338 15.7715 22.3076 15.824 22.2794C15.8765 22.2517 15.9283 22.2218 15.9786 22.1895L20.056 19.5851C20.2228 19.4776 20.3927 19.3762 20.5672 19.2825C20.7409 19.1881 20.9184 19.1013 21.0997 19.0207C21.2804 18.9408 21.4642 18.8681 21.6505 18.8026C21.8372 18.7366 22.0261 18.6782 22.2174 18.6276C23.0493 18.4095 23.9086 18.3204 24.7672 18.3634C25.6258 18.4072 26.4722 18.5823 27.2783 18.8833C28.0835 19.1842 28.8393 19.6073 29.5181 20.1387C30.1976 20.6692 30.7919 21.3012 31.2817 22.0129C31.5834 22.4391 31.8425 22.8936 32.055 23.3712C32.2676 23.8485 32.4324 24.346 32.5472 24.8562C32.6614 25.3661 32.7254 25.8867 32.7376 26.4096C32.7498 26.9332 32.7094 27.4561 32.6188 27.9706C32.5289 28.4757 32.3872 28.97 32.196 29.4456C32.0048 29.9213 31.7648 30.3755 31.4798 30.8008C31.1957 31.2262 30.8681 31.6208 30.5024 31.9779C30.1367 32.3349 29.7352 32.6528 29.304 32.9262L18.6656 39.7545C18.4988 39.8612 18.3281 39.9618 18.1544 40.0555C17.98 40.1492 17.8025 40.2359 17.6212 40.3158C17.4406 40.3964 17.257 40.4693 17.0703 40.5354C16.8845 40.6014 16.6955 40.6605 16.5051 40.712Z" fill="#E7F5FE"/>
</svg>
