<svg width="54" height="33" viewBox="0 0 54 33" fill="none" xmlns="http://www.w3.org/2000/svg">
<path d="M13.6142 11.2021C15.3782 4.14592 19.7883 0.617828 26.8445 0.617828C37.4288 0.617828 38.7518 8.55605 44.044 9.87908C47.5721 10.7611 50.6592 9.43807 53.3052 5.90997C51.5412 12.9662 47.1311 16.4943 40.0749 16.4943C29.4906 16.4943 28.1676 8.55605 22.8754 7.23301C19.3473 6.35099 16.2602 7.67402 13.6142 11.2021ZM0.383789 27.0786C2.14784 20.0224 6.55796 16.4943 13.6142 16.4943C24.1984 16.4943 25.5215 24.4325 30.8136 25.7555C34.3417 26.6375 37.4288 25.3145 40.0749 21.7864C38.3108 28.8426 33.9007 32.3707 26.8445 32.3707C16.2602 32.3707 14.9372 24.4325 9.64504 23.1094C6.11695 22.2274 3.02986 23.5505 0.383789 27.0786Z" fill="#0053A4"/>
</svg>
