<svg width="47" height="47" viewBox="0 0 47 47" fill="none" xmlns="http://www.w3.org/2000/svg">
<path d="M46.9385 0.504257H0.958496V46.4843H46.9385V0.504257Z" fill="#0053A4"/>
<path d="M31.8454 36.4263C32.7715 37.9386 33.9765 39.0501 36.1076 39.0501C37.8979 39.0501 39.0416 38.1553 39.0416 36.919C39.0416 35.4374 37.8666 34.9126 35.896 34.0507L34.8158 33.5872C31.6979 32.2589 29.6267 30.5949 29.6267 27.0771C29.6267 23.8366 32.0957 21.3697 35.9544 21.3697C38.7015 21.3697 40.6764 22.3258 42.0996 24.8291L38.7351 26.9895C37.9943 25.6612 37.1951 25.1379 35.9544 25.1379C34.6888 25.1379 33.8867 25.9407 33.8867 26.9895C33.8867 28.2857 34.6896 28.8104 36.5434 29.6133L37.6235 30.076C41.2946 31.6502 43.3674 33.2552 43.3674 36.8635C43.3674 40.7536 40.3115 42.8847 36.2076 42.8847C32.195 42.8847 29.6026 40.9725 28.3341 38.4662L31.8454 36.4263ZM16.5822 36.8007C17.261 38.005 17.8784 39.0231 19.3629 39.0231C20.7824 39.0231 21.678 38.4677 21.678 36.3081V21.6164H25.9986V36.3665C25.9986 40.8404 23.3756 42.8767 19.5468 42.8767C16.0874 42.8767 14.084 41.0864 13.0651 38.93L16.5822 36.8007Z" fill="#E7F5FE"/>
<path d="M21.4766 13.6876H22.5433L23.9632 17.6235L25.4272 13.6876H26.4277L24.3236 18.8963H23.5217L21.4766 13.6876Z" fill="#E7F5FE"/>
<path d="M28.7105 18.4107H28.6885C28.5609 18.6118 28.3991 18.7589 28.2029 18.8521C28.0067 18.9404 27.7909 18.9845 27.5555 18.9845C27.3937 18.9845 27.2343 18.9625 27.0773 18.9183C26.9253 18.8742 26.788 18.808 26.6653 18.7197C26.5476 18.6314 26.452 18.5211 26.3784 18.3886C26.3049 18.2562 26.2681 18.1017 26.2681 17.9252C26.2681 17.7339 26.3024 17.572 26.3711 17.4396C26.4397 17.3023 26.5305 17.1895 26.6433 17.1012C26.761 17.008 26.8959 16.9344 27.0479 16.8805C27.1999 16.8265 27.3569 16.7873 27.5187 16.7628C27.6855 16.7334 27.8522 16.7162 28.019 16.7113C28.1857 16.7015 28.3427 16.6966 28.4898 16.6966H28.7105V16.6009C28.7105 16.3802 28.6345 16.2159 28.4825 16.108C28.3304 15.9952 28.1367 15.9388 27.9013 15.9388C27.7149 15.9388 27.5408 15.9732 27.379 16.0418C27.2171 16.1056 27.0773 16.1939 26.9596 16.3067L26.4961 15.8432C26.6923 15.6421 26.9204 15.4974 27.1803 15.4091C27.4452 15.3209 27.7174 15.2767 27.9969 15.2767C28.2471 15.2767 28.4579 15.3061 28.6296 15.365C28.8013 15.4189 28.9435 15.4901 29.0563 15.5783C29.1691 15.6666 29.2549 15.7696 29.3138 15.8873C29.3775 16.0001 29.4217 16.1154 29.4462 16.2331C29.4756 16.3508 29.4928 16.4661 29.4977 16.5789C29.5026 16.6868 29.5051 16.7824 29.5051 16.8658V18.8963H28.7105V18.4107ZM28.659 17.3145H28.4751C28.3525 17.3145 28.2152 17.3195 28.0631 17.3293C27.9111 17.3391 27.7664 17.3636 27.6291 17.4028C27.4967 17.4372 27.3839 17.4911 27.2907 17.5647C27.1975 17.6333 27.1509 17.7314 27.1509 17.8589C27.1509 17.9423 27.1681 18.0134 27.2024 18.0723C27.2416 18.1262 27.2907 18.1728 27.3495 18.2121C27.4084 18.2513 27.4746 18.2807 27.5482 18.3004C27.6217 18.3151 27.6953 18.3224 27.7689 18.3224C28.0729 18.3224 28.2961 18.2513 28.4383 18.1091C28.5855 17.9619 28.659 17.7633 28.659 17.5132V17.3145Z" fill="#E7F5FE"/>
<path d="M30.4549 15.365H31.2936V15.9315H31.3083C31.3917 15.7549 31.5192 15.6029 31.6908 15.4753C31.8625 15.3429 32.0955 15.2767 32.3897 15.2767C32.6252 15.2767 32.8238 15.3159 32.9856 15.3944C33.1524 15.4729 33.2873 15.5759 33.3903 15.7034C33.4933 15.8309 33.5668 15.9781 33.611 16.1448C33.6551 16.3116 33.6772 16.4857 33.6772 16.6671V18.8963H32.7944V17.1086C32.7944 17.0105 32.7895 16.9026 32.7796 16.7849C32.7698 16.6622 32.7429 16.5494 32.6987 16.4464C32.6595 16.3385 32.5957 16.2503 32.5074 16.1816C32.4192 16.108 32.299 16.0712 32.147 16.0712C31.9998 16.0712 31.8748 16.0958 31.7718 16.1448C31.6737 16.1939 31.5903 16.2601 31.5216 16.3434C31.4579 16.4268 31.4113 16.5225 31.3819 16.6304C31.3524 16.7383 31.3377 16.8511 31.3377 16.9688V18.8963H30.4549V15.365Z" fill="#E7F5FE"/>
<path d="M34.694 15.365H35.5768V18.8963H34.694V15.365ZM34.569 14.1658C34.569 14.0236 34.6205 13.901 34.7234 13.798C34.8313 13.6901 34.9662 13.6361 35.1281 13.6361C35.2899 13.6361 35.4248 13.6876 35.5327 13.7906C35.6455 13.8887 35.7019 14.0138 35.7019 14.1658C35.7019 14.3179 35.6455 14.4454 35.5327 14.5484C35.4248 14.6465 35.2899 14.6955 35.1281 14.6955C34.9662 14.6955 34.8313 14.644 34.7234 14.541C34.6205 14.4331 34.569 14.3081 34.569 14.1658Z" fill="#E7F5FE"/>
<path d="M36.6051 13.3345H37.4879V18.8963H36.6051V13.3345Z" fill="#E7F5FE"/>
<path d="M38.5233 13.3345H39.4061V18.8963H38.5233V13.3345Z" fill="#E7F5FE"/>
<path d="M42.6267 18.4107H42.6046C42.4771 18.6118 42.3152 18.7589 42.119 18.8521C41.9229 18.9404 41.7071 18.9845 41.4716 18.9845C41.3098 18.9845 41.1504 18.9625 40.9935 18.9183C40.8414 18.8742 40.7041 18.808 40.5815 18.7197C40.4638 18.6314 40.3681 18.5211 40.2946 18.3886C40.221 18.2562 40.1842 18.1017 40.1842 17.9252C40.1842 17.7339 40.2185 17.572 40.2872 17.4396C40.3559 17.3023 40.4466 17.1895 40.5594 17.1012C40.6771 17.008 40.812 16.9344 40.964 16.8805C41.1161 16.8265 41.273 16.7873 41.4349 16.7628C41.6016 16.7334 41.7684 16.7162 41.9351 16.7113C42.1019 16.7015 42.2588 16.6966 42.406 16.6966H42.6267V16.6009C42.6267 16.3802 42.5506 16.2159 42.3986 16.108C42.2466 15.9952 42.0528 15.9388 41.8174 15.9388C41.631 15.9388 41.4569 15.9732 41.2951 16.0418C41.1332 16.1056 40.9935 16.1939 40.8757 16.3067L40.4123 15.8432C40.6084 15.6421 40.8365 15.4974 41.0965 15.4091C41.3613 15.3209 41.6335 15.2767 41.9131 15.2767C42.1632 15.2767 42.3741 15.3061 42.5457 15.365C42.7174 15.4189 42.8596 15.4901 42.9724 15.5783C43.0852 15.6666 43.1711 15.7696 43.2299 15.8873C43.2937 16.0001 43.3378 16.1154 43.3623 16.2331C43.3918 16.3508 43.4089 16.4661 43.4138 16.5789C43.4187 16.6868 43.4212 16.7824 43.4212 16.8658V18.8963H42.6267V18.4107ZM42.5752 17.3145H42.3912C42.2686 17.3145 42.1313 17.3195 41.9793 17.3293C41.8272 17.3391 41.6825 17.3636 41.5452 17.4028C41.4128 17.4372 41.3 17.4911 41.2068 17.5647C41.1136 17.6333 41.067 17.7314 41.067 17.8589C41.067 17.9423 41.0842 18.0134 41.1185 18.0723C41.1578 18.1262 41.2068 18.1728 41.2657 18.2121C41.3245 18.2513 41.3907 18.2807 41.4643 18.3004C41.5379 18.3151 41.6114 18.3224 41.685 18.3224C41.9891 18.3224 42.2122 18.2513 42.3545 18.1091C42.5016 17.9619 42.5752 17.7633 42.5752 17.5132V17.3145Z" fill="#E7F5FE"/>
</svg>
