<svg width="47" height="47" viewBox="0 0 47 47" fill="none" xmlns="http://www.w3.org/2000/svg">
<path d="M23.4312 0.206909C10.7323 0.206909 0.431152 10.5081 0.431152 23.2069C0.431152 35.9058 10.7323 46.2069 23.4312 46.2069C36.13 46.2069 46.4312 35.9058 46.4312 23.2069C46.4312 10.5081 36.13 0.206909 23.4312 0.206909Z" fill="#0053A4"/>
<path d="M36.9647 31.4834C35.5439 31.8208 34.8246 32.1316 33.0663 33.2772C30.3223 35.0532 27.3207 35.8791 27.3207 35.8791C27.3207 35.8791 27.0721 36.2521 26.3528 36.4208C25.1095 36.7227 20.4296 36.9803 20.0034 36.9891C18.8578 36.998 18.1562 36.6961 17.9609 36.2254C17.3659 34.8046 18.8134 34.183 18.8134 34.183C18.8134 34.183 18.4937 33.9876 18.3072 33.81C18.1385 33.6413 17.9609 33.3038 17.9076 33.4281C17.6856 33.9698 17.5701 35.293 16.9752 35.888C16.1582 36.7139 14.613 36.4386 13.6983 35.959C12.6949 35.4262 13.7694 34.1741 13.7694 34.1741C13.7694 34.1741 13.2277 34.4938 12.7925 33.8366C12.4018 33.2328 12.0377 32.2027 12.1354 30.9328C12.242 29.4853 13.8582 28.0822 13.8582 28.0822C13.8582 28.0822 13.574 25.942 14.5064 23.7486C15.3501 21.7505 17.6234 20.1432 17.6234 20.1432C17.6234 20.1432 15.7142 18.0297 16.4246 16.1293C16.8864 14.8861 17.0729 14.8949 17.2238 14.8417C17.7566 14.6374 18.2717 14.4154 18.6535 13.998C20.5628 11.9378 22.996 12.3285 22.996 12.3285C22.996 12.3285 24.1505 8.82081 25.2161 9.50459C25.5447 9.71772 26.7257 12.3463 26.7257 12.3463C26.7257 12.3463 27.9868 11.6092 28.1288 11.8845C28.8925 13.3675 28.9813 16.2003 28.6439 17.9231C28.0756 20.7648 26.6547 22.2922 26.0864 23.2513C25.9532 23.4733 27.6138 24.1749 28.6617 27.0787C29.6296 29.7339 28.7682 31.9629 28.9192 32.2115C28.9458 32.2559 28.9547 32.2737 28.9547 32.2737C28.9547 32.2737 30.0647 32.3625 32.2937 30.9861C33.4837 30.249 34.8956 29.4231 36.503 29.4054C38.057 29.3787 38.1369 31.1992 36.9647 31.4834ZM39.0783 30.178C38.9184 28.9169 37.8528 28.0467 36.4852 28.0644C34.4427 28.0911 32.7288 29.1478 31.5922 29.8494C31.1481 30.1247 30.7663 30.3289 30.4377 30.4799C30.5088 29.4498 30.4466 28.1 29.9138 26.6169C29.2655 24.8409 28.3952 23.7486 27.7736 23.1181C28.4929 22.0702 29.4786 20.5428 29.9404 18.1807C30.34 16.1648 30.2157 13.0301 29.301 11.2718C29.1145 10.9166 28.8037 10.659 28.413 10.5525C28.2532 10.5081 27.9512 10.4193 27.3562 10.588C26.4593 8.73201 26.1485 8.53664 25.9088 8.37679C25.4115 8.0571 24.8254 7.98606 24.2748 8.19031C23.5377 8.45672 22.9072 9.16714 22.3122 10.4281C22.2234 10.6146 22.1435 10.7922 22.0725 10.9698C20.9447 11.0498 19.1686 11.4583 17.6678 13.0834C17.4813 13.2876 17.1173 13.4386 16.7354 13.5807H16.7443C15.9628 13.8559 15.6076 14.4953 15.1725 15.6498C14.5686 17.266 15.1902 18.8556 15.803 19.8857C14.9682 20.6316 13.8582 21.8216 13.2721 23.2158C12.5439 24.9386 12.464 26.6258 12.4906 27.5405C11.869 28.1976 10.9099 29.432 10.8034 30.8173C10.6613 32.7532 11.3628 34.0675 11.6736 34.5471C11.7624 34.6891 11.8601 34.8046 11.9667 34.92C11.9312 35.1598 11.9223 35.4173 11.9756 35.6837C12.091 36.3054 12.4817 36.8115 13.0767 37.1312C14.2489 37.7529 15.8829 38.0193 17.1439 37.3888C17.5968 37.8683 18.4227 38.3301 19.9234 38.3301H20.0122C20.3941 38.3301 25.2427 38.0725 26.6547 37.7262C27.2852 37.5752 27.7203 37.3088 28.0045 37.0691C28.9103 36.7849 31.4145 35.9324 33.7767 34.405C35.4462 33.3216 36.0234 33.0907 37.2667 32.7888C38.4744 32.4957 39.2292 31.3946 39.0783 30.178Z" fill="#E7F5FE"/>
</svg>
