<svg xmlns="http://www.w3.org/2000/svg" version="1.1" xmlns:xlink="http://www.w3.org/1999/xlink" xmlns:svgjs="http://svgjs.dev/svgjs" width="30" height="29"><svg width="30" height="29" viewBox="0 0 30 29" fill="none" xmlns="http://www.w3.org/2000/svg">
<path d="M10.376 28.5448C8.07555 28.5448 6.17908 27.9005 4.68292 26.6139C3.18677 25.3272 2.43962 23.6272 2.43962 21.5175V18.0355C2.43962 17.5719 2.3566 17.2442 2.18873 17.0543C2.02085 16.8643 1.73859 16.7694 1.34195 16.7694C1.19621 16.7694 1.01726 16.7899 0.808799 16.8327C0.286714 16.8327 0.0247498 16.6316 0.0247498 16.2312V13.1608C0.0247498 12.74 0.212922 12.4644 0.589266 12.3378C1.4674 12.0417 2.36583 11.8946 3.28639 11.8946C4.81206 11.9374 5.99828 12.3545 6.8469 13.1459C7.69368 13.9372 8.11614 15.0396 8.11614 16.4547V20.6647C8.11614 22.6478 8.97214 23.6402 10.6878 23.6402C11.6287 23.6402 12.2762 23.3609 12.6323 22.8005C12.9883 22.2419 13.1654 21.4021 13.1654 20.2849V13.1626C13.1654 12.699 13.4052 12.4662 13.8867 12.4662H18.1206C18.6224 12.4662 18.8733 12.699 18.8733 13.1626V20.6647C18.8733 21.6981 19.067 22.4523 19.4526 22.9289C19.84 23.4038 20.4617 23.6421 21.3195 23.6421C22.1774 23.6421 22.7935 23.2622 23.2953 22.5025C23.7971 21.7428 24.048 20.7411 24.048 19.4954C24.048 17.49 23.703 15.4436 23.0131 13.3544C22.8452 12.7642 23.0647 12.4681 23.6717 12.4681H27.7174C28.1767 12.4681 28.4793 12.6785 28.6269 13.1012C29.3796 15.4436 29.7559 17.6706 29.7559 19.7803C29.7559 22.3759 29.0198 24.4856 27.544 26.1111C26.0699 27.7367 24.1513 28.5485 21.7881 28.5485C19.1961 28.5485 17.2812 27.8112 16.0489 26.3327C14.752 27.8112 12.8592 28.5485 10.3724 28.5485" fill="#0F82EB"></path>
<path d="M23.4503 24.5861C21.8102 24.5861 20.4838 24.197 19.506 23.4298C18.4969 22.6385 17.9859 21.5622 17.9859 20.2327V15.7099C17.9859 14.9222 17.7866 14.3003 17.3937 13.8627C17.0063 13.4308 16.4824 13.2185 15.7887 13.2185C15.0951 13.2185 14.5195 13.4233 14.1118 13.8441C13.7022 14.2668 13.5011 14.8478 13.5011 15.6186V21.8397C13.5011 23.3572 12.4551 24.0368 11.4202 24.0368H9.36873C8.16037 24.0368 7.17523 23.0444 7.17523 21.8248V1.71304C7.17523 1.09857 7.67149 0.599548 8.28028 0.599548H12.3684C13.0787 0.599548 13.503 1.01664 13.503 1.71304V8.65839C14.6283 8.01413 15.9437 7.68827 17.4251 7.68827C19.4636 7.68827 21.1461 8.3344 22.4208 9.60988C23.6975 10.8891 24.3339 12.591 24.3118 14.6746V18.2757C24.3118 19.0857 24.6494 19.0857 24.8726 19.0857C25.0958 19.0857 25.2988 19.069 25.45 19.0336L25.4759 19.028H25.5035C25.5552 19.0206 25.6068 19.0187 25.6548 19.0187C26.2544 19.0187 26.6455 19.3613 26.7303 19.959L27.0347 22.9699C27.1233 23.5881 26.8023 24.0555 26.1787 24.2063C25.2287 24.4558 24.3081 24.5843 23.4503 24.5843" fill="white"></path>
<path d="M12.3684 1.00917C12.8518 1.00917 13.0953 1.24379 13.0953 1.71115V9.41249C14.287 8.53733 15.7297 8.0979 17.4251 8.0979C19.3621 8.0979 20.9321 8.69933 22.1331 9.90034C23.334 11.1032 23.9244 12.6915 23.9041 14.6671V18.2739C23.9041 19.0894 24.2269 19.4953 24.8726 19.4953C25.1346 19.4953 25.3578 19.4749 25.5386 19.4339C25.5792 19.4302 25.6179 19.4283 25.6548 19.4283C26.0459 19.4283 26.271 19.6238 26.3263 20.0148L26.6289 23.009C26.6898 23.4373 26.5071 23.7017 26.0828 23.8041C25.1549 24.048 24.2768 24.1709 23.4484 24.1709C21.8932 24.1709 20.6627 23.8134 19.7551 23.1002C18.8474 22.3871 18.3936 21.43 18.3936 20.229V15.7061C18.3936 14.8105 18.1612 14.1011 17.6963 13.5816C17.2314 13.0621 16.5968 12.8032 15.7887 12.8032C14.9807 12.8032 14.3055 13.0527 13.8203 13.5518C13.337 14.0508 13.0934 14.7379 13.0934 15.6149V21.8359C13.0934 23.1114 12.2559 23.6216 11.4202 23.6216H9.36875C8.38361 23.6216 7.58296 22.8153 7.58296 21.821V1.71302C7.58296 1.32572 7.89473 1.01103 8.2803 1.01103H12.3684M12.3684 0.186157H8.2803C7.44644 0.186157 6.76755 0.871382 6.76755 1.71302V21.8229C6.76755 23.2697 7.93532 24.4483 9.36875 24.4483H11.4202C12.6193 24.4483 13.9107 23.6328 13.9107 21.8396V15.6186C13.9107 14.9613 14.073 14.4735 14.4051 14.1327C14.7316 13.7957 15.1855 13.6318 15.7906 13.6318C16.3957 13.6318 16.7831 13.7938 17.0912 14.1383C17.4177 14.5051 17.5764 15.019 17.5764 15.7099V20.2327C17.5764 21.6963 18.1409 22.8824 19.2533 23.7557C20.3049 24.5805 21.7161 24.9995 23.4484 24.9995C24.3395 24.9995 25.2932 24.8673 26.2802 24.6085C27.1067 24.4055 27.5495 23.7594 27.4369 22.9177L27.1362 19.9385V19.9217L27.1325 19.905C27.02 19.108 26.4536 18.6127 25.653 18.6127C25.594 18.6127 25.5312 18.6146 25.4667 18.6202L25.4132 18.6258L25.3597 18.637C25.2766 18.6556 25.1235 18.6779 24.8708 18.6779C24.821 18.6779 24.7915 18.6723 24.7749 18.6686C24.7583 18.6332 24.7177 18.5252 24.7177 18.2794V14.6727C24.7398 12.483 24.0628 10.6805 22.705 9.32125C21.3509 7.96569 19.5725 7.27861 17.4214 7.27861C16.1263 7.27861 14.9512 7.51694 13.9089 7.99176V1.71302C13.9089 0.785729 13.3038 0.186157 12.3666 0.186157" fill="#0F82EB"></path>
<path d="M12.3684 1.00917C12.8518 1.00917 13.0953 1.24379 13.0953 1.71115V9.41249C14.287 8.53733 15.7297 8.0979 17.4251 8.0979C19.3621 8.0979 20.9321 8.69933 22.1331 9.90034C23.334 11.1032 23.9244 12.6915 23.9041 14.6671V18.2739C23.9041 19.0894 24.2269 19.4953 24.8726 19.4953C25.1346 19.4953 25.3578 19.4749 25.5386 19.4339C25.5792 19.4302 25.6179 19.4283 25.6548 19.4283C26.0459 19.4283 26.271 19.6238 26.3263 20.0148L26.6289 23.009C26.6898 23.4372 26.5071 23.7017 26.0828 23.8041C25.1549 24.048 24.2768 24.1709 23.4484 24.1709C21.8932 24.1709 20.6627 23.8134 19.7551 23.1002C18.8474 22.3871 18.3936 21.43 18.3936 20.229V15.7061C18.3936 14.8105 18.1612 14.1011 17.6963 13.5816C17.2314 13.0621 16.5968 12.8032 15.7887 12.8032C14.9807 12.8032 14.3055 13.0527 13.8203 13.5518C13.337 14.0508 13.0934 14.7379 13.0934 15.6149V21.8359C13.0934 23.1114 12.2559 23.6216 11.4202 23.6216H9.36875C8.38361 23.6216 7.58296 22.8153 7.58296 21.821V1.71302C7.58296 1.32572 7.89473 1.01103 8.2803 1.01103H12.3684M12.3684 0.186157H8.2803C7.44644 0.186157 6.76755 0.871382 6.76755 1.71302V21.8229C6.76755 23.2697 7.93532 24.4483 9.36875 24.4483H11.4202C12.6193 24.4483 13.9107 23.6328 13.9107 21.8396V15.6186C13.9107 14.9613 14.073 14.4735 14.4051 14.1327C14.7316 13.7957 15.1855 13.6318 15.7906 13.6318C16.3957 13.6318 16.7831 13.7938 17.0912 14.1383C17.4177 14.5051 17.5764 15.019 17.5764 15.7099V20.2327C17.5764 21.6963 18.1409 22.8824 19.2533 23.7557C20.3049 24.5805 21.7161 24.9995 23.4484 24.9995C24.3395 24.9995 25.2932 24.8673 26.2802 24.6085C27.1067 24.4055 27.5495 23.7594 27.4369 22.9177L27.1362 19.9385V19.9217L27.1325 19.905C27.02 19.108 26.4536 18.6127 25.653 18.6127C25.594 18.6127 25.5312 18.6146 25.4667 18.6202L25.4132 18.6258L25.3597 18.637C25.2766 18.6556 25.1235 18.6779 24.8708 18.6779C24.821 18.6779 24.7915 18.6723 24.7749 18.6686C24.7583 18.6332 24.7177 18.5252 24.7177 18.2794V14.6727C24.7398 12.483 24.0628 10.6805 22.705 9.32125C21.3509 7.96569 19.5725 7.27861 17.4214 7.27861C16.1263 7.27861 14.9512 7.51695 13.9089 7.99176V1.71302C13.9089 0.785729 13.3038 0.186157 12.3666 0.186157H12.3684Z" stroke="#0F82EB" stroke-width="0.372405" stroke-linejoin="bevel"></path>
</svg><style>@media (prefers-color-scheme: light) { :root { filter: none; } }
@media (prefers-color-scheme: dark) { :root { filter: none; } }
</style></svg>