<svg width="32" height="20" viewBox="0 0 32 20" fill="none" xmlns="http://www.w3.org/2000/svg">
<path d="M9.4145 7.37018C9.4145 7.75384 9.45598 8.06491 9.52856 8.29303C9.61152 8.52116 9.71521 8.77002 9.86038 9.03961C9.91222 9.12257 9.93296 9.20552 9.93296 9.2781C9.93296 9.3818 9.87075 9.48549 9.73595 9.58918L9.08269 10.0247C8.98937 10.0869 8.89605 10.118 8.81309 10.118C8.7094 10.118 8.60571 10.0662 8.50202 9.97284C8.35685 9.8173 8.23242 9.65139 8.12873 9.48549C8.02504 9.30921 7.92135 9.1122 7.80728 8.87371C6.99849 9.82767 5.98231 10.3047 4.75875 10.3047C3.88774 10.3047 3.19301 10.0558 2.68492 9.55807C2.17683 9.06035 1.9176 8.39673 1.9176 7.56719C1.9176 6.68582 2.22868 5.97034 2.8612 5.43115C3.49372 4.89195 4.33362 4.62235 5.40164 4.62235C5.75419 4.62235 6.11711 4.65346 6.50077 4.70531C6.88443 4.75715 7.27846 4.84011 7.69322 4.93343V4.17648C7.69322 3.38842 7.52732 2.83886 7.20587 2.51741C6.87406 2.19597 6.31413 2.04043 5.5157 2.04043C5.15278 2.04043 4.77949 2.08191 4.39583 2.17523C4.01217 2.26855 3.63888 2.38262 3.27596 2.52778C3.11006 2.60037 2.98563 2.64184 2.91304 2.66258C2.84046 2.68332 2.78861 2.69369 2.74714 2.69369C2.60197 2.69369 2.52938 2.59 2.52938 2.37225V1.86416C2.52938 1.69825 2.55012 1.57382 2.60197 1.50124C2.65381 1.42865 2.74714 1.35607 2.89231 1.28349C3.25523 1.09684 3.69073 0.941303 4.19882 0.816873C4.70691 0.682074 5.2461 0.619859 5.81641 0.619859C7.05034 0.619859 7.95245 0.899826 8.53313 1.45976C9.10343 2.0197 9.39376 2.86997 9.39376 4.01057V7.37018H9.4145ZM5.20463 8.94629C5.54681 8.94629 5.89936 8.88408 6.27265 8.75965C6.64594 8.63522 6.97775 8.40709 7.25772 8.09602C7.42363 7.89901 7.54806 7.68125 7.61027 7.43239C7.67249 7.18353 7.71396 6.88283 7.71396 6.53028V6.09477C7.41326 6.02219 7.09181 5.95997 6.76 5.9185C6.42819 5.87702 6.10674 5.85628 5.7853 5.85628C5.09057 5.85628 4.58248 5.99108 4.2403 6.27105C3.89811 6.55102 3.73221 6.94504 3.73221 7.4635C3.73221 7.95085 3.85664 8.31377 4.11587 8.56263C4.36472 8.82186 4.72765 8.94629 5.20463 8.94629ZM13.5311 10.0662C13.3444 10.0662 13.22 10.0351 13.137 9.96247C13.0541 9.90025 12.9815 9.75508 12.9193 9.55807L10.4825 1.54271C10.4203 1.33533 10.3892 1.20053 10.3892 1.12795C10.3892 0.962041 10.4722 0.868719 10.6381 0.868719H11.6542C11.8513 0.868719 11.9861 0.899827 12.0586 0.972411C12.1416 1.03463 12.2038 1.17979 12.266 1.37681L14.008 8.24119L15.6256 1.37681C15.6775 1.16942 15.7397 1.03463 15.8226 0.972411C15.9056 0.910196 16.0508 0.868719 16.2374 0.868719H17.0669C17.264 0.868719 17.3988 0.899827 17.4817 0.972411C17.5647 1.03463 17.6372 1.17979 17.6787 1.37681L19.317 8.32414L21.1109 1.37681C21.1731 1.16942 21.2457 1.03463 21.3183 0.972411C21.4012 0.910196 21.536 0.868719 21.7227 0.868719L22.687 0.868719C22.8529 0.868719 22.9462 0.951672 22.9462 1.12795C22.9462 1.17979 22.9359 1.23164 22.9255 1.29385C22.9151 1.35607 22.8944 1.43902 22.8529 1.55308L20.354 9.56844C20.2917 9.77582 20.2192 9.91062 20.1362 9.97284C20.0533 10.0351 19.9185 10.0765 19.7422 10.0765H18.8504C18.6534 10.0765 18.5186 10.0454 18.4357 9.97284C18.3527 9.90025 18.2801 9.76545 18.2387 9.55807L16.6314 2.86997L15.0346 9.5477C14.9827 9.75508 14.9205 9.88988 14.8376 9.96247C14.7546 10.0351 14.6094 10.0662 14.4228 10.0662H13.5311ZM26.8554 10.3461C26.3162 10.3461 25.777 10.2839 25.2586 10.1595C24.7401 10.0351 24.3357 9.90025 24.0661 9.74472C23.9002 9.65139 23.7862 9.5477 23.7447 9.45438C23.7032 9.36106 23.6825 9.25737 23.6825 9.16404V8.63522C23.6825 8.41746 23.7654 8.31377 23.921 8.31377C23.9832 8.31377 24.0454 8.32414 24.1076 8.34488C24.1698 8.36562 24.2631 8.40709 24.3668 8.44857C24.7194 8.60411 25.103 8.72854 25.5074 8.81149C25.9222 8.89445 26.3266 8.93592 26.7414 8.93592C27.3946 8.93592 27.9027 8.82186 28.2553 8.59374C28.6078 8.36562 28.7945 8.0338 28.7945 7.60867C28.7945 7.31833 28.7011 7.07984 28.5145 6.88283C28.3278 6.68582 27.9753 6.50954 27.4672 6.34363L25.9637 5.87702C25.2067 5.63853 24.6468 5.28598 24.3046 4.81937C23.9624 4.36312 23.7862 3.85504 23.7862 3.31584C23.7862 2.88034 23.8795 2.49668 24.0661 2.16486C24.2528 1.83305 24.5016 1.54271 24.8127 1.31459C25.1238 1.0761 25.4763 0.899827 25.8911 0.775397C26.3059 0.650967 26.7414 0.599121 27.1976 0.599121C27.4257 0.599121 27.6642 0.60949 27.8923 0.640598C28.1308 0.671705 28.3486 0.713182 28.5663 0.754658C28.7737 0.806504 28.9707 0.85835 29.1574 0.920565C29.344 0.98278 29.4892 1.04499 29.5929 1.10721C29.738 1.19016 29.8417 1.27312 29.904 1.36644C29.9662 1.44939 29.9973 1.56345 29.9973 1.70862V2.19597C29.9973 2.41372 29.9143 2.52778 29.7588 2.52778C29.6758 2.52778 29.541 2.48631 29.3648 2.40335C28.7737 2.13376 28.1101 1.99896 27.3739 1.99896C26.7828 1.99896 26.3162 2.09228 25.9948 2.28929C25.6733 2.48631 25.5074 2.78701 25.5074 3.21215C25.5074 3.50248 25.6111 3.75134 25.8185 3.94836C26.0259 4.14537 26.4095 4.34239 26.9591 4.51866L28.4315 4.98527C29.1781 5.22376 29.7173 5.55558 30.0387 5.98071C30.3602 6.40585 30.5157 6.8932 30.5157 7.43239C30.5157 7.87827 30.4224 8.28266 30.2461 8.63522C30.0595 8.98777 29.8106 9.29884 29.4892 9.5477C29.1677 9.80693 28.7841 9.99358 28.3382 10.1284C27.8716 10.2735 27.3842 10.3461 26.8554 10.3461Z" fill="#0053A4"/>
<path fillRule="evenodd" clipRule="evenodd" d="M28.8152 15.3855C25.4037 17.9052 20.4473 19.2429 16.1856 19.2429C10.2129 19.2429 4.83134 17.0342 0.766628 13.3636C0.445185 13.0732 0.735521 12.6792 1.11918 12.9073C5.5157 15.4581 10.9388 17.0031 16.5485 17.0031C20.3332 17.0031 24.4913 16.2151 28.3175 14.5975C28.8878 14.3383 29.3751 14.9708 28.8152 15.3855Z" fill="#0053A4"/>
<path fillRule="evenodd" clipRule="evenodd" d="M30.2358 13.7679C29.8003 13.208 27.3531 13.4984 26.2436 13.6332C25.9118 13.6746 25.86 13.3843 26.1607 13.1665C28.1101 11.7978 31.3142 12.1918 31.6875 12.6481C32.0607 13.1147 31.5838 16.3188 29.7588 17.8534C29.4788 18.0919 29.2092 17.9675 29.3337 17.6564C29.7484 16.6298 30.6713 14.3175 30.2358 13.7679Z" fill="#0053A4"/>
</svg>
