<svg width="32" height="9" viewBox="0 0 32 9" fill="none" xmlns="http://www.w3.org/2000/svg">
<path fillRule="evenodd" clipRule="evenodd" d="M14.4373 8.40181H16.2967V0.984174L14.4373 0.984174V8.40181Z" fill="#0053A4"/>
<path fillRule="evenodd" clipRule="evenodd" d="M20.9138 6.83964C22.0953 6.83964 22.9634 5.82727 22.9634 4.69081C22.9634 3.55426 22.0905 2.55151 20.9138 2.55151C19.7322 2.55151 18.8593 3.55426 18.8593 4.69081C18.8593 5.82727 19.7322 6.83964 20.9138 6.83964ZM20.9282 0.74646C23.1563 0.74646 24.9504 2.456 24.9504 4.67648C24.9504 6.90649 23.1419 8.6494 20.9089 8.6494C18.676 8.6494 16.8675 6.93039 16.8675 4.70515C16.8675 2.48461 18.7002 0.74646 20.9282 0.74646ZM25.1642 6.15857L26.8703 5.75723C26.9928 6.64851 27.6479 6.97054 28.336 6.97054C29.0194 6.97054 29.2692 6.5692 29.2692 6.25654C29.2692 6.00455 29.123 5.75723 28.6235 5.65926L27.5819 5.45856C26.3377 5.22061 25.4565 4.44594 25.4565 3.25599C25.4565 1.83741 26.7618 0.838784 28.237 0.838784C30.1363 0.838784 30.9186 2.01475 31.0553 2.99939L29.3822 3.46601C29.2927 2.85936 28.9157 2.42076 28.2276 2.42076C27.6337 2.42076 27.351 2.81273 27.351 3.11135C27.351 3.35867 27.4688 3.64335 27.9118 3.72733L28.9958 3.93264C30.4144 4.20333 31.192 5.06193 31.192 6.17722C31.192 7.39054 30.1363 8.55713 28.3266 8.55713C26.432 8.55713 25.414 7.57249 25.1642 6.15857Z" fill="#0053A4"/>
<path fillRule="evenodd" clipRule="evenodd" d="M2.0159 8.40181H0.0148163L3.32375 0.984174H5.33441L2.0159 8.40181Z" fill="#59BCF5"/>
<path fillRule="evenodd" clipRule="evenodd" d="M11.4931 4.60894L13.9785 0.979597L11.7045 0.979597L10.364 3.17667L9.05446 0.979597L6.74961 0.979597L9.26751 4.60894L7.86645 6.6429L5.34231 0.983966H3.33145L6.65016 8.4018H8.79626L10.364 6.05035L11.9132 8.4018H14.0828L11.4931 4.60894Z" fill="#0053A4"/>
</svg>
