<svg width="26" height="28" viewBox="0 0 26 28" fill="none" xmlns="http://www.w3.org/2000/svg">
<path d="M16.2601 7.8093C13.8298 7.8093 11.4344 8.85267 9.60566 10.904V0.788147H5.98674V17.8188C5.98674 17.8192 5.98674 17.8196 5.98674 17.8201C5.98674 23.3488 10.4687 27.8307 15.9975 27.8307C21.5262 27.8307 26.0082 23.3488 26.0082 17.8201C26.0082 12.2913 21.7888 7.8093 16.2601 7.8093ZM15.9975 23.975C12.5981 23.975 9.84242 21.2193 9.84242 17.82C9.84242 14.4207 12.5981 11.665 15.9975 11.665C19.3967 11.665 22.1524 14.4207 22.1524 17.82C22.1524 21.2193 19.3967 23.975 15.9975 23.975Z" fill="#0053A4"/>
<path d="M3.35576 22.8797C1.98856 22.8797 0.88028 23.988 0.88028 25.3552C0.88028 26.7223 1.98856 27.8307 3.35576 27.8307C4.72297 27.8307 5.83125 26.7223 5.83125 25.3552C5.83125 23.988 4.72297 22.8797 3.35576 22.8797Z" fill="#59BCF5"/>
</svg>
