<svg width="33" height="22" viewBox="0 0 33 22" fill="none" xmlns="http://www.w3.org/2000/svg">
<path d="M26.5089 7.80992C25.8156 5.636 24.4528 3.73689 22.6154 2.38404C20.7779 1.03118 18.5597 0.29384 16.278 0.277396C14.3488 0.266334 12.4532 0.781118 10.7946 1.76644C9.13602 2.75176 7.77728 4.17037 6.86434 5.86985C5.18645 6.17054 3.64832 6.99887 2.47382 8.23429C1.29931 9.4697 0.549731 11.0477 0.33418 12.7386C0.118628 14.4296 0.448354 16.1452 1.27537 17.6357C2.10238 19.1263 3.38351 20.314 4.9323 21.026L5.13328 21.1171H5.14668V18.8394C4.0842 18.1872 3.25244 17.2189 2.76795 16.0702C2.28346 14.9215 2.17055 13.65 2.44502 12.434C2.7195 11.2179 3.36761 10.1181 4.29852 9.28892C5.22943 8.45969 6.39647 7.94253 7.63608 7.80992L8.19881 7.75097L8.44534 7.24451C9.14531 5.76107 10.2542 4.50829 11.6418 3.63344C13.0293 2.75858 14.6377 2.29803 16.278 2.3059C18.2325 2.31969 20.1262 2.98654 21.6581 4.20041C23.19 5.41427 24.2721 7.10547 24.7323 9.00505L24.9252 9.77143H25.7291C27.0251 9.79801 28.2593 10.3303 29.168 11.2546C30.0768 12.1789 30.5881 13.4219 30.5927 14.7181C30.5927 16.6073 29.5021 18.1534 27.6451 18.9359V21.0957L27.7791 21.0528C30.7642 20.0747 32.6186 17.647 32.6186 14.7181C32.6063 13.0229 31.9808 11.3894 30.8577 10.1196C29.7347 8.84973 28.1899 8.02931 26.5089 7.80992Z" fill="#0053A4"/>
<path d="M12.3494 20.8546L12.7943 21.2994C12.8063 21.3118 12.8144 21.3274 12.8177 21.3443C12.821 21.3612 12.8192 21.3787 12.8127 21.3947C12.8061 21.4106 12.795 21.4243 12.7808 21.434C12.7666 21.4438 12.7499 21.4491 12.7326 21.4495H9.22227C8.79585 21.4495 8.3869 21.2801 8.08538 20.9786C7.78386 20.677 7.61447 20.2681 7.61447 19.8417L7.61447 13.0246C7.61447 13.0012 7.60515 12.9787 7.58857 12.9621C7.57199 12.9455 7.54949 12.9362 7.52604 12.9362H6.77574C6.75828 12.9364 6.74116 12.9314 6.72653 12.9218C6.71191 12.9123 6.70043 12.8987 6.69355 12.8826C6.68668 12.8666 6.6847 12.8488 6.68788 12.8317C6.69106 12.8145 6.69925 12.7987 6.71142 12.7861L9.69121 9.80635C9.69943 9.79801 9.70924 9.79138 9.72005 9.78686C9.73086 9.78234 9.74246 9.78001 9.75418 9.78001C9.7659 9.78001 9.7775 9.78234 9.78831 9.78686C9.79912 9.79138 9.80892 9.79801 9.81715 9.80635L12.7943 12.7861C12.8063 12.7985 12.8144 12.8141 12.8177 12.831C12.821 12.8479 12.8192 12.8654 12.8127 12.8814C12.8061 12.8973 12.795 12.911 12.7808 12.9207C12.7666 12.9305 12.7499 12.9359 12.7326 12.9362H11.9716C11.9479 12.9362 11.9251 12.9454 11.9081 12.9619C11.8911 12.9784 11.8812 13.0009 11.8805 13.0246V19.7238C11.8816 20.1478 12.0501 20.5542 12.3494 20.8546ZM18.9334 20.8546L19.3809 21.2994C19.393 21.3119 19.4012 21.3278 19.4044 21.3449C19.4076 21.3621 19.4056 21.3798 19.3987 21.3959C19.3919 21.4119 19.3804 21.4256 19.3658 21.4351C19.3511 21.4447 19.334 21.4497 19.3165 21.4495H15.8142C15.3878 21.4495 14.9789 21.2801 14.6773 20.9786C14.3758 20.677 14.2064 20.2681 14.2064 19.8417V14.7476C14.2064 14.7239 14.1972 14.7012 14.1807 14.6842C14.1642 14.6671 14.1417 14.6572 14.118 14.6565H13.3597C13.3424 14.6562 13.3257 14.6508 13.3115 14.6411C13.2972 14.6313 13.2862 14.6177 13.2796 14.6017C13.2731 14.5858 13.2713 14.5683 13.2746 14.5514C13.2779 14.5344 13.286 14.5188 13.298 14.5065L16.2751 11.5321C16.2834 11.5237 16.2932 11.5171 16.304 11.5126C16.3148 11.508 16.3264 11.5057 16.3381 11.5057C16.3498 11.5057 16.3614 11.508 16.3722 11.5126C16.383 11.5171 16.3928 11.5237 16.4011 11.5321L19.3809 14.5011C19.393 14.5136 19.4012 14.5295 19.4044 14.5466C19.4076 14.5638 19.4056 14.5815 19.3987 14.5976C19.3919 14.6136 19.3804 14.6273 19.3658 14.6368C19.3511 14.6464 19.334 14.6514 19.3165 14.6512H18.5555C18.5318 14.6519 18.5093 14.6618 18.4928 14.6788C18.4763 14.6958 18.4671 14.7186 18.4671 14.7423V19.7238C18.4675 20.1474 18.635 20.5538 18.9334 20.8546ZM25.52 20.8546L25.9648 21.2994C25.9768 21.3118 25.9849 21.3274 25.9882 21.3443C25.9915 21.3612 25.9897 21.3787 25.9832 21.3947C25.9766 21.4106 25.9656 21.4243 25.9514 21.434C25.9371 21.4438 25.9204 21.4491 25.9032 21.4495H22.3901C21.9637 21.4495 21.5548 21.2801 21.2532 20.9786C20.9517 20.677 20.7823 20.2681 20.7823 19.8417V16.4573C20.7823 16.4338 20.773 16.4113 20.7564 16.3947C20.7398 16.3782 20.7173 16.3688 20.6939 16.3688H19.9436C19.9258 16.369 19.9084 16.3639 19.8936 16.354C19.8788 16.3441 19.8673 16.33 19.8606 16.3135C19.854 16.297 19.8525 16.2789 19.8563 16.2615C19.8601 16.2441 19.869 16.2283 19.882 16.2161L22.8617 13.239C22.8697 13.2307 22.8793 13.2242 22.8899 13.2197C22.9005 13.2152 22.9119 13.2129 22.9234 13.2129C22.9349 13.2129 22.9463 13.2152 22.9568 13.2197C22.9674 13.2242 22.977 13.2307 22.985 13.239L25.9648 16.2161C25.9777 16.2283 25.9867 16.2441 25.9905 16.2615C25.9943 16.2789 25.9928 16.297 25.9861 16.3135C25.9794 16.33 25.968 16.3441 25.9532 16.354C25.9384 16.3639 25.9209 16.369 25.9032 16.3688H25.1395C25.116 16.3688 25.0935 16.3782 25.0769 16.3947C25.0603 16.4113 25.051 16.4338 25.051 16.4573V19.7238C25.0521 20.1478 25.2206 20.5542 25.52 20.8546Z" fill="#0053A4"/>
</svg>
