<svg width="20" height="29" viewBox="0 0 20 29" fill="none" xmlns="http://www.w3.org/2000/svg">
<path d="M19.8654 6.20887L18.1074 25.9025L10.2053 28.0933L2.32496 25.9056L0.568863 6.20887H19.8654Z" fill="#002072"/>
<path d="M16.6024 24.6485L18.1047 7.81937H10.2171L10.2171 26.4188L16.6024 24.6485Z" fill="#0053A4"/>
<path d="M4.59469 15.1246L4.8112 17.5403H10.2171V15.1246H4.59469Z" fill="#E7F5FE"/>
<path d="M10.2171 10.2351H10.2088H4.15964L4.37924 12.6509H10.2171L10.2171 10.2351Z" fill="#E7F5FE"/>
<path d="M10.2171 23.9119V21.3985L10.2065 21.4013L7.51614 20.6749L7.34415 18.7482H4.91914L5.25758 22.5412L10.206 23.915L10.2171 23.9119Z" fill="#E7F5FE"/>
<path d="M5.11017 0.85614H8.03603V2.07968H6.33371V3.30322H8.03603V4.52677H5.11017V0.85614Z" fill="#0053A4"/>
<path d="M8.62121 0.85614H11.5471V1.92009H9.84475V2.13288H11.5471V4.57996H8.62121V3.46282H10.3235V3.25003H8.62121V0.85614Z" fill="#0053A4"/>
<path d="M12.1322 0.85614H15.0581V1.92009H13.3558V2.13288H15.0581V4.57996H12.1322V3.46282H13.8346V3.25003H12.1322V0.85614Z" fill="#0053A4"/>
<path d="M13.1835 17.5403L12.9031 20.6733L10.2088 21.4005V23.9138L15.1611 22.5412L15.7651 15.7733L15.8241 15.1246L16.2602 10.2351H10.2088L10.2088 12.6509H13.6128L13.393 15.1246H10.2088V17.5403H13.1835Z" fill="#E7F5FE"/>
</svg>
