<svg width="27" height="28" viewBox="0 0 27 28" fill="none" xmlns="http://www.w3.org/2000/svg">
<path d="M0.903204 17.8919C0.584379 16.7308 0.422058 15.5248 0.422058 14.3102C0.422058 8.76525 3.9045 3.69521 9.0883 1.69587L9.76797 3.45489C5.30587 5.17627 2.30893 9.53833 2.30893 14.3102C2.30893 15.3569 2.44804 16.3934 2.72195 17.3924L0.903204 17.8919Z" fill="#0053A4"/>
<path d="M24.3383 8.95349C22.321 5.08073 18.3502 2.67457 13.9779 2.67457C12.4287 2.67457 10.923 2.9728 9.50571 3.55914L8.78255 1.81749C10.4303 1.13561 12.178 0.788147 13.9779 0.788147C19.0574 0.788147 23.6688 3.58231 26.0121 8.08192L24.3383 8.95349Z" fill="url(#paint0_linear_72_1533)"/>
<path d="M9.93036 11.5203C11.0245 11.5203 11.9157 12.1038 12.3737 13.1215L12.4099 13.2012L14.2475 12.5772L14.2084 12.4831C13.4968 10.7501 11.8578 9.67299 9.93036 9.67299C8.5753 9.67299 7.47394 10.1074 6.56384 10.9992C5.65952 11.8852 5.20158 13 5.20158 14.313C5.20158 15.6146 5.65952 16.7236 6.56384 17.6096C7.47394 18.5014 8.5753 18.9358 9.93036 18.9358C11.8578 18.9358 13.4968 17.8586 14.2084 16.1271L14.2475 16.033L12.407 15.4075L12.3723 15.4901C11.9621 16.4905 11.0491 17.0884 9.93036 17.0884C9.16804 17.0884 8.5246 16.822 8.01445 16.2979C7.49856 15.7666 7.23771 15.0992 7.23771 14.3145C7.23771 13.524 7.49276 12.8697 8.01445 12.3137C8.52313 11.7868 9.16804 11.5203 9.93036 11.5203Z" fill="#0053A4"/>
<path d="M21.4398 9.84385L18.8212 16.4702L16.1851 9.84385H14.0286L17.7255 18.888L15.0953 25.2667L16.9807 25.6417L23.4774 9.84385H21.4398Z" fill="#0053A4"/>
<path d="M15.4326 24.4444L14.9732 25.5563C14.8819 25.7764 14.6732 25.9255 14.4385 25.9356C14.2834 25.9414 14.1269 25.9458 13.9689 25.9458C8.56193 25.9429 3.77812 22.1309 2.59266 16.8785L0.752168 17.294C1.41735 20.2402 3.08685 22.9142 5.45339 24.8252C7.8475 26.7579 10.8633 27.8249 13.9486 27.8307C13.953 27.8307 13.9761 27.8307 13.9761 27.8307C14.1573 27.8307 14.337 27.8264 14.5167 27.8192C15.4848 27.7786 16.35 27.172 16.7195 26.273L17.3194 24.8194L15.4326 24.4444Z" fill="url(#paint1_linear_72_1533)"/>
<defs>
<linearGradient id="paint0_linear_72_1533" x1="6.04345" y1="-2.10287" x2="32.6689" y2="10.6592" gradientUnits="userSpaceOnUse">
<stop offset="0.0939" stopColor="#0053A4"/>
<stop offset="0.9883" stopColor="#0053A4" stopOpacity="0"/>
</linearGradient>
<linearGradient id="paint1_linear_72_1533" x1="0.277596" y1="20.4625" x2="19.9367" y2="25.695" gradientUnits="userSpaceOnUse">
<stop offset="0.0774" stopColor="#0053A4"/>
<stop offset="0.7617" stopColor="#00003F"/>
</linearGradient>
</defs>
</svg>
