<svg width="28" height="28" viewBox="0 0 28 28" fill="none" xmlns="http://www.w3.org/2000/svg">
<path d="M6.10956 5.90859L6.10956 18.6021L6.13435 19.1971C6.13435 19.4698 6.18394 19.7921 6.28311 20.1144L20.2162 25.0232L23.6871 23.4861L6.10956 5.90859Z" fill="#0F82EB"/>
<path d="M23.6871 23.4861L20.2162 25.0232L6.30785 20.1144C6.58056 21.1308 7.15078 22.2713 7.79537 22.9159L12.3323 27.428L22.4474 27.4528L23.6871 23.4861Z" fill="#0053A4"/>
<path d="M6.15913 5.90859L0.754482 14.0899C0.308227 14.561 0.531355 15.5527 1.25032 16.2964L4.37411 19.445L6.33267 20.1392C6.2583 19.8169 6.18392 19.4946 6.18392 19.2219L6.15913 18.6269L6.15913 5.90859Z" fill="#0053A4"/>
<path d="M20.3154 6.05734C19.9931 5.98297 19.6708 5.93338 19.3981 5.90859L18.7783 5.8838L6.10956 5.8838L23.6871 23.4613L25.2242 19.9904L20.3154 6.05734Z" fill="#0053A4"/>
<path d="M23.1168 7.54486C22.4723 6.90027 21.3566 6.30526 20.3154 6.05734L25.2242 19.9904L23.6871 23.4613L27.4554 22.2465V11.9082L23.1168 7.54486Z" fill="#59BCF5"/>
<path d="M19.6212 4.12356L16.4726 0.999777C15.7536 0.28081 14.7619 0.0576824 14.2661 0.503938L6.08475 5.90859L18.7534 5.90859L19.3732 5.93338C19.646 5.93338 19.9682 5.98296 20.2905 6.08213L19.6212 4.12356Z" fill="#0F82EB"/>
</svg>
