<svg width="32" height="12" viewBox="0 0 32 12" fill="none" xmlns="http://www.w3.org/2000/svg">
<path d="M30.6159 0.204834H1.49989C0.932343 0.204834 0.47226 0.698556 0.47226 1.30759V10.8648C0.47226 11.4739 0.932343 11.9676 1.49989 11.9676H30.6159C31.1835 11.9676 31.6436 11.4739 31.6436 10.8648V1.30759C31.6436 0.698556 31.1835 0.204834 30.6159 0.204834Z" fill="#0053A4"/>
<path d="M9.37835 3.14552V4.87926H8.90276V3.99111L7.40631 5.54974L7.07005 5.1995L8.5665 3.64087H7.71377V3.14552H9.37835ZM5.21971 3.14552V3.64087H4.36699L5.86344 5.1995L5.52718 5.54974L4.03073 3.99111V4.87926H3.55514V3.14552H5.21971ZM7.40631 6.80649L8.90276 8.36511V7.47695H9.37835V9.2107H7.71377V8.71534H8.5665L7.07005 7.15672L7.40631 6.80649ZM7.08792 5.16725L7.43728 5.51107L4.37357 8.70991H5.23321V9.2107H3.55514V7.45795H4.03459V8.35584L7.08792 5.16725Z" fill="#E7F5FE"/>
<path d="M14.3692 3.8807H15.032V7.74035H14.3692V7.41504C14.1739 7.68338 13.8965 7.81755 13.5368 7.81755C13.1908 7.81755 12.8954 7.67695 12.6505 7.39574C12.4056 7.11454 12.2831 6.76993 12.2831 6.3619C12.2831 5.95388 12.4056 5.60927 12.6505 5.32807C12.8954 5.04686 13.1908 4.90626 13.5368 4.90626C13.8965 4.90626 14.1739 5.04043 14.3692 5.30877V3.8807ZM13.1463 6.92431C13.2833 7.06767 13.4546 7.13935 13.6601 7.13935C13.8656 7.13935 14.0352 7.06675 14.1688 6.92155C14.3024 6.77636 14.3692 6.58981 14.3692 6.3619C14.3692 6.134 14.3024 5.94745 14.1688 5.80225C14.0352 5.65706 13.8656 5.58446 13.6601 5.58446C13.4546 5.58446 13.2842 5.65706 13.1489 5.80225C13.0136 5.94745 12.9459 6.134 12.9459 6.3619C12.9459 6.58981 13.0127 6.77728 13.1463 6.92431ZM17.0667 4.90626C17.3476 4.90626 17.5797 5.00735 17.7629 5.20952C17.9462 5.4117 18.0378 5.69106 18.0378 6.04762V7.74035H17.375V6.13584C17.375 5.95204 17.3287 5.81144 17.2363 5.71403C17.1438 5.61662 17.0205 5.56792 16.8663 5.56792C16.695 5.56792 16.558 5.62489 16.4553 5.73885C16.3525 5.8528 16.3011 6.02372 16.3011 6.25163V7.74035H15.6383V4.98346H16.3011V5.29223C16.4621 5.03492 16.7173 4.90626 17.0667 4.90626ZM20.5504 3.8807H21.2132V7.74035H20.5504V7.41504C20.3551 7.68338 20.0776 7.81755 19.718 7.81755C19.372 7.81755 19.0766 7.67695 18.8316 7.39574C18.5867 7.11454 18.4643 6.76993 18.4643 6.3619C18.4643 5.95388 18.5867 5.60927 18.8316 5.32807C19.0766 5.04686 19.372 4.90626 19.718 4.90626C20.0776 4.90626 20.3551 5.04043 20.5504 5.30877V3.8807ZM19.3275 6.92431C19.4645 7.06767 19.6358 7.13935 19.8413 7.13935C20.0468 7.13935 20.2164 7.06675 20.35 6.92155C20.4836 6.77636 20.5504 6.58981 20.5504 6.3619C20.5504 6.134 20.4836 5.94745 20.35 5.80225C20.2164 5.65706 20.0468 5.58446 19.8413 5.58446C19.6358 5.58446 19.4654 5.65706 19.33 5.80225C19.1947 5.94745 19.1271 6.134 19.1271 6.3619C19.1271 6.58981 19.1939 6.77728 19.3275 6.92431ZM25.4727 7.74035H24.702L23.7668 6.48872V7.74035H23.104V3.8807H23.7668V6.19649L24.6506 4.98346H25.4419L24.4091 6.34536L25.4727 7.74035ZM26.1304 4.65263C26.0207 4.65263 25.9257 4.60944 25.8452 4.52305C25.7647 4.43667 25.7244 4.33467 25.7244 4.21704C25.7244 4.09941 25.7647 3.99649 25.8452 3.90827C25.9257 3.82004 26.0207 3.77594 26.1304 3.77594C26.2434 3.77594 26.3402 3.82004 26.4207 3.90827C26.5012 3.99649 26.5414 4.09941 26.5414 4.21704C26.5414 4.33467 26.5012 4.43667 26.4207 4.52305C26.3402 4.60944 26.2434 4.65263 26.1304 4.65263ZM25.8015 7.74035V4.98346H26.4643V7.74035H25.8015ZM28.5401 5.66717H27.9595V6.81404C27.9595 6.90961 27.9818 6.97945 28.0263 7.02356C28.0709 7.06767 28.1359 7.09248 28.2216 7.098C28.3072 7.10351 28.4134 7.10259 28.5401 7.09524V7.74035C28.0846 7.79549 27.7634 7.74954 27.5767 7.60251C27.3901 7.45547 27.2967 7.19265 27.2967 6.81404V5.66717H26.8497V4.98346H27.2967V4.42656L27.9595 4.21152V4.98346H28.5401V5.66717Z" fill="#E7F5FE"/>
</svg>
