<svg width="30" height="26" viewBox="0 0 30 26" fill="none" xmlns="http://www.w3.org/2000/svg">
<path d="M14.0876 9.95258C14.3211 9.61209 14.5756 9.56907 14.7821 9.56907C14.9886 9.56907 15.3315 9.61209 15.5651 9.95258C17.3966 12.4479 20.4205 17.42 22.6515 21.0892C24.1069 23.48 25.2242 25.3177 25.4541 25.5512C26.3145 26.4289 27.4946 25.8819 28.1804 24.8862C28.8553 23.9066 29.0421 23.2182 29.0421 22.4844C29.0421 21.9841 19.2601 3.9393 18.2755 2.4372C17.329 0.992882 17.0192 0.627808 15.3991 0.627808H14.1847C12.5683 0.627808 12.3347 0.992882 11.387 2.4372C10.4024 3.9393 0.619141 21.9841 0.619141 22.4831C0.619141 23.2182 0.80721 23.9066 1.48327 24.8862C2.16917 25.8819 3.34921 26.4289 4.20966 25.55C4.43829 25.3165 5.55564 23.48 7.01102 21.088C9.24204 17.42 12.2561 12.4479 14.0888 9.95135L14.0876 9.95258Z" fill="#0053A4"/>
</svg>
