<svg width="19" height="28" viewBox="0 0 19 28" fill="none" xmlns="http://www.w3.org/2000/svg">
<path d="M9.60349 13.9206C9.60349 12.7299 10.0727 11.5879 10.9079 10.746C11.743 9.90398 12.8758 9.43097 14.0569 9.43097C15.238 9.43097 16.3708 9.90398 17.2059 10.746C18.0411 11.5879 18.5103 12.7299 18.5103 13.9206C18.5103 15.1113 18.0411 16.2533 17.2059 17.0952C16.3708 17.9372 15.238 18.4102 14.0569 18.4102C12.8758 18.4102 11.743 17.9372 10.9079 17.0952C10.0727 16.2533 9.60349 15.1113 9.60349 13.9206Z" fill="#2AA9F2"/>
<path d="M0.696869 22.9004C0.696869 21.7097 1.16607 20.5677 2.00125 19.7257C2.83642 18.8838 3.96917 18.4108 5.15029 18.4108H9.60371V22.9004C9.60371 24.0911 9.13451 25.2331 8.29933 26.075C7.46415 26.917 6.33141 27.39 5.15029 27.39C3.96917 27.39 2.83642 26.917 2.00125 26.075C1.16607 25.2331 0.696869 24.0911 0.696869 22.9004Z" fill="#88CFF8"/>
<path d="M9.60349 0.452091V9.43134H14.0569C15.238 9.43134 16.3708 8.95833 17.2059 8.11636C18.0411 7.27439 18.5103 6.13244 18.5103 4.94172C18.5103 3.75099 18.0411 2.60904 17.2059 1.76707C16.3708 0.925104 15.238 0.452091 14.0569 0.452091L9.60349 0.452091Z" fill="#2AA9F2"/>
<path d="M0.697085 4.94153C0.697085 6.13225 1.16628 7.27421 2.00146 8.11618C2.83664 8.95814 3.96938 9.43116 5.15051 9.43116H9.60392V0.451904L5.15051 0.451904C3.96938 0.451904 2.83664 0.924917 2.00146 1.76689C1.16628 2.60885 0.697085 3.75081 0.697085 4.94153Z" fill="#002072"/>
<path d="M0.696869 13.9206C0.696869 15.1113 1.16607 16.2533 2.00125 17.0952C2.83642 17.9372 3.96917 18.4102 5.15029 18.4102H9.60371L9.60392 9.43116H5.15051C3.96938 9.43116 2.83642 9.90398 2.00125 10.746C1.16607 11.5879 0.696869 12.7299 0.696869 13.9206Z" fill="#0085D7"/>
</svg>
