<svg width="28" height="27" viewBox="0 0 28 27" fill="none" xmlns="http://www.w3.org/2000/svg">
<path d="M13.9899 0.121948C6.52327 0.121948 0.468593 6.17556 0.468593 13.6433C0.468593 19.6175 4.34286 24.6858 9.71534 26.4738C10.3911 26.5989 10.6392 26.1804 10.6392 25.8233C10.6392 25.5009 10.6266 24.4357 10.6209 23.3058C6.85911 24.1238 6.06536 21.7105 6.06536 21.7105C5.4503 20.1476 4.56407 19.7321 4.56407 19.7321C3.33734 18.8929 4.65655 18.91 4.65655 18.91C6.01435 19.0055 6.72931 20.3035 6.72931 20.3035C7.93526 22.3706 9.89244 21.773 10.664 21.4276C10.7853 20.5535 11.1358 19.9571 11.5225 19.6195C8.51926 19.2775 5.36207 18.1181 5.36207 12.9371C5.36207 11.461 5.89028 10.2547 6.75529 9.30783C6.61489 8.96721 6.15211 7.59201 6.88626 5.72953C6.88626 5.72953 8.02169 5.36612 10.6056 7.11555C11.6841 6.81586 12.8408 6.6657 13.9899 6.66061C15.139 6.6657 16.2966 6.81586 17.3772 7.11555C19.9581 5.36612 21.0919 5.72953 21.0919 5.72953C21.8279 7.59201 21.3649 8.96721 21.2245 9.30783C22.0914 10.2547 22.616 11.4609 22.616 12.9371C22.616 18.1304 19.4529 19.274 16.442 19.6087C16.927 20.0283 17.3591 20.8512 17.3591 22.1126C17.3591 23.9218 17.3434 25.3779 17.3434 25.8233C17.3434 26.1831 17.5868 26.6047 18.2723 26.4719C23.6418 24.682 27.5112 19.6155 27.5112 13.6433C27.5112 6.17556 21.4573 0.121948 13.9899 0.121948Z" fill="#0053A4"/>
<path d="M5.53276 19.3834C5.50307 19.4506 5.39723 19.4707 5.30105 19.4247C5.20296 19.3806 5.14781 19.289 5.17963 19.2215C5.20879 19.1524 5.31462 19.1331 5.4125 19.1795C5.51081 19.2235 5.5668 19.316 5.53276 19.3834ZM6.19788 19.9769C6.1334 20.0367 6.00732 20.0089 5.92174 19.9144C5.83329 19.8201 5.81675 19.6942 5.88218 19.6334C5.94867 19.5737 6.07094 19.6016 6.1596 19.696C6.24804 19.7913 6.26533 19.9164 6.19788 19.9769ZM6.65419 20.7362C6.57127 20.7937 6.43574 20.7398 6.35207 20.6195C6.26925 20.4994 6.26925 20.3551 6.35387 20.2973C6.43786 20.2396 6.57127 20.2915 6.6561 20.4108C6.73882 20.5331 6.73893 20.6772 6.65419 20.7362ZM7.42578 21.6156C7.35166 21.6973 7.19386 21.6754 7.07827 21.5639C6.96014 21.4548 6.92716 21.3001 7.00149 21.2184C7.07647 21.1365 7.23522 21.1595 7.35166 21.2701C7.46905 21.3789 7.50479 21.5348 7.42578 21.6156ZM8.42304 21.9125C8.39048 22.0184 8.23841 22.0665 8.08528 22.0215C7.93236 21.9752 7.83226 21.8511 7.86312 21.7441C7.89493 21.6376 8.04764 21.5874 8.20193 21.6355C8.35464 21.6817 8.45485 21.8048 8.42304 21.9125ZM9.55815 22.0384C9.56197 22.15 9.43206 22.2424 9.2713 22.2445C9.10958 22.248 8.97882 22.1577 8.97713 22.0481C8.97713 21.9354 9.10406 21.8438 9.26568 21.8412C9.42644 21.838 9.55815 21.9276 9.55815 22.0384ZM10.6731 21.9957C10.6924 22.1045 10.5806 22.2162 10.421 22.2459C10.2641 22.2746 10.1188 22.2074 10.0988 22.0996C10.0793 21.988 10.1932 21.8764 10.3498 21.8474C10.5097 21.8196 10.6528 21.8851 10.6731 21.9957Z" fill="#0053A4"/>
</svg>
