<svg width="32" height="13" viewBox="0 0 32 13" fill="none" xmlns="http://www.w3.org/2000/svg">
<path d="M2.59476 4.40074C2.53404 4.40074 2.51887 4.37038 2.54922 4.32484L2.868 3.91499C2.89836 3.86945 2.97426 3.83909 3.03497 3.83909L8.45412 3.83909C8.51484 3.83909 8.53002 3.88463 8.49966 3.93017L8.24161 4.32484C8.21125 4.37038 8.13535 4.41592 8.08981 4.41592L2.59476 4.40074ZM0.302632 5.79727C0.241913 5.79727 0.226733 5.76691 0.257093 5.72137L0.575866 5.31152C0.606225 5.26598 0.682124 5.23562 0.742842 5.23562H7.66478C7.7255 5.23562 7.75586 5.28116 7.74068 5.3267L7.61924 5.69101C7.60406 5.75173 7.54334 5.78209 7.48262 5.78209L0.302632 5.79727ZM3.97611 7.1938C3.9154 7.1938 3.90022 7.14826 3.93058 7.10272L4.14309 6.72323C4.17345 6.67769 4.23417 6.63215 4.29489 6.63215H7.33082C7.39154 6.63215 7.4219 6.67769 7.4219 6.73841L7.39154 7.10272C7.39154 7.16344 7.33082 7.20898 7.28529 7.20898L3.97611 7.1938ZM19.7326 4.1275C18.7763 4.37038 18.1236 4.55253 17.1824 4.79541C16.9547 4.85613 16.9396 4.87131 16.7422 4.64361C16.5145 4.38556 16.3476 4.21858 16.0288 4.06678C15.0725 3.59621 14.1465 3.73283 13.2813 4.29448C12.249 4.96238 11.7178 5.94906 11.7329 7.17862C11.7481 8.39299 12.583 9.39485 13.7822 9.56183C14.8144 9.69844 15.6796 9.33413 16.3627 8.55997C16.4994 8.39299 16.6208 8.21084 16.7726 7.99832H13.8429C13.5241 7.99832 13.4482 7.80099 13.5545 7.54293C13.7518 7.07236 14.1161 6.28302 14.3287 5.88835C14.3742 5.79727 14.4805 5.64547 14.7082 5.64547H20.2336C20.2032 6.05532 20.2032 6.46517 20.1425 6.87502C19.9755 7.96796 19.5656 8.96982 18.8977 9.85024C17.8048 11.2923 16.3779 12.1879 14.5715 12.4308C13.0839 12.6281 11.7026 12.3397 10.4882 11.4289C9.3649 10.5789 8.72736 9.45557 8.56038 8.05904C8.36304 6.40445 8.84879 4.91685 9.85065 3.61139C10.9284 2.19968 12.3553 1.30408 14.101 0.985309C15.5279 0.727254 16.894 0.894231 18.1236 1.72911C18.9281 2.2604 19.5049 2.98903 19.8844 3.86945C19.9755 4.00606 19.9148 4.08196 19.7326 4.1275Z" fill="#0053A4"/>
<path d="M24.7571 12.5219C23.3757 12.4915 22.1158 12.0969 21.0533 11.1861C20.1577 10.4119 19.596 9.42523 19.4139 8.2564C19.1406 6.5411 19.6112 5.02313 20.6434 3.67214C21.7515 2.21489 23.0873 1.4559 24.8937 1.13713C26.442 0.863897 27.8993 1.01569 29.2199 1.91129C30.4191 2.731 31.1629 3.83911 31.3602 5.29636C31.6183 7.34562 31.0263 9.01538 29.6146 10.4423C28.6127 11.4593 27.3832 12.0969 25.9715 12.3853C25.5616 12.4612 25.1518 12.4763 24.7571 12.5219ZM28.3699 6.3893C28.3547 6.19196 28.3547 6.04017 28.3243 5.88837C28.0511 4.38558 26.6697 3.53552 25.2277 3.86947C23.816 4.18825 22.9052 5.08385 22.5712 6.51074C22.298 7.69475 22.8748 8.89395 23.9678 9.37969C24.8026 9.74401 25.6375 9.69847 26.442 9.28862C27.6412 8.66625 28.294 7.69475 28.3699 6.3893Z" fill="#0053A4"/>
</svg>
