<svg width="28" height="28" viewBox="0 0 28 28" fill="none" xmlns="http://www.w3.org/2000/svg">
<path d="M27.3087 13.9982C27.3087 12.8865 27.2185 12.0752 27.0233 11.2339H14.3283V16.2517H21.78C21.6298 17.4987 20.8185 19.3767 19.0156 20.6386L18.9904 20.8066L23.0043 23.9161L23.2824 23.9439C25.8364 21.5851 27.3087 18.1147 27.3087 13.9982Z" fill="#0F82EB"/>
<path d="M14.3283 27.219C17.979 27.219 21.0438 26.0171 23.2824 23.9439L19.0156 20.6386C17.8739 21.4349 16.3414 21.9907 14.3283 21.9907C10.7527 21.9907 7.71794 19.6321 6.63613 16.372L6.47756 16.3854L2.30383 19.6155L2.24924 19.7673C4.47272 24.1842 9.03993 27.219 14.3283 27.219Z" fill="#0085D7"/>
<path d="M6.63613 16.372C6.35069 15.5307 6.18549 14.6292 6.18549 13.6977C6.18549 12.7662 6.35069 11.8648 6.62111 11.0235L6.61355 10.8443L2.38751 7.56236L2.24924 7.62813C1.33284 9.46104 0.807007 11.5193 0.807007 13.6977C0.807007 15.8762 1.33284 17.9343 2.24924 19.7673L6.63613 16.372Z" fill="#0053A4"/>
<path d="M14.3283 5.40465C16.8673 5.40465 18.5799 6.50137 19.5565 7.41788L23.3725 3.69199C21.0289 1.51356 17.979 0.176453 14.3283 0.176453C9.03993 0.176453 4.47272 3.21121 2.24924 7.62813L6.62111 11.0235C7.71794 7.76339 10.7527 5.40465 14.3283 5.40465Z" fill="#002072"/>
</svg>
