<svg width="21" height="29" viewBox="0 0 21 29" fill="none" xmlns="http://www.w3.org/2000/svg">
<path d="M18.4939 25.9031L10.592 28.0933L2.71126 25.9051L0.955269 6.20906L20.2518 6.20906" fill="#0053A4"/>
<path d="M18.492 7.8184L10.6035 7.8184L10.6035 26.4183L16.9888 24.6489" fill="#00003F"/>
<path d="M16.6472 10.2343H10.5958L10.5958 12.6503H16.4311M16.2131 15.1241H10.5958V23.9137L15.5493 22.5397M10.5958 17.54H13.5733L13.2935 20.6738L10.5958 21.4012" fill="#E7F5FE"/>
<path d="M5.19665 17.54H10.6016V15.1241H7.40418L7.1842 12.6503H10.6016L10.6016 10.2343H4.54443M5.6424 22.5417L10.5958 23.9137L10.6035 23.9117V21.3993L10.5958 21.4012L7.90203 20.6757L7.73029 18.748H5.30471" fill="#E7F5FE"/>
<path d="M5.1021 0.856201V2.06995H3.97904V0.856201M2.75178 0.856201V4.52834H3.97904L3.97904 3.29914H5.1021V4.52834H6.32936V0.856201M6.86194 0.856201V2.07381H7.94448V4.52834H9.17174V2.07381H10.2523V0.856201M13.6428 0.856201L12.8574 2.14714L12.0701 0.856201M10.7907 0.856201V4.52834H11.991V2.70867L12.8362 4.01505H12.8574L13.7026 2.70867V4.52834H14.924V0.856201M15.5357 0.856201V4.52834H18.49V3.31458H16.763V0.856201" fill="#0053A4"/>
</svg>
