<svg width="26" height="29" viewBox="0 0 26 29" fill="none" xmlns="http://www.w3.org/2000/svg">
<path d="M23.7495 14.2671C23.7495 12.8706 22.6173 11.7384 21.2208 11.7384C21.1309 11.7384 21.0423 11.7432 20.9549 11.7525L24.4282 1.5086L9.66819 1.5086L13.1366 11.7435C13.0854 11.7403 13.0342 11.7386 12.9829 11.7385C11.5863 11.7385 10.4541 12.8705 10.4541 14.2672C10.4541 15.3961 11.194 16.3518 12.215 16.677C11.6758 17.6111 10.9971 18.4525 10.2267 19.1794C9.179 20.1677 7.98 20.9172 6.6832 21.3789C5.13921 20.5858 4.41014 18.8218 5.06798 17.2752C5.14229 17.1005 5.21814 16.9235 5.29062 16.7473C6.40915 16.4862 7.24276 15.4835 7.24276 14.2853C7.24276 12.8887 6.11056 11.7566 4.71394 11.7566C3.31731 11.7566 2.18521 12.8887 2.18521 14.2853C2.18521 15.1418 2.61126 15.8983 3.26264 16.3557C2.63676 17.7807 1.71672 19.2721 1.43006 21.0006C1.08651 23.0721 1.42891 25.2711 3.22057 26.5129C7.39321 29.4049 11.9226 24.7201 16.6982 23.5424C18.4289 23.1157 20.3288 23.1844 21.8536 22.3013C22.9987 21.6381 23.7537 20.5389 23.9678 19.305C24.1796 18.0859 23.871 16.8722 23.1614 15.888C23.5421 15.4338 23.7504 14.8598 23.7495 14.2671Z" fill="#0053A4"/>
<path d="M23.3594 19.1993C23.1734 20.2706 22.5117 21.2063 21.5441 21.7669C20.6421 22.2893 19.5612 22.4452 18.4167 22.6102C17.8036 22.6986 17.1697 22.7901 16.5503 22.9428C14.9128 23.3466 13.3266 24.1344 11.7928 24.8963C8.72312 26.4211 6.07215 27.7377 3.57249 26.0052C1.74146 24.7363 1.82597 22.3883 2.03928 21.1017C2.237 19.9096 2.77152 18.8118 3.28834 17.7502C3.37639 17.5697 3.46373 17.389 3.55035 17.2078C3.81087 17.312 4.08424 17.3806 4.36307 17.4117C3.83692 19.1481 4.66436 21.0362 6.40097 21.9283L6.63873 22.0504L6.89035 21.9608C8.26329 21.4718 9.52842 20.6873 10.6505 19.6286C11.3758 18.9443 11.9995 18.1872 12.5121 17.3782C12.6679 17.4017 12.8253 17.4135 12.9829 17.4136C14.5768 17.4136 15.8967 16.222 16.101 14.683C16.7534 14.6591 17.4464 14.6589 18.1026 14.6828C18.3067 16.222 19.6268 17.4136 21.2207 17.4136C21.8872 17.4136 22.5054 17.2048 23.0147 16.85C23.3682 17.5737 23.5002 18.3881 23.3594 19.1993ZM4.71403 12.3742C5.76787 12.3742 6.62515 13.2316 6.62515 14.2854C6.62515 14.6639 6.51407 15.0169 6.32338 15.3141C6.00573 15.8096 5.46571 16.1492 4.84533 16.1915C4.80191 16.1944 4.75812 16.1966 4.71403 16.1966C4.47916 16.1966 4.2542 16.1537 4.04618 16.0759C3.62725 15.9184 3.27643 15.6196 3.05424 15.2311C2.88925 14.9432 2.80256 14.6172 2.80281 14.2854C2.80281 13.2316 3.66019 12.3742 4.71403 12.3742ZM11.0718 14.2672C11.0718 13.3097 11.7796 12.5147 12.6993 12.3773C12.7919 12.3633 12.8866 12.3561 12.983 12.3561C13.5957 12.3561 14.1412 12.6463 14.491 13.096C14.5786 13.2082 14.6534 13.3297 14.7141 13.4585C14.8329 13.7115 14.8943 13.9877 14.8941 14.2672C14.8941 14.42 14.8756 14.5685 14.8416 14.711C14.6554 15.4907 13.9905 16.0867 13.1758 16.1687C13.1124 16.1751 13.0481 16.1784 12.983 16.1784C12.6154 16.1787 12.2556 16.0723 11.9472 15.8722C11.4211 15.5313 11.0718 14.9394 11.0718 14.2672ZM19.0483 11.9946C18.6324 12.3915 18.3331 12.8948 18.1829 13.4497C17.4625 13.4231 16.7414 13.4231 16.0211 13.4497C15.8594 12.8498 15.5242 12.3206 15.0732 11.9186L17.0509 7.91982L19.0483 11.9946ZM10.5296 2.12638L23.5666 2.12638L20.4874 11.2079C20.3549 11.2397 20.2247 11.28 20.0975 11.3287L17.0557 5.12359L14.0052 11.2917C13.8723 11.246 13.7363 11.2094 13.5984 11.182L10.5296 2.12638ZM23.1318 14.2673C23.1318 14.4589 23.1032 14.6439 23.0506 14.8186C22.9257 15.2299 22.6662 15.5874 22.3139 15.8337C21.9937 16.0584 21.6119 16.1788 21.2207 16.1785C20.3383 16.1785 19.5939 15.5771 19.375 14.7628C19.3316 14.6012 19.3096 14.4346 19.3096 14.2673C19.3096 14.0061 19.3623 13.757 19.4576 13.53C19.5068 13.4138 19.5674 13.3029 19.6384 13.1987C19.9823 12.691 20.5627 12.3562 21.2207 12.3562C21.2811 12.3562 21.3406 12.3593 21.3996 12.3649C22.3698 12.4553 23.1318 13.2737 23.1318 14.2673ZM24.3671 14.2673C24.3671 12.7312 23.2603 11.4495 21.8026 11.1758L25.2897 0.890991L8.80677 0.890991L12.2992 11.1966C10.8921 11.5097 9.83664 12.7671 9.83664 14.2672C9.83664 15.3937 10.4319 16.383 11.324 16.939C10.8949 17.5783 10.3861 18.18 9.80295 18.7302C8.87809 19.6026 7.84784 20.2643 6.7371 20.6996C5.61829 19.9969 5.14536 18.6715 5.63648 17.5169L5.74718 17.2566C6.97602 16.828 7.86035 15.6585 7.86035 14.2854C7.86035 12.5505 6.4489 11.139 4.71403 11.139C2.97915 11.139 1.56752 12.5505 1.56752 14.2854C1.56752 15.1611 1.92752 15.9541 2.50681 16.5251C2.39877 16.754 2.2891 16.9821 2.1778 17.2095C1.64808 18.2973 1.04781 19.5303 0.820739 20.8996C0.369862 23.6189 1.09719 25.7927 2.86884 27.0205C3.94386 27.7655 5.03563 28.0585 6.13423 28.0585C8.20284 28.0585 10.2955 27.0192 12.3423 26.0025C13.8163 25.2705 15.3405 24.5134 16.8461 24.1421C17.4064 24.0039 17.9827 23.9208 18.593 23.8328C19.8033 23.6582 21.0547 23.4777 22.1632 22.8357C23.4481 22.0914 24.3277 20.843 24.5764 19.4106C24.7899 18.1809 24.533 16.9493 23.9063 15.9047C24.2083 15.4119 24.3678 14.8452 24.3671 14.2673Z" fill="#88CFF8"/>
</svg>
