<svg width="28" height="28" viewBox="0 0 28 28" fill="none" xmlns="http://www.w3.org/2000/svg">
<path d="M26.4494 0.399658L13.4271 0.399658C13.4271 1.95873 14.0464 3.45394 15.1488 4.55637C16.2513 5.6588 17.7465 6.27814 19.3056 6.27814H21.7044V8.59429C21.7065 11.8379 24.3354 14.4669 27.5791 14.4691V1.52935C27.5791 0.905613 27.0734 0.399658 26.4494 0.399658Z" fill="#0053A4"/>
<path d="M20.006 6.88823L6.98378 6.88823C6.98579 10.1319 9.61471 12.7609 12.8585 12.763H15.2573V15.0865C15.2615 18.3302 17.8922 20.9574 21.1358 20.9574V8.01813C21.1358 7.39418 20.63 6.88823 20.006 6.88823Z" fill="#0053A4"/>
<path d="M13.5588 13.373H0.536499C0.536499 16.6196 3.16848 19.2515 6.41498 19.2515H8.82136V21.5676C8.82348 24.8082 11.4478 27.4361 14.6886 27.4422V14.5028C14.6886 13.8789 14.1828 13.373 13.5588 13.373Z" fill="#0053A4"/>
</svg>
