<svg width="32" height="26" viewBox="0 0 32 26" fill="none" xmlns="http://www.w3.org/2000/svg">
<path d="M0.0314026 13.987L0.0314026 0.501587L11.7105 7.24431L11.7105 11.7395L3.92443 7.24431L3.92443 16.2346L0.0314026 13.987Z" fill="#0F82EB"/>
<path d="M11.7105 7.24431L23.3896 0.501587V13.987L15.6035 18.4822L11.7105 16.2346L19.4965 11.7395V7.24431L11.7105 11.7395L11.7105 7.24431Z" fill="#0053A4"/>
<path d="M11.7105 16.2346V20.7298L19.4965 25.2249L19.4965 20.7298L11.7105 16.2346Z" fill="#0F82EB"/>
<path d="M19.4965 25.2249L31.1756 18.4822V9.49188L27.2826 11.7395V16.2346L19.4965 20.7298L19.4965 25.2249ZM27.2826 7.24431V2.74916L31.1756 0.501587V4.99674L27.2826 7.24431Z" fill="#0053A4"/>
</svg>
