<svg width="32" height="14" viewBox="0 0 32 14" fill="none" xmlns="http://www.w3.org/2000/svg">
<path d="M17.4559 0.735043C17.0363 0.752569 16.3272 0.865234 16.3272 0.912803C16.3272 0.932582 16.827 1.18295 16.8653 1.18295C16.9003 1.18295 17.4804 1.47237 17.6093 1.55249C17.7776 1.66015 17.898 1.75779 17.8627 1.75779C17.8402 1.75779 17.2446 1.5272 17.0187 1.43031C16.835 1.35295 16.0711 1.12511 15.6993 1.03724C15.498 0.990166 15.4129 0.972641 15.0706 0.910049C14.5659 0.817914 13.9723 0.812406 13.7141 0.897281C13.3444 1.01746 13.2612 1.16517 13.2612 1.70997C13.2612 2.01041 13.276 2.13734 13.3414 2.40724C13.3699 2.52466 13.45 2.78279 13.4873 2.86992C13.4981 2.89746 13.5331 2.98258 13.5624 3.05769C13.5927 3.13205 13.6839 3.32458 13.764 3.48206C14.2139 4.37512 14.8876 5.11946 15.8373 5.77441C16.1367 5.97971 16.9504 6.36903 17.2769 6.46217C17.36 6.4847 17.3875 6.53152 17.3199 6.53152C17.2448 6.53152 16.5563 6.34174 16.4153 6.28216C16.3617 6.25838 16.3073 6.2365 16.2521 6.21656C15.7621 6.01902 15.1362 5.61218 14.6187 5.1495C14.0516 4.64501 13.5983 4.02567 13.2888 3.33259C13.0902 2.88444 12.9553 2.36242 12.922 1.90751C12.9025 1.64738 12.8819 1.58479 12.8143 1.58779C12.7918 1.58779 12.5777 1.58003 12.3419 1.56726C11.7005 1.53972 10.8242 1.61032 9.95665 1.76004C8.29798 2.04246 6.50836 2.69491 4.66667 3.68936C4.36039 3.8552 4.05779 4.02774 3.75909 4.20687C3.72404 4.2274 3.61338 4.29475 3.51273 4.35734C3.41283 4.41993 3.29466 4.48953 3.2516 4.51682C3.15646 4.57266 2.10342 5.28745 1.97723 5.38234C1.93016 5.41664 1.79922 5.51428 1.68881 5.59465C1.18883 5.96419 0.100489 6.85224 0.0378972 6.94237C0.00760289 6.98744 0.0554228 7.00997 0.120017 6.98744C0.153316 6.97442 0.23844 6.95689 0.30679 6.94738C0.377143 6.93636 0.558158 6.88954 0.708628 6.83972C0.861351 6.79165 1.02559 6.74183 1.07266 6.72906C1.44521 6.64193 1.59593 6.61164 1.81374 6.57934C1.91264 6.56682 2.05835 6.54429 2.14047 6.53152C3.16147 6.3818 3.64868 6.34475 4.10334 6.3788C5.09104 6.45891 6.03592 6.62741 6.57671 6.81894C6.98155 6.96465 7.80501 7.40981 8.16704 7.6767C8.37634 7.83443 9.04908 8.50416 9.19779 8.70645C9.31296 8.86694 9.44115 9.00689 9.47144 9.00689C9.48146 9.00689 9.49398 8.49614 9.49698 7.87423L9.50374 6.74458L10.8262 6.73707C11.8667 6.73206 12.1551 6.73983 12.1729 6.76211C12.1982 6.79466 12.2588 6.90231 12.4573 7.26885C12.6461 7.62187 12.739 7.79211 12.7968 7.89376C12.8269 7.9496 12.8965 8.07878 12.9553 8.18143C13.0099 8.28408 13.1125 8.47386 13.1831 8.6038C13.2535 8.73399 13.3111 8.8444 13.3111 8.84916C13.3111 8.87169 13.4147 9.00689 13.4325 9.00689C13.4423 9.00689 13.4675 8.96859 13.4851 8.92677C13.5048 8.88171 13.5577 8.78181 13.6007 8.70645C13.6458 8.63134 13.7259 8.48463 13.7815 8.38198C13.8373 8.27933 13.9127 8.13662 13.9527 8.06902C14.0632 7.87123 14.1786 7.65717 14.2745 7.48216C14.3762 7.28878 14.4808 7.09697 14.5884 6.90682C14.6207 6.84423 14.661 6.77863 14.6736 6.76211C14.6941 6.73958 14.9903 6.73181 16.0613 6.73657L17.4208 6.74433L17.4283 8.95181C17.4333 10.6906 17.4403 11.1563 17.4659 11.1563C17.4804 11.1533 17.5811 11.0954 17.6847 11.0231C17.8304 10.9214 17.893 10.8588 17.9606 10.7434C18.1141 10.4813 18.5492 10.0687 18.8406 9.90821C19.1948 9.7124 19.5757 9.56951 19.9713 9.48409C20.3731 9.39896 20.4916 9.38645 21.4041 9.3539C23.0696 9.29631 23.3159 9.2863 23.3287 9.27378C23.3365 9.26702 23.3142 9.20143 23.2809 9.12607C23.2458 9.05371 23.1857 8.91876 23.1429 8.82888C22.9845 8.48663 22.9845 8.37196 23.1507 8.20397C23.2634 8.0863 23.5545 7.98365 24.0553 7.884C24.1376 7.86647 24.2413 7.84394 24.2831 7.82942C24.3264 7.81665 24.379 7.80689 24.4015 7.80689C24.4651 7.80689 24.9649 7.68446 25.0705 7.6444C25.1431 7.61436 25.5352 7.52923 26.0026 7.4391C26.2059 7.39904 26.7342 7.29439 27.1713 7.20626C27.448 7.15168 27.7367 7.09384 27.8118 7.07907C27.8871 7.06455 27.9958 7.04202 28.0506 7.03225C28.1062 7.01974 28.1786 7.00396 28.2139 6.99895C28.2489 6.99219 28.4252 6.95689 28.6039 6.91984C28.738 6.89044 28.8727 6.86431 29.008 6.84147C29.1342 6.82971 30.0818 6.60187 30.2999 6.53152C30.6472 6.41886 30.7498 6.37404 30.9689 6.22733C31.2045 6.06709 31.2701 5.97996 31.5037 5.51428C31.763 4.99703 31.8001 4.9099 31.8735 4.69183C31.9861 4.34482 31.9791 4.21263 31.8354 4.06692C31.7345 3.96727 31.5184 3.86462 31.361 3.84209C31.2428 3.82732 31.227 3.83207 31.1694 3.89466C31.1341 3.93222 31.1038 3.97703 31.1038 3.99256C31.1038 4.01509 31.0638 4.12475 30.9511 4.39465C30.9403 4.42219 30.9181 4.48953 30.9003 4.54411C30.8858 4.59995 30.8552 4.67731 30.8377 4.71937C30.8054 4.78947 30.8026 4.77695 30.8152 4.58242C30.8279 4.38964 30.8602 4.2274 30.9336 3.98179C30.9464 3.93497 30.9639 3.85486 30.9709 3.80478L30.9834 3.71465L30.7223 3.61025C30.4506 3.49758 30.2165 3.39994 30.0818 3.33935C30.0358 3.32283 29.9234 3.27776 29.8305 3.24246C29.7346 3.20741 29.6192 3.16234 29.5713 3.13981C29.4842 3.10124 29.3961 3.06476 29.3072 3.0304C29.139 2.9648 28.5511 2.76526 28.0504 2.60778C27.7161 2.50527 27.3813 2.40429 27.0461 2.30484C26.9282 2.27483 26.8108 2.24244 26.6941 2.2077C26.6541 2.19693 26.5552 2.16964 26.4798 2.15011C26.0377 2.02793 25.9225 1.99739 25.7638 1.95232C25.6763 1.92714 25.5883 1.90377 25.4999 1.88222C25.4521 1.87045 25.3221 1.84016 25.2115 1.81262C25.0177 1.7648 24.206 1.57803 23.7658 1.47713L23.4519 1.40477C23.3963 1.39225 23.2967 1.37248 23.2261 1.35971C23.1577 1.34719 23.0147 1.31965 22.9111 1.29712C22.8084 1.27784 22.5874 1.23452 22.4211 1.20723C22.2559 1.17794 22.0573 1.14289 21.982 1.13012C21.2877 1.00494 21.2409 0.997928 19.9966 0.860226C19.23 0.773099 18.199 0.699742 17.9478 0.71251C17.9078 0.71251 17.685 0.722275 17.4559 0.735043ZM14.5504 1.9671C15.2143 2.18241 15.8598 2.47484 16.3019 2.76026C16.6539 2.98734 17.0911 3.35012 17.2095 3.51236L17.2593 3.57995L17.1644 3.54265C17.1119 3.52012 17.0012 3.47255 16.9181 3.43224C16.4759 3.22694 16.4281 3.21016 16.4281 3.25523C16.4281 3.267 16.5308 3.43224 16.6539 3.61701C16.7801 3.80478 16.8798 3.97002 16.8798 3.98505C16.8798 3.99757 16.833 3.97703 16.7741 3.93698C16.5483 3.78225 16.018 3.55942 15.988 3.60449C15.9802 3.61701 16.1432 3.82431 16.3528 4.06692C16.5581 4.30952 16.7293 4.51682 16.7293 4.5326C16.7293 4.56965 16.6892 4.56464 16.4985 4.49429C16.3019 4.42494 16.2521 4.41718 16.2521 4.465C16.2521 4.4973 16.6765 5.06938 16.8447 5.26692C16.8925 5.32175 16.9306 5.37458 16.9306 5.3871C16.9306 5.44693 16.342 5.06463 15.9254 4.73489C15.3295 4.2597 14.7537 3.62202 14.4507 3.09499C14.2011 2.66437 14.116 2.43278 14.116 2.1774C14.116 2.02793 14.123 1.99764 14.1786 1.94456C14.2111 1.91051 14.2519 1.88197 14.2667 1.88197C14.2812 1.88197 14.4074 1.92028 14.5504 1.9671ZM22.4847 2.85715C22.7253 2.90021 23.0548 2.95704 23.2133 2.98533C23.3718 3.01287 23.5653 3.04492 23.6407 3.05769C23.716 3.07246 23.8234 3.09199 23.8793 3.10451C23.9343 3.11728 24.0428 3.13981 24.1181 3.15734C24.3665 3.21242 24.4271 3.22494 24.8339 3.31982C25.271 3.42247 25.3669 3.442 25.4999 3.46929C25.6133 3.49183 25.7257 3.53489 25.7257 3.55442C25.7257 3.56243 25.6436 3.61025 25.5429 3.66207C25.3366 3.76472 25.2936 3.77249 24.4446 3.80478C23.8667 3.82932 23.5575 3.82231 23.2759 3.77724C22.7076 3.68961 22.4144 3.53013 22.1855 3.18488C22.1054 3.06745 22.0526 3.03215 21.8686 2.98533C21.801 2.9648 21.6976 2.93726 21.6427 2.91974C21.5869 2.90221 21.492 2.87467 21.4314 2.85715C21.2504 2.81033 21.3533 2.78279 21.7181 2.78279C21.9692 2.78279 22.1455 2.79956 22.4847 2.85715ZM25.5076 6.34976C25.4871 6.35465 25.4656 6.35465 25.4451 6.34976C25.4275 6.34174 25.44 6.33699 25.4753 6.33699C25.5096 6.33699 25.5224 6.34199 25.5079 6.3495L25.5076 6.34976ZM25.3992 6.37905C25.3992 6.39157 25.3699 6.40909 25.3316 6.4171C25.2535 6.43663 24.9473 6.52476 24.8467 6.55681C24.8114 6.56958 24.698 6.60488 24.5953 6.63442C24.3362 6.70953 23.7083 6.91383 23.54 6.97943C23.2231 7.0996 22.479 7.49393 22.3743 7.59958C22.2178 7.75206 22.1698 7.9163 22.1933 8.23126C22.2001 8.3642 22.2178 8.5317 22.2334 8.6038C22.2637 8.76153 22.2459 8.80435 22.1855 8.72623C22.1249 8.64887 21.9968 8.36921 21.9595 8.23126C21.9389 8.16967 21.9166 8.08655 21.9039 8.04649C21.8588 7.90453 21.8763 7.73628 21.9469 7.63463C22.0418 7.48892 22.3841 7.25708 22.7859 7.06455C22.9767 6.97166 23.532 6.78164 24.0428 6.63217C24.1454 6.60212 24.2588 6.56682 24.2941 6.55706C24.6559 6.43463 25.3992 6.31721 25.3992 6.37905ZM17.4511 6.54704C17.4431 6.55405 17.4208 6.55706 17.403 6.54905C17.3825 6.54229 17.3905 6.53453 17.4178 6.53453C17.4461 6.53152 17.4609 6.53953 17.4511 6.54704Z" fill="#0053A4"/>
<path d="M12.1807 11.3814V13.1309H13.4325C14.3724 13.1309 14.6911 13.1234 14.7136 13.1009C14.7517 13.0633 14.7597 9.63181 14.7214 9.63181C14.7089 9.63181 14.6913 9.65133 14.6833 9.67387C14.6733 9.6964 14.3997 10.1238 14.0729 10.6235C13.5557 11.4137 13.412 11.6062 13.412 11.5086C13.412 11.491 12.5552 10.1541 12.3361 9.8311C12.3068 9.78931 12.2809 9.74518 12.2588 9.69915C12.2382 9.6611 12.2137 9.63156 12.2012 9.63156C12.1904 9.63156 12.1807 10.419 12.1807 11.3814Z" fill="#0053A4"/>
</svg>
