<svg width="16" height="33" viewBox="0 0 16 33" fill="none" xmlns="http://www.w3.org/2000/svg">
<path d="M7.73001 0.891237L8.58714 2.50111C8.77984 2.79819 8.98861 3.06115 9.2345 3.30604C9.95542 4.01796 10.6274 4.77779 11.2458 5.58033C12.6981 7.48728 13.6777 9.605 14.3773 11.8954C14.7968 13.2945 15.0246 14.7297 15.0417 16.181C15.112 20.5198 13.6245 24.2454 10.6256 27.3417C10.1378 27.8327 9.61078 28.2831 9.04983 28.6886C8.75275 28.6886 8.61223 28.4607 8.48979 28.251C8.2668 27.862 8.11839 27.4348 8.05219 26.9914C7.94681 26.4665 7.87755 25.9416 7.91168 25.3996V25.1547C7.88759 25.1025 7.62563 1.01469 7.73001 0.891237Z" fill="#0053A4"/>
<path d="M7.73002 0.838057C7.6949 0.767801 7.65977 0.820995 7.62464 0.855119C7.6417 1.2064 7.51926 1.51954 7.32756 1.81863C7.11679 2.11572 6.83777 2.34355 6.55775 2.58844C5.00208 3.93535 3.77761 5.56228 2.79703 7.38192C1.49227 9.83085 0.819821 12.4554 0.629125 15.2185C0.541807 16.2151 0.944275 19.7319 1.25842 20.7466C2.11555 23.4405 3.65516 25.6977 5.64944 27.6568C6.13922 28.1286 6.66313 28.5662 7.20511 28.9867C7.36269 28.9867 7.37975 28.8462 7.41588 28.7418C7.48496 28.5184 7.53763 28.2903 7.57345 28.0593L7.92474 25.4357L7.73002 0.838057Z" fill="#0085D7"/>
<path d="M8.58714 29.7545C8.62227 29.353 8.81498 29.0198 9.02474 28.6876C8.81397 28.6003 8.6574 28.4266 8.53495 28.2329C8.42937 28.0495 8.34197 27.8563 8.274 27.6558C8.02911 26.9212 7.97692 26.1504 7.90666 25.3996V24.945C7.81934 25.0152 7.80128 25.6094 7.80128 25.6977C7.7502 26.4912 7.64491 27.2802 7.48613 28.0593C7.43394 28.3745 7.39881 28.6886 7.2051 28.9686C7.2051 29.0037 7.2051 29.0389 7.22216 29.0911C7.53731 30.0184 7.62363 30.9629 7.67682 31.9254V32.2767C7.67682 32.6962 7.65976 32.6079 8.00803 32.7484C8.14854 32.8006 8.30512 32.8186 8.44563 32.923C8.55101 32.923 8.56808 32.8357 8.56808 32.7654L8.51588 32.1883V30.5785C8.49882 30.2975 8.55101 30.0184 8.58614 29.7555L8.58714 29.7545Z" fill="#88CFF8"/>
</svg>
