<svg width="28" height="28" viewBox="0 0 28 28" fill="none" xmlns="http://www.w3.org/2000/svg">
<path d="M13.3315 0.184706C13.2734 0.189992 13.0883 0.208492 12.9218 0.221707C9.08112 0.567926 5.4836 2.63996 3.20509 5.82465C1.93631 7.5954 1.12482 9.604 0.818201 11.7315C0.709826 12.4742 0.696609 12.6935 0.696609 13.7005C0.696609 14.7074 0.709826 14.9268 0.818201 15.6695C1.55303 20.7465 5.16641 25.0121 10.0671 26.5926C10.9446 26.8753 11.8698 27.0683 12.9218 27.1846C13.3315 27.2295 15.1025 27.2295 15.5122 27.1846C17.3282 26.9837 18.8666 26.5344 20.3838 25.76C20.6164 25.6411 20.6614 25.6094 20.6296 25.583C20.6085 25.5671 19.6173 24.2377 18.4278 22.6308L16.2656 19.7104L13.5562 15.7012C12.0654 13.497 10.8389 11.6945 10.8283 11.6945C10.8178 11.6919 10.8072 13.4732 10.8019 15.6483C10.794 19.4567 10.7913 19.61 10.7437 19.6999C10.675 19.8294 10.6222 19.8822 10.5111 19.9404C10.4266 19.9827 10.3525 19.9906 9.9534 19.9906H9.49611L9.37452 19.9139C9.29522 19.8637 9.23707 19.7977 9.19742 19.721L9.14191 19.6021L9.1472 14.3031L9.15513 9.00142L9.23707 8.89834C9.27936 8.84284 9.36924 8.77149 9.43267 8.73713C9.54105 8.68427 9.58334 8.67898 10.0406 8.67898C10.5799 8.67898 10.6697 8.70013 10.8098 8.85342C10.8495 8.8957 12.3165 11.1052 14.0716 13.7666C15.8268 16.428 18.2269 20.062 19.4058 21.8459L21.5469 25.0887L21.6552 25.0174C22.6147 24.3937 23.6298 23.5056 24.4333 22.5806C26.1435 20.617 27.2458 18.2225 27.6159 15.6695C27.7242 14.9268 27.7374 14.7074 27.7374 13.7005C27.7374 12.6935 27.7242 12.4742 27.6159 11.7315C26.881 6.65452 23.2676 2.38888 18.367 0.80843C17.5026 0.528283 16.5828 0.335351 15.5519 0.219064C15.2981 0.192635 13.5509 0.163563 13.3315 0.184706ZM18.8666 8.36184C18.9934 8.42527 19.0965 8.54684 19.1335 8.6737C19.1547 8.74241 19.16 10.2119 19.1547 13.5234L19.1468 18.2754L18.3088 16.9909L17.4683 15.7065V12.2522C17.4683 10.0189 17.4788 8.76356 17.4947 8.70277C17.537 8.55477 17.6295 8.43848 17.7564 8.36977C17.8648 8.31426 17.9044 8.30898 18.3194 8.30898C18.7106 8.30898 18.7793 8.31426 18.8666 8.36184Z" fill="#0053A4"/>
</svg>
