<svg width="26" height="28" viewBox="0 0 26 28" fill="none" xmlns="http://www.w3.org/2000/svg">
<path d="M11.8828 0.465081C12.5533 0.0812732 13.4267 0.0795396 14.0966 0.465081C17.4671 2.36958 20.8386 4.27109 24.2085 6.17674C24.8424 6.53377 25.2663 7.23917 25.2599 7.96951V19.4277C25.2646 20.1883 24.7987 20.9105 24.13 21.2595C20.7706 23.1535 17.413 25.0498 14.0541 26.9438C13.3697 27.3351 12.4788 27.3049 11.8158 26.8815C10.8087 26.2977 9.7998 25.7167 8.79256 25.1335C8.58674 25.0108 8.35472 24.9131 8.20938 24.7135C8.33786 24.5404 8.56757 24.5188 8.75422 24.4432C9.17463 24.3095 9.56075 24.0949 9.94697 23.8867C10.0446 23.8199 10.1639 23.8455 10.2575 23.9053C11.1187 24.3991 11.9723 24.9072 12.8365 25.3963C13.0208 25.5027 13.2075 25.3614 13.365 25.2736C16.6616 23.4104 19.9623 21.5543 23.2583 19.6905C23.3804 19.6318 23.4479 19.5021 23.438 19.3684C23.4403 15.5885 23.4386 11.8081 23.4392 8.02826C23.4531 7.87647 23.3653 7.73691 23.2281 7.67479C19.8803 5.78946 16.5343 3.90124 13.1871 2.01543C13.1291 1.97556 13.0604 1.95417 12.9901 1.95407C12.9197 1.95397 12.8509 1.97516 12.7928 2.01486C9.44566 3.90124 6.10022 5.7912 2.75305 7.67643C2.61629 7.73865 2.5245 7.87589 2.54078 8.02826C2.54135 11.8081 2.54078 15.5885 2.54078 19.3689C2.53497 19.4342 2.54931 19.4997 2.58185 19.5566C2.6144 19.6134 2.66359 19.659 2.72281 19.6871C3.61602 20.1936 4.51038 20.6965 5.40417 21.2013C5.90769 21.4723 6.52592 21.6334 7.08069 21.4257C7.57025 21.2501 7.91341 20.7505 7.90407 20.2307C7.90869 16.473 7.90176 12.7147 7.90754 8.95749C7.8953 8.79068 8.05355 8.65285 8.21574 8.66855C8.64491 8.66566 9.07466 8.66277 9.50383 8.66971C9.68297 8.66566 9.80625 8.84528 9.7841 9.01335C9.78237 12.7949 9.78872 16.5765 9.78121 20.3581C9.78237 21.3659 9.36832 22.4625 8.4361 22.9556C7.28766 23.5506 5.8682 23.4244 4.73363 22.8539C3.75143 22.3637 2.81411 21.7851 1.84934 21.2599C1.17891 20.9129 0.715354 20.1878 0.720074 19.4278V7.96951C0.713043 7.22405 1.15387 6.50584 1.80745 6.15401C5.16627 4.25847 8.52452 2.36149 11.8828 0.465081Z" fill="#0053A4"/>
<path d="M14.813 8.40223C16.2779 8.30794 17.8462 8.34637 19.1644 9.06804C20.185 9.62107 20.7509 10.7817 20.7689 11.9156C20.7404 12.0686 20.5805 12.1529 20.4345 12.1425C20.0095 12.1419 19.5843 12.1482 19.1593 12.1396C18.979 12.1465 18.8742 11.9803 18.8516 11.8209C18.7295 11.2783 18.4336 10.741 17.9229 10.4793C17.139 10.0868 16.2301 10.1066 15.3754 10.1148C14.7513 10.1479 14.0803 10.2019 13.5517 10.5689C13.1458 10.8468 13.0225 11.408 13.1674 11.8599C13.304 12.1843 13.6785 12.289 13.985 12.3855C15.7504 12.8473 17.6212 12.8013 19.3529 13.409C20.0699 13.6567 20.7712 14.1383 21.0166 14.8889C21.3376 15.895 21.1969 17.0976 20.4811 17.9053C19.9006 18.5699 19.0552 18.9317 18.212 19.1281C17.0902 19.3783 15.9261 19.3846 14.7869 19.2736C13.7157 19.1514 12.601 18.87 11.774 18.1402C11.0669 17.5262 10.7215 16.5695 10.7558 15.6461C10.764 15.4902 10.9192 15.3815 11.0686 15.3943C11.4966 15.3908 11.9247 15.3896 12.3527 15.3948C12.5236 15.3826 12.6504 15.5304 12.6591 15.6915C12.7381 16.2084 12.9324 16.7509 13.3831 17.0574C14.253 17.6186 15.3445 17.5802 16.3406 17.5959C17.1658 17.5593 18.0922 17.5482 18.7656 17.0028C19.1209 16.6917 19.2262 16.1712 19.1301 15.7235C19.0261 15.3454 18.6306 15.1693 18.291 15.0541C16.5483 14.5028 14.6566 14.7028 12.9306 14.0794C12.23 13.8318 11.5524 13.3636 11.2832 12.6438C10.9076 11.625 11.0797 10.3648 11.8705 9.58437C12.6416 8.80809 13.7547 8.50923 14.813 8.40223Z" fill="#0053A4"/>
</svg>
