<svg width="28" height="28" viewBox="0 0 28 28" fill="none" xmlns="http://www.w3.org/2000/svg">
<path d="M24.3052 6.04505C22.6706 3.92833 20.4449 2.34389 17.9098 1.49214C15.3746 0.640394 12.6438 0.559586 10.0627 1.25994C7.48158 1.96029 5.16615 3.41035 3.40921 5.42672C1.65228 7.44308 0.532765 9.93519 0.192257 12.5878C-0.14825 15.2405 0.305544 17.9346 1.49625 20.3293C2.68695 22.724 4.56108 24.7119 6.88161 26.0414C9.20214 27.371 11.8648 27.9825 14.5329 27.7987C17.201 27.6148 19.7547 26.6439 21.8709 25.0087C27.7781 20.4435 28.8682 11.9543 24.3048 6.04505H24.3052Z" fill="#0053A4"/>
<path d="M18.1639 9.40344L12.4626 15.15L10.8515 13.4936C16.4628 7.88229 17.026 8.38934 18.1644 9.40344H18.1639Z" fill="#E7F5FE"/>
<path d="M12.4627 15.3071C12.4122 15.3059 12.3639 15.2858 12.3274 15.2509L10.7049 13.6284C10.6684 13.5906 10.6479 13.54 10.6479 13.4875C10.6479 13.4349 10.6684 13.3844 10.7049 13.3465C16.2372 7.81423 16.9923 8.07324 18.2992 9.25636C18.3211 9.27386 18.3386 9.29623 18.3503 9.32168C18.3621 9.34713 18.3677 9.37496 18.3668 9.40298C18.3753 9.45791 18.3541 9.5141 18.3106 9.5496L12.6093 15.2514C12.5693 15.288 12.5169 15.3081 12.4627 15.3076V15.3071ZM11.1329 13.4932L12.4627 14.8229L17.8712 9.41438C17.6844 9.18036 17.418 9.02339 17.1228 8.97349C16.8275 8.9236 16.5243 8.98429 16.271 9.14396C15.2907 9.5834 13.7134 10.9241 11.1329 13.4932Z" fill="#0053A4"/>
<path d="M14.0966 16.7387L12.5416 15.1499L18.243 9.51583C19.7756 11.0146 17.4993 13.516 14.0966 16.7383V16.7387Z" fill="#E7F5FE"/>
<path d="M14.0966 16.9415C14.0467 16.9375 13.9994 16.9179 13.9614 16.8853L12.3727 15.3304C12.3488 15.2726 12.3488 15.2077 12.3727 15.1499C12.3558 15.1025 12.3558 15.0507 12.3727 15.0033L18.074 9.30201C18.1137 9.26475 18.166 9.24401 18.2204 9.24401C18.2748 9.24401 18.3272 9.26475 18.3668 9.30201C18.5515 9.47194 18.6973 9.67965 18.7945 9.911C18.8917 10.1423 18.9379 10.3919 18.9301 10.6427C18.9301 12.1639 17.1947 14.0792 14.2428 16.8739C14.2034 16.9129 14.1515 16.9369 14.0962 16.9415H14.0966ZM12.8345 15.1499L14.1076 16.4226C16.361 14.293 18.5134 12.0958 18.5244 10.6085C18.5367 10.2932 18.4325 9.9844 18.2316 9.74103L12.8345 15.1499Z" fill="#0053A4"/>
<path d="M10.8963 13.5274L12.0232 14.6543C12.0304 14.6607 12.0362 14.6685 12.0401 14.6772C12.0441 14.6859 12.0461 14.6954 12.0461 14.705C12.0461 14.7146 12.0441 14.7241 12.0401 14.7328C12.0362 14.7416 12.0304 14.7494 12.0232 14.7557L9.64558 15.2628C9.59759 15.2731 9.54752 15.2675 9.50301 15.2468C9.4585 15.2261 9.42198 15.1914 9.39901 15.148C9.37605 15.1046 9.36789 15.0549 9.37579 15.0064C9.38369 14.9579 9.4072 14.9134 9.44276 14.8795L10.8287 13.505C10.8287 13.505 10.8739 13.505 10.8963 13.5274Z" fill="#E7F5FE"/>
<path d="M9.58937 15.488C9.51425 15.487 9.44062 15.4669 9.37552 15.4294C9.31042 15.3918 9.25603 15.3383 9.21753 15.2738C9.17421 15.192 9.15849 15.0985 9.17273 15.0071C9.18698 14.9157 9.23041 14.8314 9.29655 14.7667L10.6711 13.3808C10.7206 13.3365 10.7848 13.312 10.8513 13.312C10.9178 13.312 10.9819 13.3365 11.0315 13.3808L12.1584 14.5077C12.2252 14.5711 12.2514 14.667 12.226 14.7557C12.2007 14.8445 12.1263 14.915 12.0346 14.9362L9.65697 15.4432L9.58937 15.488ZM10.8515 13.7754L9.57838 15.0486L11.6856 14.5977L10.8515 13.7754Z" fill="#0053A4"/>
<path d="M21.1953 6.23691C20.3798 5.45014 19.0987 5.41719 18.2434 6.15959C17.3882 6.90199 17.242 8.17637 17.9079 9.09328C18.5738 10.0102 19.8292 10.2671 20.8011 9.68484L19.2685 8.15229L21.1953 6.23691Z" fill="#E7F5FE"/>
<path d="M19.6742 10.2029C19.2056 10.1969 18.7492 10.0531 18.3618 9.78953C17.9744 9.52595 17.6731 9.1542 17.4955 8.72059C17.3181 8.28731 17.2715 7.81151 17.3616 7.35204C17.4517 6.89258 17.6746 6.46962 18.0026 6.13549C18.4537 5.69265 19.0606 5.44455 19.6928 5.44455C20.3249 5.44455 20.9318 5.69265 21.3829 6.13549C21.426 6.17182 21.4505 6.22549 21.4505 6.28211C21.4504 6.30996 21.4443 6.33747 21.4327 6.36277C21.421 6.38807 21.4041 6.41056 21.3829 6.42873L19.5576 8.15269L20.9435 9.51623C20.9659 9.53768 20.9828 9.56429 20.9926 9.59376C21.0024 9.62322 21.0048 9.65463 20.9997 9.68525C20.9964 9.71479 20.9866 9.74324 20.971 9.76858C20.9555 9.79391 20.9345 9.81552 20.9097 9.83187C20.5373 10.0646 20.1093 10.193 19.6704 10.2037L19.6742 10.2029ZM19.6742 5.83083C18.8713 5.83506 18.153 6.31802 17.8517 7.0562C17.5505 7.79438 17.7144 8.64411 18.2772 9.21116C18.5572 9.49274 18.9156 9.6832 19.3057 9.75762C19.6957 9.83203 20.0991 9.78693 20.4631 9.62821L19.1333 8.29847C19.1122 8.28157 19.0951 8.26013 19.0834 8.23573C19.0717 8.21134 19.0656 8.18462 19.0656 8.15755C19.0656 8.13049 19.0717 8.10377 19.0834 8.07938C19.0951 8.05498 19.1122 8.03354 19.1333 8.01664L20.8911 6.24746C20.5417 5.97967 20.1144 5.83324 19.6742 5.83041V5.83083Z" fill="#0053A4"/>
<path d="M21.2291 6.27069L19.3023 8.18606L20.8348 9.71861C20.9891 9.63006 21.1327 9.52416 21.2629 9.40297C21.6645 8.97842 21.8855 8.41441 21.8792 7.83C21.8729 7.24558 21.6398 6.68648 21.2291 6.27069Z" fill="#E7F5FE"/>
<path d="M20.8006 9.88767C20.7753 9.88904 20.75 9.8847 20.7266 9.87497C20.7032 9.86524 20.6823 9.85038 20.6654 9.83147L19.1329 8.29891C19.1117 8.28201 19.0947 8.26057 19.0829 8.23617C19.0712 8.21178 19.0651 8.18506 19.0651 8.158C19.0651 8.13093 19.0712 8.10421 19.0829 8.07982C19.0947 8.05542 19.1117 8.03398 19.1329 8.01708L21.0482 6.1355C21.0667 6.10761 21.0919 6.08473 21.1213 6.0689C21.1508 6.05308 21.1838 6.0448 21.2173 6.0448C21.2507 6.0448 21.2837 6.05308 21.3132 6.0689C21.3427 6.08473 21.3678 6.10761 21.3863 6.1355C21.6111 6.35582 21.7898 6.61879 21.9117 6.90901C22.0337 7.19923 22.0965 7.51086 22.0965 7.82567C22.0965 8.14047 22.0337 8.45211 21.9117 8.74233C21.7898 9.03255 21.6111 9.29552 21.3863 9.51583C21.2536 9.65652 21.1019 9.77785 20.9354 9.87626C20.8935 9.89738 20.8451 9.90147 20.8002 9.88767H20.8006ZM19.5613 8.15271L20.8344 9.42583C20.922 9.36445 21.0049 9.29665 21.0825 9.22301C21.4567 8.84977 21.6675 8.34324 21.6685 7.81468C21.6694 7.34166 21.497 6.88471 21.1839 6.53016L19.5613 8.15271Z" fill="#0053A4"/>
<path d="M18.4006 9.64005C18.248 9.49673 18.0465 9.41696 17.8372 9.41696C17.6278 9.41696 17.4263 9.49673 17.2737 9.64005L12.1698 14.7325L13.0149 15.589L18.412 10.8565C18.4943 10.7777 18.5596 10.6828 18.6039 10.5777C18.6481 10.4726 18.6704 10.3596 18.6693 10.2456C18.6683 10.1316 18.6439 10.019 18.5977 9.91483C18.5514 9.81061 18.4844 9.71695 18.4006 9.63963V9.64005Z" fill="#E7F5FE"/>
<path d="M12.9697 15.7922C12.9192 15.791 12.871 15.7709 12.8345 15.736L11.978 14.8795C11.9415 14.8417 11.9211 14.7912 11.9211 14.7386C11.9211 14.686 11.9415 14.6355 11.978 14.5977L17.0823 9.51582C17.2293 9.36898 17.4171 9.26969 17.6212 9.23084C17.8253 9.19199 18.0364 9.21536 18.2271 9.29793C18.4178 9.3805 18.5792 9.51845 18.6906 9.6939C18.8019 9.86934 18.858 10.0742 18.8515 10.2819C18.8456 10.4229 18.8117 10.5612 18.7517 10.6889C18.6917 10.8166 18.6068 10.9311 18.502 11.0256L13.1049 15.758C13.0657 15.7858 13.0174 15.7978 12.9697 15.7918V15.7922ZM12.3727 14.7325L12.9359 15.3072L18.2316 10.6985C18.3626 10.5844 18.4408 10.4213 18.4458 10.2477C18.4509 10.074 18.3824 9.90413 18.2544 9.78582C18.1362 9.66808 17.9761 9.60198 17.8093 9.60198C17.6424 9.60198 17.4824 9.66808 17.3641 9.78582L12.3727 14.7325Z" fill="#0053A4"/>
<path d="M8.21487 20.5357C8.20046 20.5553 8.19268 20.579 8.19268 20.6033C8.19268 20.6276 8.20046 20.6513 8.21487 20.6709L8.44009 21.6512C8.44911 21.7089 8.44056 21.7679 8.41553 21.8207C8.39051 21.8734 8.35018 21.9174 8.2998 21.947C8.2496 21.9763 8.19138 21.989 8.13351 21.9831C8.07565 21.9773 8.02114 21.9532 7.97783 21.9144L6.43429 20.4271L11.2457 15.5776H12.9135L14.0404 16.7045C12.2825 18.2415 10.3225 19.5305 8.21487 20.5357Z" fill="#E7F5FE"/>
<path d="M8.11345 22.192C7.98584 22.1895 7.85993 22.1371 7.77542 22.0454L6.29949 20.5695C6.27835 20.5526 6.26128 20.5311 6.24955 20.5067C6.23783 20.4823 6.23174 20.4556 6.23174 20.4285C6.23174 20.4015 6.23783 20.3748 6.24955 20.3504C6.26128 20.326 6.27835 20.3045 6.29949 20.2876L11.1443 15.4314C11.1715 15.4025 11.2069 15.3829 11.2457 15.3752H12.9245C12.9682 15.3597 13.016 15.3597 13.0597 15.3752L14.1866 16.5021C14.208 16.5218 14.2244 16.5465 14.2341 16.574C14.2439 16.6014 14.2469 16.6308 14.2428 16.6597C14.2436 16.6877 14.2379 16.7155 14.2262 16.7409C14.2145 16.7664 14.197 16.7887 14.1752 16.8063L14.0852 16.8853C12.3202 18.3567 10.3784 19.602 8.30486 20.5923L8.51909 21.505C8.53565 21.5754 8.53628 21.6486 8.52095 21.7193C8.50561 21.7899 8.47468 21.8563 8.43043 21.9135C8.38618 21.9707 8.32971 22.0173 8.26515 22.05C8.20059 22.0826 8.12956 22.1003 8.05725 22.102L8.11345 22.192ZM6.73893 20.4228L8.06824 21.7636C8.08063 21.7746 8.09664 21.7807 8.11324 21.7807C8.12984 21.7807 8.14585 21.7746 8.15824 21.7636C8.16653 21.752 8.17099 21.7382 8.17099 21.724C8.17099 21.7099 8.16653 21.696 8.15824 21.6845L7.93303 20.7042C7.91528 20.6339 7.92241 20.5596 7.95322 20.4939C7.98402 20.4282 8.0366 20.3752 8.10204 20.3438C10.1199 19.3668 12.0116 18.1484 13.7358 16.7155L12.8117 15.7914H11.3019L6.73893 20.4228Z" fill="#0053A4"/>
<path d="M5.27399 21.5835L6.4009 20.4566L8.13627 22.192L5.37582 22.0006C5.32843 21.9969 5.28342 21.9783 5.24721 21.9475C5.21101 21.9167 5.18546 21.8752 5.17422 21.829C5.16298 21.7828 5.16661 21.7343 5.1846 21.6903C5.20259 21.6463 5.23403 21.6091 5.27441 21.584L5.27399 21.5835Z" fill="#E7F5FE"/>
<path d="M8.16964 22.361L5.42018 22.1696C5.25708 22.1544 5.1168 22.0429 5.05933 21.8937C5.00187 21.7446 5.03694 21.5675 5.14976 21.4484L6.27667 20.3214C6.31448 20.2849 6.36501 20.2645 6.41758 20.2645C6.47016 20.2645 6.52069 20.2849 6.5585 20.3214L8.28246 22.0454C8.30632 22.0781 8.31919 22.1175 8.31919 22.158C8.31919 22.1985 8.30632 22.2379 8.28246 22.2706C8.25639 22.3128 8.21652 22.3446 8.16964 22.3606V22.361ZM5.42018 21.7302L7.67358 21.8768L6.43427 20.7161L5.42018 21.7302Z" fill="#0053A4"/>
<path d="M13.0711 15.7136L10.7949 16.0631L12.1132 14.7562L13.0711 15.7136Z" fill="#E7F5FE"/>
<path d="M10.7949 16.2765C10.7571 16.2775 10.7198 16.2673 10.6877 16.2472C10.6556 16.2272 10.6301 16.1981 10.6145 16.1636C10.5905 16.131 10.5775 16.0915 10.5775 16.051C10.5775 16.0105 10.5905 15.9711 10.6145 15.9384L11.9214 14.6201C11.961 14.5828 12.0134 14.5621 12.0678 14.5621C12.1222 14.5621 12.1745 14.5828 12.2142 14.6201L13.1725 15.5776C13.1916 15.6079 13.2018 15.6431 13.2018 15.679C13.2018 15.7149 13.1916 15.75 13.1725 15.7804C13.1631 15.8174 13.1432 15.8509 13.1153 15.8769C13.0873 15.9029 13.0525 15.9203 13.0149 15.927L10.7615 16.2765H10.7949ZM12.1132 15.0481L11.3809 15.7804L12.6431 15.589L12.1132 15.0481Z" fill="#0053A4"/>
<path d="M13.0711 15.7128L11.4824 15.9156C11.4398 15.9253 11.3954 15.921 11.3555 15.9034C11.3156 15.8857 11.2825 15.8557 11.261 15.8178C11.2395 15.7799 11.2308 15.736 11.2362 15.6927C11.2416 15.6495 11.2608 15.6091 11.291 15.5776L12.1136 14.7549L13.0711 15.7128Z" fill="#E7F5FE"/>
<path d="M11.4372 16.1303C11.3635 16.1296 11.2914 16.1094 11.2281 16.0717C11.1648 16.0341 11.1125 15.9804 11.0767 15.916C11.0337 15.8389 11.017 15.7498 11.0292 15.6624C11.0414 15.5749 11.0818 15.4938 11.1443 15.4314L11.967 14.6087C12.0067 14.5714 12.059 14.5507 12.1134 14.5507C12.1678 14.5507 12.2202 14.5714 12.2598 14.6087L13.2177 15.5666C13.2462 15.5936 13.2663 15.6283 13.2754 15.6664C13.2846 15.7046 13.2825 15.7446 13.2694 15.7816C13.2563 15.8186 13.2328 15.8509 13.2016 15.8748C13.1705 15.8987 13.1331 15.913 13.0939 15.916L11.5166 16.1189L11.4372 16.1303ZM11.4372 15.7132L12.6317 15.5666L12.1022 15.0372L11.4262 15.7132H11.4372ZM21.2401 7.56663C21.2189 7.53107 21.1853 7.50455 21.1458 7.49209C21.1063 7.47962 21.0636 7.48209 21.0259 7.49902C21.0072 7.50847 20.9906 7.52157 20.9771 7.53754C20.9636 7.55351 20.9535 7.57202 20.9473 7.59198C20.9347 7.63227 20.9387 7.67588 20.9582 7.71325C21.0373 7.87931 21.0153 8.07579 20.9021 8.2203C20.888 8.23422 20.877 8.25091 20.8697 8.26931C20.8624 8.28772 20.8591 8.30743 20.8598 8.3272C20.8602 8.36683 20.8753 8.40491 20.9021 8.43411C20.931 8.44552 20.9631 8.44552 20.9921 8.43411C21.0183 8.4407 21.0458 8.43998 21.0717 8.432C21.0975 8.42403 21.1207 8.40912 21.1387 8.38889C21.2315 8.2753 21.2902 8.13777 21.3082 7.99219C21.3261 7.84662 21.3025 7.69894 21.2401 7.56621V7.56663Z" fill="#0053A4"/>
</svg>
