<svg width="28" height="28" viewBox="0 0 28 28" fill="none" xmlns="http://www.w3.org/2000/svg">
<path d="M20.883 5.55061H22.1708C22.5314 5.55061 22.8147 5.83391 22.8147 6.19448C22.8147 6.55505 22.5314 6.83835 22.1708 6.83835H20.883C20.5225 6.83835 20.2392 6.55505 20.2392 6.19448C20.2392 5.83391 20.5225 5.55061 20.883 5.55061Z" fill="#002072"/>
<path d="M1.56693 26.1545H8.00563C8.36619 26.1545 8.6495 26.4378 8.6495 26.7984C8.6495 27.1589 8.36619 27.4422 8.00563 27.4422H1.56693C1.20637 27.4422 0.923065 27.1589 0.923065 26.7984C0.923065 26.4378 1.20637 26.1545 1.56693 26.1545Z" fill="#0085D7"/>
<path d="M17.0198 15.8526L20.883 15.8526C21.2436 15.8526 21.5269 16.1359 21.5269 16.4964C21.5269 16.857 21.2436 17.1403 20.883 17.1403H17.0198C16.6593 17.1403 16.376 16.857 16.376 16.4964C16.376 16.1359 16.6593 15.8526 17.0198 15.8526Z" fill="#0053A4"/>
<path d="M9.29341 15.8526H14.4444C14.8049 15.8526 15.0883 16.1359 15.0883 16.4964C15.0883 16.857 14.8049 17.1403 14.4444 17.1403H9.29341C8.93284 17.1403 8.64953 16.857 8.64953 16.4964C8.64953 16.1359 8.93284 15.8526 9.29341 15.8526Z" fill="#0085D7"/>
<path d="M1.56694 15.8526H6.7179C7.07847 15.8526 7.36177 16.1359 7.36177 16.4964C7.36177 16.857 7.07847 17.1403 6.7179 17.1403H1.56694C1.20637 17.1403 0.923065 16.857 0.923065 16.4964C0.923065 16.1359 1.20637 15.8526 1.56694 15.8526Z" fill="#002072"/>
<path d="M1.56693 21.0035H8.00563C8.36619 21.0035 8.6495 21.2868 8.6495 21.6474C8.6495 22.0079 8.36619 22.2912 8.00563 22.2912H1.56693C1.20637 22.2912 0.923065 22.0079 0.923065 21.6474C0.923065 21.2868 1.20637 21.0035 1.56693 21.0035Z" fill="#0053A4"/>
<path d="M1.56693 10.7016H8.00563C8.36619 10.7016 8.6495 10.9849 8.6495 11.3454C8.6495 11.706 8.36619 11.9893 8.00563 11.9893H1.56693C1.20637 11.9893 0.923065 11.706 0.923065 11.3454C0.923065 10.9849 1.20637 10.7016 1.56693 10.7016Z" fill="#0053A4"/>
<path d="M8.00565 2.97517L20.883 2.97517C21.2436 2.97517 21.5269 3.25847 21.5269 3.61904C21.5269 3.97961 21.2436 4.26292 20.883 4.26292L8.00565 4.26292C7.64508 4.26292 7.36178 3.97961 7.36178 3.61904C7.36178 3.25847 7.64508 2.97517 8.00565 2.97517Z" fill="#0F82EB"/>
<path d="M1.56694 2.97517L5.43015 2.97517C5.79072 2.97517 6.07402 3.25847 6.07402 3.61904C6.07402 3.97961 5.79072 4.26292 5.43015 4.26292H1.56694C1.20637 4.26292 0.923065 3.97961 0.923065 3.61904C0.923065 3.25847 1.20637 2.97517 1.56694 2.97517Z" fill="#0085D7"/>
<path d="M6.7179 23.579H8.00565C8.36621 23.579 8.64952 23.8623 8.64952 24.2229C8.64952 24.5834 8.36621 24.8667 8.00565 24.8667H6.7179C6.35733 24.8667 6.07402 24.5834 6.07402 24.2229C6.07402 23.8623 6.35733 23.579 6.7179 23.579Z" fill="#0F82EB"/>
<path d="M6.7179 8.12612H8.00565C8.36621 8.12612 8.64952 8.40942 8.64952 8.76998C8.64952 9.13054 8.36621 9.41384 8.00565 9.41384H6.7179C6.35733 9.41384 6.07402 9.13054 6.07402 8.76998C6.07402 8.40942 6.35733 8.12612 6.7179 8.12612Z" fill="#002072"/>
<path d="M1.56694 23.579H4.14242C4.50299 23.579 4.78629 23.8623 4.78629 24.2229C4.78629 24.5834 4.50299 24.8667 4.14242 24.8667H1.56694C1.20637 24.8667 0.923065 24.5834 0.923065 24.2229C0.923065 23.8623 1.20637 23.579 1.56694 23.579Z" fill="#002072"/>
<path d="M1.56694 8.12612H4.14242C4.50299 8.12612 4.78629 8.40942 4.78629 8.76998C4.78629 9.13054 4.50299 9.41384 4.14242 9.41384H1.56694C1.20637 9.41384 0.923065 9.13054 0.923065 8.76998C0.923065 8.40942 1.20637 8.12612 1.56694 8.12612Z" fill="#0F82EB"/>
<path d="M18.3076 23.579H19.5953C19.9559 23.579 20.2392 23.8623 20.2392 24.2229C20.2392 24.5834 19.9559 24.8667 19.5953 24.8667H18.3076C17.947 24.8667 17.6637 24.5834 17.6637 24.2229C17.6637 23.8623 17.947 23.579 18.3076 23.579Z" fill="#B8E2FB"/>
<path d="M10.5811 23.579H15.7321C16.0927 23.579 16.376 23.8623 16.376 24.2229C16.376 24.5834 16.0927 24.8667 15.7321 24.8667H10.5811C10.2205 24.8667 9.93722 24.5834 9.93722 24.2229C9.93722 23.8623 10.2205 23.579 10.5811 23.579Z" fill="#B8E2FB"/>
<path d="M22.1708 23.579H27.3217C27.6823 23.579 27.9656 23.8623 27.9656 24.2229C27.9656 24.5834 27.6823 24.8667 27.3217 24.8667H22.1708C21.8102 24.8667 21.5269 24.5834 21.5269 24.2229C21.5269 23.8623 21.8102 23.579 22.1708 23.579Z" fill="#B8E2FB"/>
<path d="M11.8688 13.2771L22.1708 13.2771C22.5313 13.2771 22.8146 13.5604 22.8146 13.9209C22.8146 14.2815 22.5313 14.5648 22.1708 14.5648L11.8688 14.5648C11.5083 14.5648 11.225 14.2815 11.225 13.9209C11.225 13.5604 11.5083 13.2771 11.8688 13.2771Z" fill="#002072"/>
<path d="M5.43014 13.2771H9.29336C9.65392 13.2771 9.93723 13.5604 9.93723 13.9209C9.93723 14.2815 9.65392 14.5648 9.29336 14.5648H5.43014C5.06957 14.5648 4.78627 14.2815 4.78627 13.9209C4.78627 13.5604 5.06957 13.2771 5.43014 13.2771Z" fill="#0F82EB"/>
<path d="M1.56694 13.2771H2.85468C3.21524 13.2771 3.49855 13.5604 3.49855 13.9209C3.49855 14.2815 3.21524 14.5648 2.85468 14.5648H1.56694C1.20637 14.5648 0.923065 14.2815 0.923065 13.9209C0.923065 13.5604 1.20637 13.2771 1.56694 13.2771Z" fill="#0085D7"/>
<path d="M13.1566 5.55061H18.3076C18.6681 5.55061 18.9514 5.83391 18.9514 6.19448C18.9514 6.55505 18.6681 6.83835 18.3076 6.83835H13.1566C12.796 6.83835 12.5127 6.55505 12.5127 6.19448C12.5127 5.83391 12.796 5.55061 13.1566 5.55061Z" fill="#0053A4"/>
<path d="M1.56693 5.55061L10.5811 5.55061C10.9417 5.55061 11.225 5.83391 11.225 6.19448C11.225 6.55505 10.9417 6.83835 10.5811 6.83835L1.56693 6.83835C1.20637 6.83835 0.923065 6.55505 0.923065 6.19448C0.923065 5.83391 1.20637 5.55061 1.56693 5.55061Z" fill="#002072"/>
<path d="M5.43014 18.428H17.0198C17.3804 18.428 17.6637 18.7113 17.6637 19.0718C17.6637 19.4324 17.3804 19.7157 17.0198 19.7157H5.43014C5.06957 19.7157 4.78627 19.4324 4.78627 19.0718C4.78627 18.7113 5.06957 18.428 5.43014 18.428Z" fill="#0F82EB"/>
<path d="M1.56694 18.428H2.85468C3.21524 18.428 3.49855 18.7113 3.49855 19.0718C3.49855 19.4324 3.21524 19.7157 2.85468 19.7157H1.56694C1.20637 19.7157 0.923065 19.4324 0.923065 19.0718C0.923065 18.7113 1.20637 18.428 1.56694 18.428Z" fill="#0053A4"/>
<path d="M17.0198 8.12612H23.4585C23.8191 8.12612 24.1024 8.40942 24.1024 8.76998C24.1024 9.13054 23.8191 9.41384 23.4585 9.41384L17.0198 9.41384C16.6593 9.41384 16.376 9.13054 16.376 8.76998C16.376 8.40942 16.6593 8.12612 17.0198 8.12612Z" fill="#0085D7"/>
<path d="M17.0198 10.7016L23.4585 10.7016C23.8191 10.7016 24.1024 10.9849 24.1024 11.3454C24.1024 11.706 23.8191 11.9893 23.4585 11.9893L17.0198 11.9893C16.6593 11.9893 16.376 11.706 16.376 11.3454C16.376 10.9849 16.6593 10.7016 17.0198 10.7016Z" fill="#0F82EB"/>
<path d="M1.56694 0.399658L17.0198 0.399658C17.3804 0.399658 17.6637 0.682961 17.6637 1.04353C17.6637 1.4041 17.3804 1.6874 17.0198 1.6874L1.56694 1.6874C1.20637 1.6874 0.923065 1.4041 0.923065 1.04353C0.923065 0.682961 1.20637 0.399658 1.56694 0.399658Z" fill="#002072"/>
<path d="M19.5953 0.399658L27.3218 0.399658C27.6823 0.399658 27.9656 0.682961 27.9656 1.04353C27.9656 1.4041 27.6823 1.6874 27.3218 1.6874L19.5953 1.6874C19.2348 1.6874 18.9515 1.4041 18.9515 1.04353C18.9515 0.682961 19.2348 0.399658 19.5953 0.399658Z" fill="#B8E2FB"/>
<path d="M19.5953 18.428H22.1708C22.5314 18.428 22.8147 18.7113 22.8147 19.0718C22.8147 19.4324 22.5314 19.7157 22.1708 19.7157H19.5953C19.2348 19.7157 18.9515 19.4324 18.9515 19.0718C18.9515 18.7113 19.2348 18.428 19.5953 18.428Z" fill="#B8E2FB"/>
<path d="M24.7463 18.428H27.3218C27.6823 18.428 27.9656 18.7113 27.9656 19.0718C27.9656 19.4324 27.6823 19.7157 27.3218 19.7157H24.7463C24.3857 19.7157 24.1024 19.4324 24.1024 19.0718C24.1024 18.7113 24.3857 18.428 24.7463 18.428Z" fill="#B8E2FB"/>
<path d="M23.4585 15.8526H27.3218C27.6823 15.8526 27.9656 16.1359 27.9656 16.4964C27.9656 16.857 27.6823 17.1403 27.3218 17.1403H23.4585C23.098 17.1403 22.8147 16.857 22.8147 16.4964C22.8147 16.1359 23.098 15.8526 23.4585 15.8526Z" fill="#B8E2FB"/>
<path d="M23.4585 2.97517H27.3218C27.6823 2.97517 27.9656 3.25847 27.9656 3.61904C27.9656 3.97961 27.6823 4.26292 27.3218 4.26292H23.4585C23.098 4.26292 22.8147 3.97961 22.8147 3.61904C22.8147 3.25847 23.098 2.97517 23.4585 2.97517Z" fill="#B8E2FB"/>
<path d="M24.7463 13.2771H27.3218C27.6823 13.2771 27.9656 13.5604 27.9656 13.9209C27.9656 14.2815 27.6823 14.5648 27.3218 14.5648H24.7463C24.3857 14.5648 24.1024 14.2815 24.1024 13.9209C24.1024 13.5604 24.3857 13.2771 24.7463 13.2771Z" fill="#B8E2FB"/>
<path d="M24.7463 5.55061L27.3218 5.55061C27.6823 5.55061 27.9656 5.83391 27.9656 6.19448C27.9656 6.55505 27.6823 6.83835 27.3218 6.83835L24.7463 6.83835C24.3857 6.83835 24.1024 6.55505 24.1024 6.19448C24.1024 5.83391 24.3857 5.55061 24.7463 5.55061Z" fill="#B8E2FB"/>
<path d="M26.034 8.12612H27.3217C27.6823 8.12612 27.9656 8.40942 27.9656 8.76998C27.9656 9.13054 27.6823 9.41384 27.3217 9.41384H26.034C25.6734 9.41384 25.3901 9.13054 25.3901 8.76998C25.3901 8.40942 25.6734 8.12612 26.034 8.12612Z" fill="#B8E2FB"/>
<path d="M26.034 10.7016H27.3217C27.6823 10.7016 27.9656 10.9849 27.9656 11.3454C27.9656 11.706 27.6823 11.9893 27.3217 11.9893H26.034C25.6734 11.9893 25.3901 11.706 25.3901 11.3454C25.3901 10.9849 25.6734 10.7016 26.034 10.7016Z" fill="#B8E2FB"/>
<path d="M15.7321 21.0035H27.3217C27.6823 21.0035 27.9656 21.2868 27.9656 21.6474C27.9656 22.0079 27.6823 22.2912 27.3217 22.2912H15.7321C15.3716 22.2912 15.0882 22.0079 15.0882 21.6474C15.0882 21.2868 15.3716 21.0035 15.7321 21.0035Z" fill="#B8E2FB"/>
<path d="M10.5811 21.0035H13.1566C13.5171 21.0035 13.8004 21.2868 13.8004 21.6474C13.8004 22.0079 13.5171 22.2912 13.1566 22.2912H10.5811C10.2205 22.2912 9.93722 22.0079 9.93722 21.6474C9.93722 21.2868 10.2205 21.0035 10.5811 21.0035Z" fill="#B8E2FB"/>
<path d="M20.883 26.1545H27.3218C27.6823 26.1545 27.9656 26.4378 27.9656 26.7984C27.9656 27.1589 27.6823 27.4422 27.3218 27.4422H20.883C20.5225 27.4422 20.2392 27.1589 20.2392 26.7984C20.2392 26.4378 20.5225 26.1545 20.883 26.1545Z" fill="#B8E2FB"/>
<path d="M10.5811 26.1545H18.3075C18.6681 26.1545 18.9514 26.4378 18.9514 26.7984C18.9514 27.1589 18.6681 27.4422 18.3075 27.4422H10.5811C10.2205 27.4422 9.93722 27.1589 9.93722 26.7984C9.93722 26.4378 10.2205 26.1545 10.5811 26.1545Z" fill="#B8E2FB"/>
<path d="M10.5811 8.12612H14.4443C14.8049 8.12612 15.0882 8.40942 15.0882 8.76998C15.0882 9.13054 14.8049 9.41384 14.4443 9.41384H10.5811C10.2205 9.41384 9.93722 9.13054 9.93722 8.76998C9.93722 8.40942 10.2205 8.12612 10.5811 8.12612Z" fill="#B8E2FB"/>
<path d="M10.5811 10.7016H14.4443C14.8049 10.7016 15.0882 10.9849 15.0882 11.3454C15.0882 11.706 14.8049 11.9893 14.4443 11.9893H10.5811C10.2205 11.9893 9.93722 11.706 9.93722 11.3454C9.93722 10.9849 10.2205 10.7016 10.5811 10.7016Z" fill="#B8E2FB"/>
</svg>
