<svg width="32" height="28" viewBox="0 0 32 28" fill="none" xmlns="http://www.w3.org/2000/svg">
<path d="M19.0062 14.0612C19.0062 12.5678 17.7576 11.357 16.2172 11.357C14.677 11.357 13.4281 12.5678 13.4281 14.0612C13.4281 15.5547 14.677 16.7655 16.2172 16.7655C17.7576 16.7655 19.0062 15.5547 19.0062 14.0612Z" fill="#0053A4"/>
<path fillRule="evenodd" clipRule="evenodd" d="M25.2753 9.0407C25.8643 6.72013 26.6046 2.41689 23.9947 0.957958C21.3971 -0.494616 18.0167 2.28878 16.2317 3.95951C14.4519 2.30543 10.9765 -0.466069 8.36888 0.997499C5.77221 2.45495 6.57297 6.68684 7.175 9.02196C4.75275 9.689 0.600464 11.1257 0.600464 14.0612C0.600464 16.9883 4.74843 18.5514 7.15635 19.2178C6.55208 21.5658 5.79142 25.7373 8.39141 27.1915C11.0088 28.6548 14.4733 25.9492 16.2749 24.2602C18.0713 25.9408 21.4192 28.6641 24.0174 27.2058C26.6238 25.7429 25.945 21.4973 25.3429 19.1487C27.6771 18.4808 31.8339 16.9517 31.8339 14.0612C31.8339 11.154 27.6594 9.70555 25.2753 9.0407ZM24.9794 17.904C24.5841 16.6907 24.0505 15.4005 23.3979 14.0676C24.0209 12.7662 24.5337 11.4926 24.918 10.2871C26.6657 10.7784 30.4997 11.9013 30.4997 14.0612C30.4997 16.2414 26.8205 17.3748 24.9794 17.904ZM23.3488 26.0861C21.4103 27.1741 18.5307 24.5699 17.204 23.3323C18.0841 22.3989 18.9637 21.3139 19.8221 20.109C21.3321 19.9792 22.7585 19.7668 24.0522 19.4768C24.4759 21.1381 25.2959 24.9933 23.3488 26.0861ZM9.05809 26.0706C7.11933 24.9867 8.00548 21.2643 8.45003 19.5347C9.72932 19.8092 11.1455 20.0066 12.6591 20.1256C13.5231 21.3045 14.4281 22.3882 15.3402 23.3373C14.2134 24.3941 11.0059 27.1595 9.05809 26.0706ZM1.93464 14.0612C1.93464 11.8728 5.74573 10.7581 7.53329 10.2681C7.9242 11.5006 8.43689 12.7894 9.0556 14.0927C8.42887 15.4153 7.90885 16.7245 7.51435 17.9717C5.80988 17.4986 1.93464 16.2508 1.93464 14.0612ZM9.03735 2.11711C10.984 1.02459 14.0045 3.68534 15.2967 4.88293C14.3894 5.82765 13.4927 6.90318 12.6361 8.07538C11.1672 8.20739 9.76098 8.41936 8.46827 8.70338C7.98327 6.82001 7.09278 3.20846 9.03735 2.11711ZM20.7765 9.48151C21.7731 9.60342 22.7279 9.76563 23.6244 9.96406C23.3553 10.8005 23.0198 11.6751 22.6247 12.5717C22.052 11.5181 21.4372 10.4857 20.7765 9.48151ZM16.2321 5.80741C16.8475 6.45381 17.4638 7.17564 18.0702 7.95877C16.8403 7.90234 15.6085 7.90213 14.3786 7.95794C14.9854 7.18208 15.6071 6.46131 16.2321 5.80741ZM9.8211 12.5708C9.43255 11.6773 9.10011 10.7988 8.82863 9.95042C9.71978 9.75709 10.6701 9.59905 11.6602 9.47911C10.9977 10.4811 10.3839 11.5131 9.8211 12.5708ZM11.6887 18.7356C10.6659 18.6249 9.70112 18.4749 8.81024 18.2868C9.08601 17.4235 9.42577 16.5261 9.82262 15.6134C10.3932 16.6821 11.0163 17.7241 11.6887 18.7356ZM16.269 22.4063C15.6367 21.7447 15.0059 21.0129 14.3898 20.2258C15.6267 20.2729 16.8659 20.273 18.1027 20.2195C17.4944 21.0209 16.8803 21.7538 16.269 22.4063ZM22.6374 15.5669C23.0549 16.4896 23.4068 17.3821 23.6864 18.2308C22.7807 18.4312 21.803 18.5926 20.7728 18.7124C21.4384 17.6892 22.063 16.6407 22.6374 15.5669ZM19.0774 18.8692C17.1855 19.0003 15.2819 18.9989 13.3893 18.88C12.3139 17.3569 11.3566 15.7552 10.5303 14.0923C11.3527 12.4329 12.303 10.8342 13.3733 9.31357C15.2672 9.17479 17.1727 9.17438 19.0666 9.31441C20.1277 10.835 21.0766 12.4294 21.918 14.0739C21.0866 15.7325 20.1313 17.3343 19.0774 18.8692ZM23.3283 2.07866C25.2755 3.1676 24.4088 7.03505 23.9834 8.71681C22.6876 8.42686 21.2804 8.21114 19.8073 8.07704C18.949 6.89219 18.0598 5.81478 17.1671 4.88226C18.4759 3.65887 21.4 1.00036 23.3283 2.07866Z" fill="#0053A4"/>
</svg>
