<svg width="29" height="28" viewBox="0 0 29 28" fill="none" xmlns="http://www.w3.org/2000/svg">
<path d="M19.9155 19.4286C20.9622 19.3202 21.7563 18.4179 21.7201 17.335C21.6841 16.2522 20.7817 15.3858 19.6989 15.3858H19.6267C18.5077 15.4219 17.6415 16.3604 17.6776 17.4793C17.7137 18.0208 17.9302 18.49 18.2551 18.8149C17.0279 21.2334 15.151 23.002 12.3356 24.482C10.4226 25.4927 8.4374 25.8536 6.45224 25.601C4.82794 25.3844 3.56463 24.6626 2.77043 23.4713C1.61548 21.7026 1.50723 19.7895 2.4818 17.8764C3.16764 16.5048 4.25035 15.4941 4.93619 14.9887C4.79182 14.5195 4.57521 13.7254 4.46696 13.1479C-0.766783 16.938 -0.225315 22.0636 1.36286 24.482C2.55393 26.2869 4.97231 27.4058 7.64331 27.4058C8.36516 27.4058 9.087 27.3336 9.80896 27.1532C14.4291 26.2507 17.9303 23.5074 19.9155 19.4286ZM26.2682 14.9527C23.5249 11.7401 19.4824 9.97149 14.8622 9.97149H14.2847C13.9599 9.32177 13.274 8.88855 12.5161 8.88855H12.4438C11.325 8.92467 10.4588 9.86313 10.4948 10.9822C10.5309 12.065 11.4333 12.9313 12.5161 12.9313H12.5882C13.3823 12.8952 14.0681 12.3899 14.3569 11.704H15.0066C17.7498 11.704 20.3486 12.4981 22.6948 14.0503C24.4995 15.2415 25.7989 16.7936 26.5208 18.6705C27.1344 20.1866 27.0983 21.6665 26.4485 22.9299C25.438 24.8429 23.7415 25.8898 21.5036 25.8898C20.0598 25.8898 18.6883 25.4565 17.9663 25.1317C17.5693 25.4927 16.8474 26.0701 16.342 26.4312C17.8942 27.1531 19.4824 27.5502 20.9983 27.5502C24.4634 27.5502 27.0261 25.637 28.0007 23.724C29.0474 21.6304 28.9752 18.0208 26.2682 14.9527ZM7.93205 20.0421C7.96817 21.125 8.8705 21.9912 9.95333 21.9912H10.0256C11.1445 21.9552 12.0107 21.0167 11.9746 19.8977C11.9386 18.8148 11.0362 17.9486 9.95333 17.9486H9.8812C9.80896 17.9486 9.7006 17.9486 9.62858 17.9846C8.14866 15.5301 7.53506 12.8591 7.75167 9.97138C7.89593 7.80562 8.61789 5.9286 9.8812 4.37644C10.9279 3.04089 12.9492 2.39117 14.3209 2.35516C18.1468 2.28292 19.771 7.04754 19.8794 8.96068C20.3486 9.06893 21.1427 9.32166 21.6841 9.50215C21.2509 3.6547 17.6415 0.62262 14.1765 0.62262C10.9279 0.62262 7.93205 2.96887 6.74086 6.43406C5.08056 11.0543 6.16339 15.4941 8.18467 18.9954C8.00429 19.248 7.89593 19.645 7.93205 20.0421Z" fill="#0053A4"/>
</svg>
