<svg width="28" height="28" viewBox="0 0 28 28" fill="none" xmlns="http://www.w3.org/2000/svg">
<path d="M27.9808 13.3995C27.9072 8.87226 25.3829 4.46434 21.4776 2.14318C18.4008 0.226932 14.5142 -0.288834 11.0134 0.595458C5.74443 1.9219 1.54383 6.69369 1.00987 12.1323C0.346438 17.2688 2.94431 22.6109 7.38397 25.2452C11.7318 27.9717 17.6456 27.8613 21.8965 24.9913C25.7286 22.5043 28.1052 17.9678 27.9766 13.4033L27.9808 13.3995ZM15.1954 25.2274C9.04212 25.8354 3.09155 20.6219 2.92527 14.4501C2.45985 9.43923 5.7622 4.48338 10.4786 2.82523C17.0926 0.172351 25.2171 5.07277 25.8987 12.1661C26.9674 18.5398 21.6617 25.0286 15.1954 25.2274ZM11.1462 13.0124L20.0442 5.73493L15.236 13.0306C13.8727 13.0306 12.5095 13.031 11.1462 13.0124ZM13.6481 14.3578L17.7378 14.3765L8.83988 21.6721L13.6481 14.3578Z" fill="#0053A4"/>
</svg>
