<svg width="24" height="27" viewBox="0 0 24 27" fill="none" xmlns="http://www.w3.org/2000/svg">
<path d="M21.6189 3.56592C19.1152 -0.0156325 14.1698 -1.07723 10.5945 1.19981L4.31578 5.20015C3.89339 5.46555 3.49934 5.77413 3.14082 6.12095C2.78186 6.46777 2.46023 6.85103 2.18089 7.26442C1.90154 7.67782 1.66583 8.1191 1.47735 8.58107C1.28933 9.04326 1.14974 9.5237 1.06081 10.0147C0.986587 10.4263 0.946102 10.8437 0.940704 11.2621C0.934857 11.6809 0.964096 12.0992 1.02752 12.5126C1.09095 12.9264 1.18856 13.3344 1.31901 13.7321C1.44946 14.1297 1.61275 14.5157 1.80708 14.8863C1.67339 15.0895 1.54999 15.2992 1.43732 15.5148C1.32441 15.7302 1.22275 15.9515 1.13233 16.1774C1.04192 16.4032 0.963196 16.6335 0.896171 16.8674C0.829147 17.1013 0.774267 17.3384 0.731084 17.5777C0.551648 18.584 0.575354 19.6161 0.800807 20.6131C0.913265 21.1102 1.07475 21.5951 1.28347 22.0602C1.4922 22.5254 1.74635 22.9689 2.04324 23.3836C4.54699 26.9652 9.49197 28.0268 13.0672 25.7497L19.3459 21.7661C19.7683 21.5002 20.1615 21.1912 20.52 20.8439C20.8785 20.4969 21.2 20.1137 21.4795 19.7004C21.7588 19.2875 21.9945 18.8462 22.183 18.3842C22.3715 17.9227 22.5114 17.4423 22.6009 16.9515C22.6751 16.5399 22.7152 16.1229 22.7206 15.7046C22.726 15.2862 22.6967 14.8679 22.6329 14.4545C22.5694 14.0411 22.4718 13.6336 22.3409 13.2359C22.21 12.8387 22.0467 12.4528 21.8524 12.0821C21.986 11.8792 22.1097 11.6692 22.2226 11.4537C22.3351 11.2382 22.4372 11.0169 22.5276 10.7911C22.618 10.5653 22.6972 10.335 22.7647 10.1011C22.8317 9.86759 22.8875 9.63053 22.9311 9.39122C23.0202 8.88921 23.0588 8.37955 23.0471 7.86989C23.0355 7.36024 22.9729 6.85328 22.8605 6.35576C22.748 5.8587 22.5865 5.37379 22.3778 4.90866C22.1693 4.44346 21.9151 4.00014 21.6189 3.58526" fill="#0053A4"/>
<path d="M9.98097 23.73C9.48957 23.8577 8.98156 23.9096 8.4745 23.8839C7.96754 23.8578 7.46733 23.7552 6.99141 23.5784C6.51547 23.4019 6.06921 23.1539 5.66801 22.843C5.26714 22.5318 4.91599 22.1614 4.62665 21.7445C4.44807 21.4948 4.29513 21.2285 4.17008 20.9487C4.04466 20.6691 3.94746 20.3777 3.87994 20.0787C3.81291 19.7796 3.77513 19.4746 3.76838 19.1683C3.76163 18.862 3.78547 18.5556 3.83945 18.2538C3.848 18.2048 3.85789 18.1557 3.86869 18.1071C3.87904 18.0581 3.89073 18.0095 3.90333 17.9614C3.91547 17.9128 3.92897 17.8647 3.94336 17.8165C3.95731 17.7689 3.9726 17.7212 3.98835 17.674L4.10665 17.3127L4.42918 17.5534C4.61406 17.6883 4.80479 17.8156 5.00046 17.9344C5.19614 18.0536 5.39676 18.1643 5.60188 18.2659C5.80656 18.368 6.01618 18.4616 6.22895 18.5457C6.44172 18.6303 6.65808 18.7054 6.8776 18.7715L7.11826 18.8413L7.09667 19.0819C7.08506 19.2457 7.10211 19.4103 7.14705 19.5682C7.16909 19.6474 7.19833 19.7238 7.23387 19.7976C7.2694 19.8714 7.31124 19.942 7.35892 20.0086C7.44629 20.1341 7.55232 20.2456 7.67335 20.3392C7.7939 20.4328 7.9284 20.5074 8.0719 20.5605C8.21539 20.6136 8.36564 20.6442 8.51858 20.6518C8.67107 20.6599 8.82401 20.6442 8.97201 20.6055C9.00619 20.5965 9.03948 20.5862 9.07277 20.5745C9.10606 20.5628 9.13889 20.5502 9.17083 20.5358C9.20322 20.5218 9.23471 20.5065 9.26619 20.4899C9.29723 20.4737 9.32737 20.4562 9.35706 20.4373L15.6263 16.4365C15.7032 16.3883 15.7748 16.3322 15.84 16.2691C15.9052 16.2057 15.9633 16.136 16.0141 16.0609C16.0649 15.9857 16.1072 15.9052 16.1414 15.8211C16.1751 15.737 16.2003 15.6497 16.2165 15.5606C16.2323 15.4693 16.239 15.3771 16.2368 15.2845C16.2345 15.1922 16.2228 15.1005 16.2021 15.0101C16.1819 14.9201 16.1522 14.8324 16.114 14.7478C16.0762 14.6637 16.0294 14.5836 15.9754 14.5085C15.8881 14.383 15.7824 14.2719 15.6614 14.1783C15.5404 14.0848 15.4059 14.0101 15.2629 13.957C15.1195 13.9039 14.9689 13.873 14.8162 13.8652C14.6632 13.8576 14.5103 13.8733 14.3623 13.9116C14.3286 13.9206 14.2948 13.9309 14.2616 13.9426C14.2283 13.9543 14.1959 13.9669 14.1635 13.9808C14.1311 13.9952 14.0996 14.0105 14.0686 14.0272C14.0375 14.0434 14.0069 14.0614 13.9773 14.0803L11.5698 15.6088C11.4717 15.6709 11.3709 15.7293 11.2684 15.7842C11.1654 15.8386 11.061 15.8895 10.9544 15.9363C10.8478 15.983 10.7394 16.0258 10.6296 16.064C10.5199 16.1027 10.4088 16.1369 10.2963 16.167C9.80554 16.2939 9.29858 16.3452 8.79252 16.3191C8.28647 16.293 7.78761 16.19 7.31259 16.0141C6.83756 15.8377 6.39223 15.5899 5.99189 15.2795C5.59154 14.9691 5.24067 14.5998 4.95143 14.1837C4.77375 13.9341 4.62125 13.6673 4.49665 13.3875C4.3716 13.1077 4.27489 12.8162 4.20786 12.5175C4.14084 12.2184 4.10395 11.9134 4.09765 11.6071C4.09091 11.3012 4.11475 10.9949 4.16918 10.6935C4.27553 10.1001 4.50441 9.53539 4.84122 9.03541C5.17827 8.53543 5.61599 8.11134 6.12638 7.79028L12.415 3.78994C12.5126 3.72786 12.6125 3.66938 12.7146 3.6145C12.8167 3.56007 12.9211 3.50924 13.0268 3.46246C13.1327 3.41566 13.2405 3.37304 13.3497 3.33471C13.4586 3.29602 13.5693 3.26139 13.6813 3.23125C14.1725 3.10395 14.6803 3.05177 15.1869 3.07741C15.6938 3.1035 16.1936 3.20606 16.6695 3.38284C17.1454 3.55917 17.5912 3.80748 17.9924 4.11831C18.3932 4.42966 18.7442 4.80022 19.0333 5.21725C19.2115 5.46646 19.3649 5.73276 19.4904 6.01255C19.6159 6.29234 19.713 6.58338 19.781 6.88252C19.8484 7.18166 19.8862 7.48664 19.893 7.79298C19.9002 8.09931 19.8768 8.40565 19.8228 8.70748C19.8133 8.75696 19.8035 8.80645 19.7922 8.85548C19.7814 8.90451 19.7697 8.95354 19.7571 9.00212C19.745 9.05115 19.7315 9.09974 19.7175 9.14787C19.7036 9.19645 19.6892 9.24458 19.6735 9.29226L19.5533 9.65348L19.2331 9.41282C19.0477 9.27652 18.8566 9.14877 18.6604 9.02866C18.4643 8.90901 18.2628 8.79745 18.0572 8.69444C17.6457 8.48913 17.2176 8.3188 16.7774 8.18523L16.5363 8.11551L16.5584 7.87485C16.5651 7.79253 16.5647 7.70976 16.557 7.62789C16.5498 7.54602 16.535 7.4646 16.5134 7.38498C16.4914 7.30581 16.463 7.22799 16.4275 7.15377C16.3924 7.0791 16.3506 7.00802 16.3029 6.94055C16.2151 6.81726 16.1091 6.70805 15.9884 6.61667C15.868 6.52488 15.7342 6.45206 15.5917 6.40075C15.3054 6.29688 14.9942 6.28291 14.6997 6.36072C14.6655 6.36971 14.6318 6.38006 14.5989 6.39131C14.5656 6.403 14.5328 6.41605 14.5004 6.42999C14.4685 6.44394 14.4365 6.45968 14.4055 6.47588C14.3745 6.49252 14.3439 6.51006 14.3142 6.52895L8.03321 10.5225C7.95674 10.5707 7.88522 10.6269 7.82044 10.6899C7.75567 10.7529 7.69719 10.8226 7.64636 10.8973C7.59595 10.9724 7.5533 11.0524 7.51906 11.1361C7.48487 11.2202 7.45968 11.3071 7.44349 11.3961C7.42774 11.4874 7.42099 11.5801 7.42324 11.6728C7.42864 11.8583 7.47036 12.0409 7.54605 12.2103C7.58421 12.2947 7.63046 12.3751 7.68414 12.4505C7.77096 12.5747 7.87622 12.6853 7.99633 12.778C8.11618 12.8711 8.24951 12.9454 8.39173 12.9984C8.6777 13.1047 8.98919 13.1218 9.28509 13.0474C9.31882 13.038 9.35256 13.0277 9.38585 13.016C9.41869 13.0043 9.45152 12.9912 9.48391 12.9773C9.51615 12.9633 9.54782 12.948 9.57883 12.9314C9.60987 12.9152 9.64045 12.8977 9.67014 12.8788L12.0776 11.3529C12.1761 11.29 12.2765 11.2306 12.3795 11.1757C12.482 11.1204 12.5868 11.0695 12.6939 11.0223C12.8006 10.9755 12.9091 10.9329 13.0191 10.8946C13.1293 10.8559 13.2409 10.8217 13.3538 10.792C13.845 10.6642 14.3524 10.6121 14.8594 10.6373C15.3663 10.6629 15.8661 10.7655 16.342 10.9418C16.8175 11.1181 17.2637 11.366 17.6645 11.6773C18.0658 11.9881 18.4166 12.3583 18.7059 12.7753C18.884 13.025 19.0369 13.2913 19.1624 13.571C19.2879 13.8507 19.3853 14.1421 19.453 14.441C19.5205 14.7397 19.5583 15.0447 19.5655 15.351C19.5727 15.6578 19.5488 15.9641 19.4953 16.2655C19.4423 16.5614 19.3586 16.851 19.2457 17.1297C19.1328 17.4083 18.9911 17.6744 18.8228 17.9236C18.655 18.1728 18.4616 18.404 18.2457 18.6132C18.0298 18.8224 17.7927 19.0086 17.5381 19.1687L11.2567 23.1691C11.1582 23.2316 11.0574 23.2905 10.9549 23.3454C10.8518 23.4003 10.747 23.4511 10.64 23.4979C10.5334 23.5451 10.425 23.5879 10.3147 23.6266C10.205 23.6652 10.0934 23.6999 9.98097 23.73Z" fill="#E7F5FE"/>
</svg>
