<svg width="32" height="20" viewBox="0 0 32 20" fill="none" xmlns="http://www.w3.org/2000/svg">
<path d="M7.82212 6.97374C8.85962 2.82373 11.4534 0.748718 15.6034 0.748718C21.8284 0.748718 22.6066 5.41749 25.7191 6.19561C27.7941 6.71437 29.6097 5.93624 31.166 3.86123C30.1285 8.01125 27.5347 10.0863 23.3847 10.0863C17.1597 10.0863 16.3815 5.41749 13.269 4.63936C11.194 4.12061 9.37838 4.89873 7.82212 6.97374ZM0.0408401 16.3113C1.07834 12.1613 3.6721 10.0863 7.82212 10.0863C14.0471 10.0863 14.8253 14.755 17.9378 15.5331C20.0128 16.0519 21.8284 15.2738 23.3847 13.1988C22.3472 17.3488 19.7534 19.4238 15.6034 19.4238C9.37838 19.4238 8.60025 14.755 5.48774 13.9769C3.41273 13.4581 1.5971 14.2363 0.0408401 16.3113Z" fill="#0053A4"/>
</svg>
