<svg width="28" height="28" viewBox="0 0 28 28" fill="none" xmlns="http://www.w3.org/2000/svg">
<path d="M27.5113 0.565002L0.468729 0.565002L0.468729 27.6076H27.5113L27.5113 0.565002Z" fill="#0053A4"/>
<path d="M18.6345 21.6921C19.1792 22.5815 19.8879 23.2353 21.1413 23.2353C22.1942 23.2353 22.8668 22.709 22.8668 21.9819C22.8668 21.1105 22.1758 20.8019 21.0168 20.2949L20.3815 20.0224C18.5478 19.2411 17.3296 18.2624 17.3296 16.1935C17.3296 14.2876 18.7817 12.8368 21.0511 12.8368C22.6668 12.8368 23.8284 13.3991 24.6654 14.8714L22.6866 16.142C22.2509 15.3607 21.7809 15.053 21.0511 15.053C20.3068 15.053 19.8351 15.5251 19.8351 16.142C19.8351 16.9043 20.3072 17.2129 21.3975 17.6851L22.0328 17.9573C24.1919 18.8831 25.411 19.8271 25.411 21.9493C25.411 24.2371 23.6137 25.4905 21.2001 25.4905C18.8401 25.4905 17.3154 24.3659 16.5694 22.8919L18.6345 21.6921ZM9.65762 21.9123C10.0568 22.6206 10.42 23.2194 11.2931 23.2194C12.1279 23.2194 12.6546 22.8927 12.6546 21.6226V12.9818H15.1958V21.6569C15.1958 24.2882 13.6531 25.4858 11.4012 25.4858C9.36659 25.4858 8.18831 24.4329 7.58908 23.1647L9.65762 21.9123Z" fill="#E7F5FE"/>
<path d="M12.5362 8.31865H13.1636L13.9986 10.6335L14.8597 8.31865H15.4481L14.2107 11.382H13.739L12.5362 8.31865Z" fill="#E7F5FE"/>
<path d="M16.7908 11.0965H16.7778C16.7028 11.2147 16.6076 11.3013 16.4922 11.3561C16.3768 11.408 16.2499 11.434 16.1114 11.434C16.0163 11.434 15.9225 11.421 15.8302 11.395C15.7408 11.3691 15.66 11.3301 15.5879 11.2782C15.5187 11.2263 15.4624 11.1614 15.4192 11.0835C15.3759 11.0056 15.3543 10.9147 15.3543 10.8109C15.3543 10.6984 15.3744 10.6032 15.4148 10.5253C15.4552 10.4446 15.5086 10.3782 15.5749 10.3263C15.6441 10.2715 15.7235 10.2282 15.8129 10.1965C15.9023 10.1648 15.9946 10.1417 16.0898 10.1273C16.1879 10.11 16.286 10.0999 16.384 10.097C16.4821 10.0912 16.5744 10.0883 16.6609 10.0883H16.7908V10.0321C16.7908 9.90227 16.746 9.80563 16.6566 9.74217C16.5672 9.67583 16.4533 9.64266 16.3148 9.64266C16.2052 9.64266 16.1028 9.66285 16.0076 9.70323C15.9124 9.74073 15.8302 9.79265 15.761 9.859L15.4884 9.58641C15.6038 9.46814 15.7379 9.38305 15.8908 9.33113C16.0465 9.2792 16.2066 9.25324 16.3711 9.25324C16.5182 9.25324 16.6422 9.27055 16.7432 9.30517C16.8441 9.33689 16.9278 9.37872 16.9941 9.43064C17.0605 9.48256 17.1109 9.54314 17.1456 9.61237C17.1831 9.67871 17.209 9.7465 17.2234 9.81573C17.2407 9.88496 17.2508 9.95274 17.2537 10.0191C17.2566 10.0825 17.258 10.1388 17.258 10.1878V11.382H16.7908V11.0965ZM16.7605 10.4518H16.6523C16.5802 10.4518 16.4994 10.4547 16.41 10.4604C16.3206 10.4662 16.2355 10.4806 16.1547 10.5037C16.0768 10.5239 16.0105 10.5556 15.9557 10.5989C15.9009 10.6393 15.8735 10.697 15.8735 10.772C15.8735 10.821 15.8836 10.8628 15.9038 10.8974C15.9268 10.9292 15.9557 10.9566 15.9903 10.9796C16.0249 11.0027 16.0638 11.02 16.1071 11.0316C16.1504 11.0402 16.1937 11.0445 16.2369 11.0445C16.4158 11.0445 16.547 11.0027 16.6307 10.9191C16.7172 10.8325 16.7605 10.7157 16.7605 10.5686V10.4518Z" fill="#E7F5FE"/>
<path d="M17.8167 9.30517H18.3099V9.63833H18.3186C18.3676 9.53449 18.4426 9.44506 18.5436 9.37007C18.6445 9.29218 18.7816 9.25324 18.9546 9.25324C19.0931 9.25324 19.2099 9.27632 19.3051 9.32247C19.4032 9.36862 19.4825 9.4292 19.5431 9.5042C19.6037 9.5792 19.6469 9.66573 19.6729 9.76381C19.6988 9.86188 19.7118 9.96428 19.7118 10.071V11.382H19.1926V10.3306C19.1926 10.2729 19.1897 10.2095 19.184 10.1402C19.1782 10.0681 19.1623 10.0018 19.1364 9.94121C19.1133 9.87775 19.0758 9.82582 19.0239 9.78544C18.9719 9.74217 18.9013 9.72054 18.8118 9.72054C18.7253 9.72054 18.6518 9.73496 18.5912 9.76381C18.5335 9.79265 18.4845 9.83159 18.4441 9.88063C18.4066 9.92967 18.3792 9.98592 18.3619 10.0494C18.3446 10.1128 18.3359 10.1792 18.3359 10.2484V11.382H17.8167V9.30517Z" fill="#E7F5FE"/>
<path d="M20.3099 9.30517H20.8291V11.382H20.3099V9.30517ZM20.2363 8.59989C20.2363 8.51624 20.2666 8.44413 20.3272 8.38355C20.3906 8.32009 20.47 8.28836 20.5652 8.28836C20.6603 8.28836 20.7397 8.31865 20.8031 8.37923C20.8695 8.43692 20.9026 8.51047 20.9026 8.59989C20.9026 8.68931 20.8695 8.76431 20.8031 8.82489C20.7397 8.88258 20.6603 8.91142 20.5652 8.91142C20.47 8.91142 20.3906 8.88114 20.3272 8.82056C20.2666 8.7571 20.2363 8.68355 20.2363 8.59989Z" fill="#E7F5FE"/>
<path d="M21.4338 8.11096H21.953V11.382H21.4338V8.11096Z" fill="#E7F5FE"/>
<path d="M22.562 8.11096H23.0812V11.382H22.562V8.11096Z" fill="#E7F5FE"/>
<path d="M24.9754 11.0965H24.9624C24.8874 11.2147 24.7922 11.3013 24.6768 11.3561C24.5614 11.408 24.4345 11.434 24.296 11.434C24.2009 11.434 24.1071 11.421 24.0148 11.395C23.9254 11.3691 23.8446 11.3301 23.7725 11.2782C23.7033 11.2263 23.647 11.1614 23.6038 11.0835C23.5605 11.0056 23.5389 10.9147 23.5389 10.8109C23.5389 10.6984 23.559 10.6032 23.5994 10.5253C23.6398 10.4446 23.6932 10.3782 23.7595 10.3263C23.8288 10.2715 23.9081 10.2282 23.9975 10.1965C24.0869 10.1648 24.1792 10.1417 24.2744 10.1273C24.3725 10.11 24.4706 10.0999 24.5686 10.097C24.6667 10.0912 24.759 10.0883 24.8456 10.0883H24.9754V10.0321C24.9754 9.90227 24.9306 9.80563 24.8412 9.74217C24.7518 9.67583 24.6379 9.64266 24.4994 9.64266C24.3898 9.64266 24.2874 9.66285 24.1922 9.70323C24.097 9.74073 24.0148 9.79265 23.9456 9.859L23.673 9.58641C23.7884 9.46814 23.9225 9.38305 24.0754 9.33113C24.2311 9.2792 24.3912 9.25324 24.5557 9.25324C24.7028 9.25324 24.8268 9.27055 24.9278 9.30517C25.0287 9.33689 25.1124 9.37872 25.1787 9.43064C25.2451 9.48256 25.2955 9.54314 25.3302 9.61237C25.3677 9.67871 25.3936 9.7465 25.408 9.81573C25.4253 9.88496 25.4354 9.95274 25.4383 10.0191C25.4412 10.0825 25.4427 10.1388 25.4427 10.1878V11.382H24.9754V11.0965ZM24.9451 10.4518H24.8369C24.7648 10.4518 24.684 10.4547 24.5946 10.4604C24.5052 10.4662 24.4201 10.4806 24.3393 10.5037C24.2614 10.5239 24.1951 10.5556 24.1403 10.5989C24.0855 10.6393 24.0581 10.697 24.0581 10.772C24.0581 10.821 24.0682 10.8628 24.0884 10.8974C24.1114 10.9292 24.1403 10.9566 24.1749 10.9796C24.2095 11.0027 24.2485 11.02 24.2917 11.0316C24.335 11.0402 24.3783 11.0445 24.4215 11.0445C24.6004 11.0445 24.7316 11.0027 24.8153 10.9191C24.9018 10.8325 24.9451 10.7157 24.9451 10.5686V10.4518Z" fill="#E7F5FE"/>
</svg>
