<svg width="28" height="28" viewBox="0 0 28 28" fill="none" xmlns="http://www.w3.org/2000/svg">
<path d="M14.0579 0.947571C6.58923 0.947571 0.530731 7.00607 0.530731 14.4747C0.530731 21.9434 6.58923 28.0019 14.0579 28.0019C21.5266 28.0019 27.5851 21.9434 27.5851 14.4747C27.5851 7.00607 21.5266 0.947571 14.0579 0.947571Z" fill="#0053A4"/>
<path d="M22.0175 19.3424C21.1819 19.5409 20.7588 19.7237 19.7247 20.3974C18.1108 21.442 16.3455 21.9277 16.3455 21.9277C16.3455 21.9277 16.1993 22.1471 15.7762 22.2463C15.045 22.4239 12.2926 22.5754 12.0419 22.5806C11.3681 22.5858 10.9555 22.4082 10.8406 22.1314C10.4907 21.2958 11.342 20.9302 11.342 20.9302C11.342 20.9302 11.154 20.8153 11.0443 20.7108C10.9451 20.6116 10.8406 20.4131 10.8093 20.4862C10.6787 20.8048 10.6108 21.583 10.2609 21.933C9.78039 22.4187 8.87161 22.2568 8.33366 21.9747C7.74348 21.6614 8.37544 20.925 8.37544 20.925C8.37544 20.925 8.05685 21.113 7.80093 20.7265C7.57113 20.3713 7.35699 19.7655 7.41444 19.0186C7.47712 18.1673 8.42767 17.3421 8.42767 17.3421C8.42767 17.3421 8.26054 16.0834 8.80894 14.7933C9.30511 13.6182 10.6422 12.6729 10.6422 12.6729C10.6422 12.6729 9.51925 11.4298 9.93708 10.3121C10.2087 9.58093 10.3183 9.58616 10.4071 9.55482C10.7205 9.43469 11.0234 9.30412 11.248 9.05865C12.3709 7.84695 13.802 8.07675 13.802 8.07675C13.802 8.07675 14.481 6.01373 15.1077 6.41589C15.3009 6.54124 15.9956 8.0872 15.9956 8.0872C15.9956 8.0872 16.7372 7.6537 16.8208 7.81561C17.27 8.68783 17.3222 10.3539 17.1237 11.3671C16.7894 13.0385 15.9538 13.9368 15.6195 14.5009C15.5412 14.6314 16.5179 15.044 17.1342 16.7519C17.7034 18.3135 17.1968 19.6245 17.2856 19.7707C17.3013 19.7968 17.3065 19.8073 17.3065 19.8073C17.3065 19.8073 17.9594 19.8595 19.2703 19.05C19.9702 18.6165 20.8006 18.1307 21.7459 18.1203C22.6599 18.1046 22.7069 19.1753 22.0175 19.3424ZM23.2606 18.5747C23.1665 17.833 22.5398 17.3212 21.7355 17.3316C20.5342 17.3473 19.5262 17.9688 18.8577 18.3814C18.5966 18.5433 18.372 18.6635 18.1787 18.7523C18.2205 18.1464 18.1839 17.3525 17.8706 16.4803C17.4893 15.4357 16.9775 14.7933 16.6119 14.4225C17.0349 13.8062 17.6147 12.9079 17.8862 11.5186C18.1213 10.333 18.0482 8.48936 17.5102 7.45524C17.4005 7.24632 17.2177 7.09486 16.9879 7.03219C16.8939 7.00607 16.7163 6.95384 16.3664 7.05308C15.8389 5.9615 15.6561 5.8466 15.5151 5.75259C15.2226 5.56457 14.8779 5.52278 14.5541 5.64291C14.1206 5.79959 13.7498 6.21742 13.3998 6.95906C13.3476 7.06874 13.3006 7.1732 13.2588 7.27766C12.5955 7.32467 11.5509 7.56492 10.6683 8.5207C10.5586 8.64082 10.3445 8.72961 10.1199 8.81318H10.1251C9.66549 8.97508 9.45657 9.35113 9.20065 10.0301C8.8455 10.9807 9.2111 11.9155 9.57148 12.5214C9.08053 12.9601 8.42767 13.66 8.08297 14.48C7.65469 15.4932 7.60769 16.4855 7.62335 17.0235C7.25776 17.41 6.69369 18.136 6.63101 18.9507C6.54745 20.0893 6.96005 20.8623 7.14285 21.1443C7.19508 21.2279 7.25253 21.2958 7.31521 21.3637C7.29432 21.5047 7.28909 21.6562 7.32043 21.8128C7.38833 22.1784 7.61813 22.4761 7.96806 22.6642C8.65748 23.0298 9.61848 23.1864 10.3601 22.8156C10.6265 23.0977 11.1122 23.3692 11.9949 23.3692H12.0471C12.2717 23.3692 15.1234 23.2178 15.9538 23.0141C16.3246 22.9253 16.5805 22.7686 16.7477 22.6276C17.2804 22.4605 18.7532 21.9591 20.1425 21.0607C21.1244 20.4236 21.4639 20.2878 22.1951 20.1102C22.9054 19.9378 23.3493 19.2902 23.2606 18.5747Z" fill="#E7F5FE"/>
</svg>
